<svg width="130" height="130" viewBox="0 0 130 130" fill="none" xmlns="http://www.w3.org/2000/svg">
<g opacity="0.930588" clip-path="url(#clip0_4204_910)">
<path d="M111.592 106.361C58.264 131.74 25.1682 110.505 3.98265 97.6084C2.67169 96.7957 0.443521 97.7986 2.37676 100.019C9.43474 108.577 32.5653 129.205 62.7573 129.205C92.9701 129.205 110.944 112.719 113.193 109.843C115.425 106.991 113.848 105.418 111.591 106.361H111.592ZM126.569 98.0894C125.137 96.2246 117.86 95.877 113.281 96.4394C108.696 96.9857 101.812 99.7885 102.41 101.471C102.717 102.102 103.344 101.819 106.495 101.536C109.654 101.221 118.504 100.104 120.348 102.514C122.201 104.942 117.525 116.505 116.671 118.369C115.847 120.235 116.986 120.715 118.536 119.473C120.064 118.232 122.831 115.016 124.688 110.466C126.532 105.891 127.657 99.5093 126.568 98.0894H126.569Z" fill="#FF9900"/>
<path fill-rule="evenodd" clip-rule="evenodd" d="M75.7347 54.5727C75.7347 61.2318 75.9029 66.7853 72.5371 72.6991C69.8205 77.5075 65.5171 80.4645 60.7091 80.4645C54.1458 80.4645 50.3234 75.4639 50.3234 68.0836C50.3234 53.5146 63.3771 50.8704 75.7347 50.8704V54.5727ZM92.9717 96.2354C91.8417 97.2449 90.2069 97.3174 88.9329 96.6439C83.2594 91.9322 82.2495 89.7446 79.1243 85.2486C69.7485 94.8171 63.1131 97.6777 50.9487 97.6777C36.5723 97.6777 25.3691 88.8065 25.3691 71.0404C25.3691 57.1693 32.8943 47.7209 43.5917 43.1055C52.8718 39.0181 65.8299 38.2969 75.7347 37.1674V34.9554C75.7347 30.8923 76.0469 26.0843 73.6672 22.5746C71.5754 19.4252 67.5847 18.1269 64.0744 18.1269C57.5597 18.1269 51.7418 21.4684 50.3234 28.3921C50.0345 29.9311 48.9049 31.4457 47.3665 31.5177L30.7781 29.739C29.3841 29.4258 27.8455 28.2963 28.2302 26.1563C32.0526 6.05868 50.2027 0 66.4541 0C74.7724 0 85.6386 2.21195 92.202 8.51083C100.52 16.2757 99.7267 26.6372 99.7267 37.9123V64.5496C99.7267 72.5551 103.044 76.0649 106.169 80.3926C107.275 81.931 107.516 83.7827 106.121 84.936C102.635 87.8447 96.4328 93.2543 93.0193 96.2836L92.9712 96.2354" fill="black"/>
<path d="M111.592 106.361C58.264 131.74 25.1682 110.505 3.98265 97.6084C2.67169 96.7957 0.443521 97.7986 2.37676 100.019C9.43474 108.577 32.5653 129.205 62.7573 129.205C92.9701 129.205 110.944 112.719 113.193 109.843C115.425 106.991 113.848 105.418 111.591 106.361H111.592ZM126.569 98.0894C125.137 96.2246 117.86 95.877 113.281 96.4394C108.696 96.9857 101.812 99.7885 102.41 101.471C102.717 102.102 103.344 101.819 106.495 101.536C109.654 101.221 118.504 100.104 120.348 102.514C122.201 104.942 117.525 116.505 116.671 118.369C115.847 120.235 116.986 120.715 118.536 119.473C120.064 118.232 122.831 115.016 124.688 110.466C126.532 105.891 127.657 99.5093 126.568 98.0894H126.569Z" fill="#FF9900"/>
<path fill-rule="evenodd" clip-rule="evenodd" d="M75.7347 54.5727C75.7347 61.2318 75.9029 66.7853 72.5371 72.6991C69.8205 77.5075 65.5171 80.4645 60.7091 80.4645C54.1458 80.4645 50.3234 75.4639 50.3234 68.0836C50.3234 53.5146 63.3771 50.8704 75.7347 50.8704V54.5727ZM92.9717 96.2354C91.8417 97.2449 90.2069 97.3174 88.9329 96.6439C83.2594 91.9322 82.2495 89.7446 79.1243 85.2486C69.7485 94.8171 63.1131 97.6777 50.9487 97.6777C36.5723 97.6777 25.3691 88.8065 25.3691 71.0404C25.3691 57.1693 32.8943 47.7209 43.5917 43.1055C52.8718 39.0181 65.8299 38.2969 75.7347 37.1674V34.9554C75.7347 30.8923 76.0469 26.0843 73.6672 22.5746C71.5754 19.4252 67.5847 18.1269 64.0744 18.1269C57.5597 18.1269 51.7418 21.4684 50.3234 28.3921C50.0345 29.9311 48.9049 31.4457 47.3665 31.5177L30.7781 29.739C29.3841 29.4258 27.8455 28.2963 28.2302 26.1563C32.0526 6.05868 50.2027 0 66.4541 0C74.7724 0 85.6386 2.21195 92.202 8.51083C100.52 16.2757 99.7267 26.6372 99.7267 37.9123V64.5496C99.7267 72.5551 103.044 76.0649 106.169 80.3926C107.275 81.931 107.516 83.7827 106.121 84.936C102.635 87.8447 96.4328 93.2543 93.0193 96.2836L92.9712 96.2354" fill="black"/>
</g>
<defs>
<clipPath id="clip0_4204_910">
<rect width="126.384" height="129.625" fill="white" transform="translate(1.62012)"/>
</clipPath>
</defs>
</svg>
