<svg width="204" height="225" viewBox="0 0 204 225" fill="none" xmlns="http://www.w3.org/2000/svg">
<g clip-path="url(#clip0_4251_14743)">
<path d="M111.074 12.7773C105.574 46.7941 97.862 74.7791 85.3116 107.384C79.9735 121.253 72.2373 134.12 64.5639 146.847C60.7222 153.218 55.9338 159.02 50.8833 164.483C45.4206 170.392 35.8178 174.787 28.1151 173.362C0.932427 168.334 11.467 124.019 37.828 126.657C49.1968 127.793 59.0673 132.109 65.8613 135.254C71.9938 138.092 104.422 151.977 125.211 181.862" stroke="white" stroke-width="3.81955" stroke-linecap="round" stroke-linejoin="round"/>
<path d="M127.664 175.222L127.067 184.602L118.184 181.675" stroke="white" stroke-width="3.81955" stroke-linecap="round" stroke-linejoin="round"/>
</g>
<defs>
<clipPath id="clip0_4251_14743">
<rect width="127" height="186.203" fill="white" transform="matrix(0.866025 0.5 0.5 -0.866025 0 161.257)"/>
</clipPath>
</defs>
</svg>
