<svg width="361" height="364" viewBox="0 0 361 364" fill="none" xmlns="http://www.w3.org/2000/svg">
<path d="M14.4105 0.00195312H-0.000976562V14.5474H14.4105V0.00195312Z" fill="#384C6D"/>
<path d="M28.8256 0.00195312H14.4141V14.5474H28.8256V0.00195312Z" fill="#384C6D"/>
<path d="M43.226 0.00195312H28.8145V14.5474H43.226V0.00195312Z" fill="#384C6D"/>
<path d="M57.6351 0.00195312H43.2236V14.5474H57.6351V0.00195312Z" fill="#384C6D"/>
<path d="M72.0346 0.00195312H57.623V14.5474H72.0346V0.00195312Z" fill="#384C6D"/>
<path d="M86.4398 0.00195312H72.0283V14.5474H86.4398V0.00195312Z" fill="#384C6D"/>
<path d="M100.838 0.00195312H86.4268V14.5474H100.838V0.00195312Z" fill="#384C6D"/>
<path d="M129.662 0.00195312H115.251V14.5474H129.662V0.00195312Z" fill="#384C6D"/>
<path d="M144.063 0.00195312H129.651V14.5474H144.063V0.00195312Z" fill="#384C6D"/>
<path d="M158.476 0.00195312H144.064V14.5474H158.476V0.00195312Z" fill="#384C6D"/>
<path d="M172.872 0.00195312H158.461V14.5474H172.872V0.00195312Z" fill="#384C6D"/>
<path d="M273.712 0.00195312H259.301V14.5474H273.712V0.00195312Z" fill="#384C6D"/>
<path d="M288.124 0.00195312H273.712V14.5474H288.124V0.00195312Z" fill="#384C6D"/>
<path d="M302.523 0.00195312H288.111V14.5474H302.523V0.00195312Z" fill="#384C6D"/>
<path d="M316.938 0.00195312H302.526V14.5474H316.938V0.00195312Z" fill="#384C6D"/>
<path d="M331.348 0.00195312H316.937V14.5474H331.348V0.00195312Z" fill="#384C6D"/>
<path d="M345.745 0.00195312H331.334V14.5474H345.745V0.00195312Z" fill="#384C6D"/>
<path d="M360.153 0.00195312H345.741V14.5474H360.153V0.00195312Z" fill="#384C6D"/>
<path d="M14.4125 14.5483H0.000976562V29.0938H14.4125V14.5483Z" fill="#384C6D"/>
<path d="M100.838 14.5483H86.4268V29.0938H100.838V14.5483Z" fill="#384C6D"/>
<path d="M172.872 14.5483H158.461V29.0938H172.872V14.5483Z" fill="#384C6D"/>
<path d="M187.284 14.5483H172.872V29.0938H187.284V14.5483Z" fill="#384C6D"/>
<path d="M201.683 14.5483H187.271V29.0938H201.683V14.5483Z" fill="#384C6D"/>
<path d="M216.091 14.5483H201.68V29.0938H216.091V14.5483Z" fill="#384C6D"/>
<path d="M244.9 14.5483H230.488V29.0938H244.9V14.5483Z" fill="#384C6D"/>
<path d="M273.712 14.5483H259.301V29.0938H273.712V14.5483Z" fill="#384C6D"/>
<path d="M360.153 14.5483H345.741V29.0938H360.153V14.5483Z" fill="#384C6D"/>
<path d="M14.4125 29.0945H0.000976562V43.6399H14.4125V29.0945Z" fill="#384C6D"/>
<path d="M43.226 29.0945H28.8145V43.6399H43.226V29.0945Z" fill="#384C6D"/>
<path d="M57.6351 29.0945H43.2236V43.6399H57.6351V29.0945Z" fill="#384C6D"/>
<path d="M72.0346 29.0945H57.623V43.6399H72.0346V29.0945Z" fill="#384C6D"/>
<path d="M100.838 29.0945H86.4268V43.6399H100.838V29.0945Z" fill="#384C6D"/>
<path d="M144.063 29.0945H129.651V43.6399H144.063V29.0945Z" fill="#384C6D"/>
<path d="M172.872 29.0945H158.461V43.6399H172.872V29.0945Z" fill="#384C6D"/>
<path d="M201.683 29.0945H187.271V43.6399H201.683V29.0945Z" fill="#384C6D"/>
<path d="M230.502 29.0945H216.091V43.6399H230.502V29.0945Z" fill="#384C6D"/>
<path d="M244.9 29.0945H230.488V43.6399H244.9V29.0945Z" fill="#384C6D"/>
<path d="M273.712 29.0945H259.301V43.6399H273.712V29.0945Z" fill="#384C6D"/>
<path d="M302.523 29.0945H288.111V43.6399H302.523V29.0945Z" fill="#384C6D"/>
<path d="M316.938 29.0945H302.526V43.6399H316.938V29.0945Z" fill="#384C6D"/>
<path d="M331.348 29.0945H316.937V43.6399H331.348V29.0945Z" fill="#384C6D"/>
<path d="M360.153 29.0945H345.741V43.6399H360.153V29.0945Z" fill="#384C6D"/>
<path d="M14.4125 43.6372H0.000976562V58.1827H14.4125V43.6372Z" fill="#384C6D"/>
<path d="M43.226 43.6372H28.8145V58.1827H43.226V43.6372Z" fill="#384C6D"/>
<path d="M57.6351 43.6372H43.2236V58.1827H57.6351V43.6372Z" fill="#384C6D"/>
<path d="M72.0346 43.6372H57.623V58.1827H72.0346V43.6372Z" fill="#384C6D"/>
<path d="M100.838 43.6372H86.4268V58.1827H100.838V43.6372Z" fill="#384C6D"/>
<path d="M158.476 43.6372H144.064V58.1827H158.476V43.6372Z" fill="#384C6D"/>
<path d="M172.872 43.6372H158.461V58.1827H172.872V43.6372Z" fill="#384C6D"/>
<path d="M201.683 43.6372H187.271V58.1827H201.683V43.6372Z" fill="#384C6D"/>
<path d="M230.502 43.6372H216.091V58.1827H230.502V43.6372Z" fill="#384C6D"/>
<path d="M244.9 43.6372H230.488V58.1827H244.9V43.6372Z" fill="#384C6D"/>
<path d="M273.712 43.6372H259.301V58.1827H273.712V43.6372Z" fill="#384C6D"/>
<path d="M302.523 43.6372H288.111V58.1827H302.523V43.6372Z" fill="#384C6D"/>
<path d="M316.938 43.6372H302.526V58.1827H316.938V43.6372Z" fill="#384C6D"/>
<path d="M331.348 43.6372H316.937V58.1827H331.348V43.6372Z" fill="#384C6D"/>
<path d="M360.153 43.6372H345.741V58.1827H360.153V43.6372Z" fill="#384C6D"/>
<path d="M14.4125 58.1853H0.000976562V72.7308H14.4125V58.1853Z" fill="#384C6D"/>
<path d="M43.226 58.1853H28.8145V72.7308H43.226V58.1853Z" fill="#384C6D"/>
<path d="M57.6351 58.1853H43.2236V72.7308H57.6351V58.1853Z" fill="#384C6D"/>
<path d="M72.0346 58.1853H57.623V72.7308H72.0346V58.1853Z" fill="#384C6D"/>
<path d="M100.838 58.1853H86.4268V72.7308H100.838V58.1853Z" fill="#384C6D"/>
<path d="M158.476 58.1853H144.064V72.7308H158.476V58.1853Z" fill="#384C6D"/>
<path d="M172.872 58.1853H158.461V72.7308H172.872V58.1853Z" fill="#384C6D"/>
<path d="M187.284 58.1853H172.872V72.7308H187.284V58.1853Z" fill="#384C6D"/>
<path d="M216.091 58.1853H201.68V72.7308H216.091V58.1853Z" fill="#384C6D"/>
<path d="M244.9 58.1853H230.488V72.7308H244.9V58.1853Z" fill="#384C6D"/>
<path d="M273.712 58.1853H259.301V72.7308H273.712V58.1853Z" fill="#384C6D"/>
<path d="M302.523 58.1853H288.111V72.7308H302.523V58.1853Z" fill="#384C6D"/>
<path d="M316.938 58.1853H302.526V72.7308H316.938V58.1853Z" fill="#384C6D"/>
<path d="M331.348 58.1853H316.937V72.7308H331.348V58.1853Z" fill="#384C6D"/>
<path d="M360.153 58.1853H345.741V72.7308H360.153V58.1853Z" fill="#384C6D"/>
<path d="M14.4125 72.7278H0.000976562V87.2732H14.4125V72.7278Z" fill="#384C6D"/>
<path d="M100.838 72.7278H86.4268V87.2732H100.838V72.7278Z" fill="#384C6D"/>
<path d="M144.063 72.7278H129.651V87.2732H144.063V72.7278Z" fill="#384C6D"/>
<path d="M172.872 72.7278H158.461V87.2732H172.872V72.7278Z" fill="#384C6D"/>
<path d="M216.091 72.7278H201.68V87.2732H216.091V72.7278Z" fill="#384C6D"/>
<path d="M244.9 72.7278H230.488V87.2732H244.9V72.7278Z" fill="#384C6D"/>
<path d="M273.712 72.7278H259.301V87.2732H273.712V72.7278Z" fill="#384C6D"/>
<path d="M360.153 72.7278H345.741V87.2732H360.153V72.7278Z" fill="#384C6D"/>
<path d="M14.4125 87.2761H0.000976562V101.822H14.4125V87.2761Z" fill="#384C6D"/>
<path d="M28.8256 87.2761H14.4141V101.822H28.8256V87.2761Z" fill="#384C6D"/>
<path d="M43.226 87.2761H28.8145V101.822H43.226V87.2761Z" fill="#384C6D"/>
<path d="M57.6351 87.2761H43.2236V101.822H57.6351V87.2761Z" fill="#384C6D"/>
<path d="M72.0346 87.2761H57.623V101.822H72.0346V87.2761Z" fill="#384C6D"/>
<path d="M86.4398 87.2761H72.0283V101.822H86.4398V87.2761Z" fill="#384C6D"/>
<path d="M100.838 87.2761H86.4268V101.822H100.838V87.2761Z" fill="#384C6D"/>
<path d="M129.662 87.2761H115.251V101.822H129.662V87.2761Z" fill="#384C6D"/>
<path d="M158.476 87.2761H144.064V101.822H158.476V87.2761Z" fill="#384C6D"/>
<path d="M187.284 87.2761H172.872V101.822H187.284V87.2761Z" fill="#384C6D"/>
<path d="M216.091 87.2761H201.68V101.822H216.091V87.2761Z" fill="#384C6D"/>
<path d="M244.9 87.2761H230.488V101.822H244.9V87.2761Z" fill="#384C6D"/>
<path d="M273.712 87.2761H259.301V101.822H273.712V87.2761Z" fill="#384C6D"/>
<path d="M288.124 87.2761H273.712V101.822H288.124V87.2761Z" fill="#384C6D"/>
<path d="M302.523 87.2761H288.111V101.822H302.523V87.2761Z" fill="#384C6D"/>
<path d="M316.938 87.2761H302.526V101.822H316.938V87.2761Z" fill="#384C6D"/>
<path d="M331.348 87.2761H316.937V101.822H331.348V87.2761Z" fill="#384C6D"/>
<path d="M345.745 87.2761H331.334V101.822H345.745V87.2761Z" fill="#384C6D"/>
<path d="M360.153 87.2761H345.741V101.822H360.153V87.2761Z" fill="#384C6D"/>
<path d="M129.662 101.834H115.251V116.379H129.662V101.834Z" fill="#384C6D"/>
<path d="M144.063 101.834H129.651V116.379H144.063V101.834Z" fill="#384C6D"/>
<path d="M187.284 101.834H172.872V116.379H187.284V101.834Z" fill="#384C6D"/>
<path d="M201.683 101.834H187.271V116.379H201.683V101.834Z" fill="#384C6D"/>
<path d="M14.4125 116.38H0.000976562V130.926H14.4125V116.38Z" fill="#384C6D"/>
<path d="M28.8256 116.38H14.4141V130.926H28.8256V116.38Z" fill="#384C6D"/>
<path d="M57.6351 116.38H43.2236V130.926H57.6351V116.38Z" fill="#384C6D"/>
<path d="M72.0346 116.38H57.623V130.926H72.0346V116.38Z" fill="#384C6D"/>
<path d="M100.838 116.38H86.4268V130.926H100.838V116.38Z" fill="#384C6D"/>
<path d="M144.063 116.38H129.651V130.926H144.063V116.38Z" fill="#384C6D"/>
<path d="M187.284 116.38H172.872V130.926H187.284V116.38Z" fill="#384C6D"/>
<path d="M216.091 116.38H201.68V130.926H216.091V116.38Z" fill="#384C6D"/>
<path d="M230.502 116.38H216.091V130.926H230.502V116.38Z" fill="#384C6D"/>
<path d="M273.712 116.38H259.301V130.926H273.712V116.38Z" fill="#384C6D"/>
<path d="M360.153 116.38H345.741V130.926H360.153V116.38Z" fill="#384C6D"/>
<path d="M14.4125 130.923H0.000976562V145.468H14.4125V130.923Z" fill="#384C6D"/>
<path d="M28.8256 130.923H14.4141V145.468H28.8256V130.923Z" fill="#384C6D"/>
<path d="M43.226 130.923H28.8145V145.468H43.226V130.923Z" fill="#384C6D"/>
<path d="M72.0346 130.923H57.623V145.468H72.0346V130.923Z" fill="#384C6D"/>
<path d="M86.4398 130.923H72.0283V145.468H86.4398V130.923Z" fill="#384C6D"/>
<path d="M115.251 130.923H100.84V145.468H115.251V130.923Z" fill="#384C6D"/>
<path d="M158.476 130.923H144.064V145.468H158.476V130.923Z" fill="#384C6D"/>
<path d="M201.683 130.923H187.271V145.468H201.683V130.923Z" fill="#384C6D"/>
<path d="M216.091 130.923H201.68V145.468H216.091V130.923Z" fill="#384C6D"/>
<path d="M230.502 130.923H216.091V145.468H230.502V130.923Z" fill="#384C6D"/>
<path d="M259.314 130.923H244.902V145.468H259.314V130.923Z" fill="#384C6D"/>
<path d="M288.124 130.923H273.712V145.468H288.124V130.923Z" fill="#384C6D"/>
<path d="M302.523 130.923H288.111V145.468H302.523V130.923Z" fill="#384C6D"/>
<path d="M316.938 130.923H302.526V145.468H316.938V130.923Z" fill="#384C6D"/>
<path d="M331.348 130.923H316.937V145.468H331.348V130.923Z" fill="#384C6D"/>
<path d="M345.745 130.923H331.334V145.468H345.745V130.923Z" fill="#384C6D"/>
<path d="M14.4125 145.471H0.000976562V160.016H14.4125V145.471Z" fill="#384C6D"/>
<path d="M43.226 145.471H28.8145V160.016H43.226V145.471Z" fill="#384C6D"/>
<path d="M72.0346 145.471H57.623V160.016H72.0346V145.471Z" fill="#384C6D"/>
<path d="M100.838 145.471H86.4268V160.016H100.838V145.471Z" fill="#384C6D"/>
<path d="M115.251 145.471H100.84V160.016H115.251V145.471Z" fill="#384C6D"/>
<path d="M129.662 145.471H115.251V160.016H129.662V145.471Z" fill="#384C6D"/>
<path d="M144.063 145.471H129.651V160.016H144.063V145.471Z" fill="#384C6D"/>
<path d="M187.284 145.471H172.872V160.016H187.284V145.471Z" fill="#384C6D"/>
<path d="M230.502 145.471H216.091V160.016H230.502V145.471Z" fill="#384C6D"/>
<path d="M244.9 145.471H230.488V160.016H244.9V145.471Z" fill="#384C6D"/>
<path d="M273.712 145.471H259.301V160.016H273.712V145.471Z" fill="#384C6D"/>
<path d="M288.124 145.471H273.712V160.016H288.124V145.471Z" fill="#384C6D"/>
<path d="M316.938 145.471H302.526V160.016H316.938V145.471Z" fill="#384C6D"/>
<path d="M360.153 145.471H345.741V160.016H360.153V145.471Z" fill="#384C6D"/>
<path d="M14.4125 160.021H0.000976562V174.566H14.4125V160.021Z" fill="#384C6D"/>
<path d="M28.8256 160.021H14.4141V174.566H28.8256V160.021Z" fill="#384C6D"/>
<path d="M115.251 160.021H100.84V174.566H115.251V160.021Z" fill="#384C6D"/>
<path d="M129.662 160.021H115.251V174.566H129.662V160.021Z" fill="#384C6D"/>
<path d="M230.502 160.021H216.091V174.566H230.502V160.021Z" fill="#384C6D"/>
<path d="M288.124 160.021H273.712V174.566H288.124V160.021Z" fill="#384C6D"/>
<path d="M316.938 160.021H302.526V174.566H316.938V160.021Z" fill="#384C6D"/>
<path d="M331.348 160.021H316.937V174.566H331.348V160.021Z" fill="#384C6D"/>
<path d="M345.745 160.021H331.334V174.566H345.745V160.021Z" fill="#384C6D"/>
<path d="M360.153 160.021H345.741V174.566H360.153V160.021Z" fill="#384C6D"/>
<path d="M43.226 174.56H28.8145V189.105H43.226V174.56Z" fill="#384C6D"/>
<path d="M57.6351 174.56H43.2236V189.105H57.6351V174.56Z" fill="#384C6D"/>
<path d="M100.838 174.56H86.4268V189.105H100.838V174.56Z" fill="#384C6D"/>
<path d="M129.662 174.56H115.251V189.105H129.662V174.56Z" fill="#384C6D"/>
<path d="M144.063 174.56H129.651V189.105H144.063V174.56Z" fill="#384C6D"/>
<path d="M158.476 174.56H144.064V189.105H158.476V174.56Z" fill="#384C6D"/>
<path d="M216.091 174.56H201.68V189.105H216.091V174.56Z" fill="#384C6D"/>
<path d="M230.502 174.56H216.091V189.105H230.502V174.56Z" fill="#384C6D"/>
<path d="M273.712 174.56H259.301V189.105H273.712V174.56Z" fill="#384C6D"/>
<path d="M360.153 174.56H345.741V189.105H360.153V174.56Z" fill="#384C6D"/>
<path d="M14.4125 189.106H0.000976562V203.652H14.4125V189.106Z" fill="#384C6D"/>
<path d="M43.226 189.106H28.8145V203.652H43.226V189.106Z" fill="#384C6D"/>
<path d="M57.6351 189.106H43.2236V203.652H57.6351V189.106Z" fill="#384C6D"/>
<path d="M86.4398 189.106H72.0283V203.652H86.4398V189.106Z" fill="#384C6D"/>
<path d="M115.251 189.106H100.84V203.652H115.251V189.106Z" fill="#384C6D"/>
<path d="M158.476 189.106H144.064V203.652H158.476V189.106Z" fill="#384C6D"/>
<path d="M187.284 189.106H172.872V203.652H187.284V189.106Z" fill="#384C6D"/>
<path d="M216.091 189.106H201.68V203.652H216.091V189.106Z" fill="#384C6D"/>
<path d="M230.502 189.106H216.091V203.652H230.502V189.106Z" fill="#384C6D"/>
<path d="M244.9 189.106H230.488V203.652H244.9V189.106Z" fill="#384C6D"/>
<path d="M259.314 189.106H244.902V203.652H259.314V189.106Z" fill="#384C6D"/>
<path d="M302.523 189.106H288.111V203.652H302.523V189.106Z" fill="#384C6D"/>
<path d="M345.745 189.106H331.334V203.652H345.745V189.106Z" fill="#384C6D"/>
<path d="M14.4125 203.649H0.000976562V218.194H14.4125V203.649Z" fill="#384C6D"/>
<path d="M28.8256 203.649H14.4141V218.194H28.8256V203.649Z" fill="#384C6D"/>
<path d="M57.6351 203.649H43.2236V218.194H57.6351V203.649Z" fill="#384C6D"/>
<path d="M72.0346 203.649H57.623V218.194H72.0346V203.649Z" fill="#384C6D"/>
<path d="M86.4398 203.649H72.0283V218.194H86.4398V203.649Z" fill="#384C6D"/>
<path d="M100.838 203.649H86.4268V218.194H100.838V203.649Z" fill="#384C6D"/>
<path d="M115.251 203.649H100.84V218.194H115.251V203.649Z" fill="#384C6D"/>
<path d="M144.063 203.649H129.651V218.194H144.063V203.649Z" fill="#384C6D"/>
<path d="M216.091 203.649H201.68V218.194H216.091V203.649Z" fill="#384C6D"/>
<path d="M230.502 203.649H216.091V218.194H230.502V203.649Z" fill="#384C6D"/>
<path d="M259.314 203.649H244.902V218.194H259.314V203.649Z" fill="#384C6D"/>
<path d="M273.712 203.649H259.301V218.194H273.712V203.649Z" fill="#384C6D"/>
<path d="M302.523 203.649H288.111V218.194H302.523V203.649Z" fill="#384C6D"/>
<path d="M316.938 203.649H302.526V218.194H316.938V203.649Z" fill="#384C6D"/>
<path d="M331.348 203.649H316.937V218.194H331.348V203.649Z" fill="#384C6D"/>
<path d="M345.745 203.649H331.334V218.194H345.745V203.649Z" fill="#384C6D"/>
<path d="M360.153 203.649H345.741V218.194H360.153V203.649Z" fill="#384C6D"/>
<path d="M14.4125 218.201H0.000976562V232.746H14.4125V218.201Z" fill="#384C6D"/>
<path d="M86.4398 218.201H72.0283V232.746H86.4398V218.201Z" fill="#384C6D"/>
<path d="M115.251 218.201H100.84V232.746H115.251V218.201Z" fill="#384C6D"/>
<path d="M144.063 218.201H129.651V232.746H144.063V218.201Z" fill="#384C6D"/>
<path d="M187.284 218.201H172.872V232.746H187.284V218.201Z" fill="#384C6D"/>
<path d="M216.091 218.201H201.68V232.746H216.091V218.201Z" fill="#384C6D"/>
<path d="M244.9 218.201H230.488V232.746H244.9V218.201Z" fill="#384C6D"/>
<path d="M259.314 218.201H244.902V232.746H259.314V218.201Z" fill="#384C6D"/>
<path d="M288.124 218.201H273.712V232.746H288.124V218.201Z" fill="#384C6D"/>
<path d="M316.938 218.201H302.526V232.746H316.938V218.201Z" fill="#384C6D"/>
<path d="M331.348 218.201H316.937V232.746H331.348V218.201Z" fill="#384C6D"/>
<path d="M360.153 218.201H345.741V232.746H360.153V218.201Z" fill="#384C6D"/>
<path d="M14.4125 232.741H0.000976562V247.287H14.4125V232.741Z" fill="#384C6D"/>
<path d="M43.226 232.741H28.8145V247.287H43.226V232.741Z" fill="#384C6D"/>
<path d="M57.6351 232.741H43.2236V247.287H57.6351V232.741Z" fill="#384C6D"/>
<path d="M72.0346 232.741H57.623V247.287H72.0346V232.741Z" fill="#384C6D"/>
<path d="M100.838 232.741H86.4268V247.287H100.838V232.741Z" fill="#384C6D"/>
<path d="M115.251 232.741H100.84V247.287H115.251V232.741Z" fill="#384C6D"/>
<path d="M158.476 232.741H144.064V247.287H158.476V232.741Z" fill="#384C6D"/>
<path d="M172.872 232.741H158.461V247.287H172.872V232.741Z" fill="#384C6D"/>
<path d="M187.284 232.741H172.872V247.287H187.284V232.741Z" fill="#384C6D"/>
<path d="M201.683 232.741H187.271V247.287H201.683V232.741Z" fill="#384C6D"/>
<path d="M230.502 232.741H216.091V247.287H230.502V232.741Z" fill="#384C6D"/>
<path d="M244.9 232.741H230.488V247.287H244.9V232.741Z" fill="#384C6D"/>
<path d="M259.314 232.741H244.902V247.287H259.314V232.741Z" fill="#384C6D"/>
<path d="M273.712 232.741H259.301V247.287H273.712V232.741Z" fill="#384C6D"/>
<path d="M288.124 232.741H273.712V247.287H288.124V232.741Z" fill="#384C6D"/>
<path d="M302.523 232.741H288.111V247.287H302.523V232.741Z" fill="#384C6D"/>
<path d="M331.348 232.741H316.937V247.287H331.348V232.741Z" fill="#384C6D"/>
<path d="M345.745 232.741H331.334V247.287H345.745V232.741Z" fill="#384C6D"/>
<path d="M129.662 247.286H115.251V261.831H129.662V247.286Z" fill="#384C6D"/>
<path d="M144.063 247.286H129.651V261.831H144.063V247.286Z" fill="#384C6D"/>
<path d="M172.872 247.286H158.461V261.831H172.872V247.286Z" fill="#384C6D"/>
<path d="M244.9 247.286H230.488V261.831H244.9V247.286Z" fill="#384C6D"/>
<path d="M302.523 247.286H288.111V261.831H302.523V247.286Z" fill="#384C6D"/>
<path d="M331.348 247.286H316.937V261.831H331.348V247.286Z" fill="#384C6D"/>
<path d="M345.745 247.286H331.334V261.831H345.745V247.286Z" fill="#384C6D"/>
<path d="M14.4125 261.834H0.000976562V276.379H14.4125V261.834Z" fill="#384C6D"/>
<path d="M28.8256 261.834H14.4141V276.379H28.8256V261.834Z" fill="#384C6D"/>
<path d="M43.226 261.834H28.8145V276.379H43.226V261.834Z" fill="#384C6D"/>
<path d="M57.6351 261.834H43.2236V276.379H57.6351V261.834Z" fill="#384C6D"/>
<path d="M72.0346 261.834H57.623V276.379H72.0346V261.834Z" fill="#384C6D"/>
<path d="M86.4398 261.834H72.0283V276.379H86.4398V261.834Z" fill="#384C6D"/>
<path d="M100.838 261.834H86.4268V276.379H100.838V261.834Z" fill="#384C6D"/>
<path d="M158.476 261.834H144.064V276.379H158.476V261.834Z" fill="#384C6D"/>
<path d="M187.284 261.834H172.872V276.379H187.284V261.834Z" fill="#384C6D"/>
<path d="M216.091 261.834H201.68V276.379H216.091V261.834Z" fill="#384C6D"/>
<path d="M244.9 261.834H230.488V276.379H244.9V261.834Z" fill="#384C6D"/>
<path d="M273.712 261.834H259.301V276.379H273.712V261.834Z" fill="#384C6D"/>
<path d="M302.523 261.834H288.111V276.379H302.523V261.834Z" fill="#384C6D"/>
<path d="M360.153 261.834H345.741V276.379H360.153V261.834Z" fill="#384C6D"/>
<path d="M14.4125 276.378H0.000976562V290.924H14.4125V276.378Z" fill="#384C6D"/>
<path d="M100.838 276.378H86.4268V290.924H100.838V276.378Z" fill="#384C6D"/>
<path d="M172.872 276.378H158.461V290.924H172.872V276.378Z" fill="#384C6D"/>
<path d="M201.683 276.378H187.271V290.924H201.683V276.378Z" fill="#384C6D"/>
<path d="M230.502 276.378H216.091V290.924H230.502V276.378Z" fill="#384C6D"/>
<path d="M244.9 276.378H230.488V290.924H244.9V276.378Z" fill="#384C6D"/>
<path d="M302.523 276.378H288.111V290.924H302.523V276.378Z" fill="#384C6D"/>
<path d="M360.153 276.378H345.741V290.924H360.153V276.378Z" fill="#384C6D"/>
<path d="M14.4125 290.919H0.000976562V305.464H14.4125V290.919Z" fill="#384C6D"/>
<path d="M43.226 290.919H28.8145V305.464H43.226V290.919Z" fill="#384C6D"/>
<path d="M57.6351 290.919H43.2236V305.464H57.6351V290.919Z" fill="#384C6D"/>
<path d="M72.0346 290.919H57.623V305.464H72.0346V290.919Z" fill="#384C6D"/>
<path d="M100.838 290.919H86.4268V305.464H100.838V290.919Z" fill="#384C6D"/>
<path d="M129.662 290.919H115.251V305.464H129.662V290.919Z" fill="#384C6D"/>
<path d="M158.476 290.919H144.064V305.464H158.476V290.919Z" fill="#384C6D"/>
<path d="M172.872 290.919H158.461V305.464H172.872V290.919Z" fill="#384C6D"/>
<path d="M187.284 290.919H172.872V305.464H187.284V290.919Z" fill="#384C6D"/>
<path d="M216.091 290.919H201.68V305.464H216.091V290.919Z" fill="#384C6D"/>
<path d="M230.502 290.919H216.091V305.464H230.502V290.919Z" fill="#384C6D"/>
<path d="M244.9 290.919H230.488V305.464H244.9V290.919Z" fill="#384C6D"/>
<path d="M259.314 290.919H244.902V305.464H259.314V290.919Z" fill="#384C6D"/>
<path d="M273.712 290.919H259.301V305.464H273.712V290.919Z" fill="#384C6D"/>
<path d="M288.124 290.919H273.712V305.464H288.124V290.919Z" fill="#384C6D"/>
<path d="M302.523 290.919H288.111V305.464H302.523V290.919Z" fill="#384C6D"/>
<path d="M14.4125 305.486H0.000976562V320.032H14.4125V305.486Z" fill="#384C6D"/>
<path d="M43.226 305.486H28.8145V320.032H43.226V305.486Z" fill="#384C6D"/>
<path d="M57.6351 305.486H43.2236V320.032H57.6351V305.486Z" fill="#384C6D"/>
<path d="M72.0346 305.486H57.623V320.032H72.0346V305.486Z" fill="#384C6D"/>
<path d="M100.838 305.486H86.4268V320.032H100.838V305.486Z" fill="#384C6D"/>
<path d="M129.662 305.486H115.251V320.032H129.662V305.486Z" fill="#384C6D"/>
<path d="M144.063 305.486H129.651V320.032H144.063V305.486Z" fill="#384C6D"/>
<path d="M187.284 305.486H172.872V320.032H187.284V305.486Z" fill="#384C6D"/>
<path d="M201.683 305.486H187.271V320.032H201.683V305.486Z" fill="#384C6D"/>
<path d="M216.091 305.486H201.68V320.032H216.091V305.486Z" fill="#384C6D"/>
<path d="M273.712 305.486H259.301V320.032H273.712V305.486Z" fill="#384C6D"/>
<path d="M345.745 305.486H331.334V320.032H345.745V305.486Z" fill="#384C6D"/>
<path d="M360.153 305.486H345.741V320.032H360.153V305.486Z" fill="#384C6D"/>
<path d="M14.4125 320.033H0.000976562V334.578H14.4125V320.033Z" fill="#384C6D"/>
<path d="M43.226 320.033H28.8145V334.578H43.226V320.033Z" fill="#384C6D"/>
<path d="M57.6351 320.033H43.2236V334.578H57.6351V320.033Z" fill="#384C6D"/>
<path d="M72.0346 320.033H57.623V334.578H72.0346V320.033Z" fill="#384C6D"/>
<path d="M100.838 320.033H86.4268V334.578H100.838V320.033Z" fill="#384C6D"/>
<path d="M144.063 320.033H129.651V334.578H144.063V320.033Z" fill="#384C6D"/>
<path d="M172.872 320.033H158.461V334.578H172.872V320.033Z" fill="#384C6D"/>
<path d="M201.683 320.033H187.271V334.578H201.683V320.033Z" fill="#384C6D"/>
<path d="M230.502 320.033H216.091V334.578H230.502V320.033Z" fill="#384C6D"/>
<path d="M259.314 320.033H244.902V334.578H259.314V320.033Z" fill="#384C6D"/>
<path d="M302.523 320.033H288.111V334.578H302.523V320.033Z" fill="#384C6D"/>
<path d="M316.938 320.033H302.526V334.578H316.938V320.033Z" fill="#384C6D"/>
<path d="M331.348 320.033H316.937V334.578H331.348V320.033Z" fill="#384C6D"/>
<path d="M345.745 320.033H331.334V334.578H345.745V320.033Z" fill="#384C6D"/>
<path d="M360.153 320.033H345.741V334.578H360.153V320.033Z" fill="#384C6D"/>
<path d="M14.4125 334.575H0.000976562V349.121H14.4125V334.575Z" fill="#384C6D"/>
<path d="M100.838 334.575H86.4268V349.121H100.838V334.575Z" fill="#384C6D"/>
<path d="M129.662 334.575H115.251V349.121H129.662V334.575Z" fill="#384C6D"/>
<path d="M158.476 334.575H144.064V349.121H158.476V334.575Z" fill="#384C6D"/>
<path d="M172.872 334.575H158.461V349.121H172.872V334.575Z" fill="#384C6D"/>
<path d="M216.091 334.575H201.68V349.121H216.091V334.575Z" fill="#384C6D"/>
<path d="M230.502 334.575H216.091V349.121H230.502V334.575Z" fill="#384C6D"/>
<path d="M288.124 334.575H273.712V349.121H288.124V334.575Z" fill="#384C6D"/>
<path d="M302.523 334.575H288.111V349.121H302.523V334.575Z" fill="#384C6D"/>
<path d="M331.348 334.575H316.937V349.121H331.348V334.575Z" fill="#384C6D"/>
<path d="M345.745 334.575H331.334V349.121H345.745V334.575Z" fill="#384C6D"/>
<path d="M360.153 334.575H345.741V349.121H360.153V334.575Z" fill="#384C6D"/>
<path d="M14.4125 349.118H0.000976562V363.663H14.4125V349.118Z" fill="#384C6D"/>
<path d="M28.8256 349.118H14.4141V363.663H28.8256V349.118Z" fill="#384C6D"/>
<path d="M43.226 349.118H28.8145V363.663H43.226V349.118Z" fill="#384C6D"/>
<path d="M57.6351 349.118H43.2236V363.663H57.6351V349.118Z" fill="#384C6D"/>
<path d="M72.0346 349.118H57.623V363.663H72.0346V349.118Z" fill="#384C6D"/>
<path d="M86.4398 349.118H72.0283V363.663H86.4398V349.118Z" fill="#384C6D"/>
<path d="M100.838 349.118H86.4268V363.663H100.838V349.118Z" fill="#384C6D"/>
<path d="M129.662 349.118H115.251V363.663H129.662V349.118Z" fill="#384C6D"/>
<path d="M144.063 349.118H129.651V363.663H144.063V349.118Z" fill="#384C6D"/>
<path d="M158.476 349.118H144.064V363.663H158.476V349.118Z" fill="#384C6D"/>
<path d="M187.284 349.118H172.872V363.663H187.284V349.118Z" fill="#384C6D"/>
<path d="M244.9 349.118H230.488V363.663H244.9V349.118Z" fill="#384C6D"/>
<path d="M259.314 349.118H244.902V363.663H259.314V349.118Z" fill="#384C6D"/>
<path d="M316.938 349.118H302.526V363.663H316.938V349.118Z" fill="#384C6D"/>
<path d="M360.153 349.118H345.741V363.663H360.153V349.118Z" fill="#384C6D"/>
</svg>
