<svg width="152" height="153" viewBox="0 0 152 153" fill="none" xmlns="http://www.w3.org/2000/svg">
<g filter="url(#filter0_d_17458_96504)">
<circle cx="76" cy="37" r="35" fill="#E69D73"/>
</g>
<path d="M81.8632 23C78.4842 23 75.7262 25.7546 75.7262 29.1318C75.7262 30.7577 76.3732 32.3178 77.5241 33.4677C78.6748 34.6175 80.2361 35.2633 81.8632 35.2633C83.4903 35.2633 85.0516 34.6175 86.2026 33.4677C87.3532 32.3178 88 30.7577 88 29.1318C88 27.5055 87.353 25.9452 86.2026 24.7956C85.0517 23.6458 83.4906 23 81.8632 23ZM74.5696 24.3345C69.7491 24.7146 65.966 28.7319 65.966 33.6353V41.1441L64.0789 45.1119H64.0791C63.9588 45.3649 63.9766 45.6617 64.1262 45.8985C64.2758 46.1351 64.5364 46.2786 64.8162 46.2786H70.5618C70.7098 48.769 72.7921 50.7499 75.3228 50.7499C77.8535 50.7499 79.9345 48.769 80.0834 46.2786H85.8294C86.1095 46.2786 86.3698 46.1349 86.5194 45.8983C86.6688 45.6616 86.6865 45.3647 86.5663 45.1119L84.6794 41.1441V37.1345C84.6794 36.9182 84.5935 36.7105 84.4405 36.5575C84.2872 36.4042 84.0798 36.3184 83.8632 36.3184C83.6469 36.3184 83.4392 36.4042 83.2861 36.5575C83.1329 36.7105 83.047 36.9182 83.047 37.1345V41.3284C83.0475 41.4495 83.0748 41.5693 83.1272 41.6788L84.5389 44.6465H80.0937V44.6463H78.4613V44.6465H72.1867V44.6463H70.5544V44.6465H66.1097L67.5209 41.6788C67.5733 41.5693 67.6006 41.4495 67.601 41.3284V33.6354C67.601 29.5678 70.7077 26.277 74.7011 25.9622C75.1504 25.9267 75.4861 25.5339 75.4508 25.0846C75.4337 24.8687 75.3317 24.6685 75.167 24.5278C75.0024 24.3873 74.7886 24.3178 74.5727 24.3349L74.5696 24.3345ZM81.8632 24.6305C83.0586 24.6305 84.204 25.1047 85.0489 25.9488C85.8938 26.7928 86.3679 27.9367 86.3679 29.1301C86.3679 30.3234 85.8938 31.4671 85.0489 32.3114C84.2041 33.1554 83.0586 33.6295 81.8632 33.6295C80.6681 33.6295 79.5229 33.1554 78.678 32.3114C77.8332 31.4673 77.359 30.3234 77.359 29.1301C77.359 26.6359 79.3658 24.6305 81.8635 24.6305L81.8632 24.6305ZM72.198 46.2765H78.4476C78.3057 47.8831 76.9796 49.1158 75.3229 49.1158C73.6664 49.1158 72.3399 47.8831 72.198 46.2765Z" fill="white"/>
<defs>
<filter id="filter0_d_17458_96504" x="0.0690193" y="0.796146" width="151.862" height="151.862" filterUnits="userSpaceOnUse" color-interpolation-filters="sRGB">
<feFlood flood-opacity="0" result="BackgroundImageFix"/>
<feColorMatrix in="SourceAlpha" type="matrix" values="0 0 0 0 0 0 0 0 0 0 0 0 0 0 0 0 0 0 127 0" result="hardAlpha"/>
<feOffset dy="39.7271"/>
<feGaussianBlur stdDeviation="20.4655"/>
<feComposite in2="hardAlpha" operator="out"/>
<feColorMatrix type="matrix" values="0 0 0 0 0.901961 0 0 0 0 0.615686 0 0 0 0 0.45098 0 0 0 0.4 0"/>
<feBlend mode="normal" in2="BackgroundImageFix" result="effect1_dropShadow_17458_96504"/>
<feBlend mode="normal" in="SourceGraphic" in2="effect1_dropShadow_17458_96504" result="shape"/>
</filter>
</defs>
</svg>
