<svg width="152" height="153" viewBox="0 0 152 153" fill="none" xmlns="http://www.w3.org/2000/svg">
<g filter="url(#filter0_d_17458_96519)">
<circle cx="76" cy="37" r="35" fill="#3377EF"/>
</g>
<path d="M76.4302 22.1286C76.1275 21.954 75.7552 21.9571 75.4563 22.1387L65.4593 28.2076C65.1739 28.3811 65 28.6901 65 29.0236V51.0454C65 51.5726 65.4275 52 65.9546 52H86.4336C86.9608 52 87.3882 51.5725 87.3882 51.0454V29.0236C87.3882 28.6832 87.2066 28.368 86.9122 28.1976L76.4302 22.1286ZM85.4791 50.0906H66.9091V29.5608L75.9635 24.0648L85.4791 29.5744V50.0906Z" fill="white"/>
<path d="M74.0544 28.2494C74.0544 29.2685 74.8805 30.0946 75.8996 30.0946C76.9187 30.0946 77.7447 29.2685 77.7447 28.2494C77.7447 27.2303 76.9187 26.4043 75.8996 26.4043C74.8805 26.4041 74.0544 27.2303 74.0544 28.2494Z" fill="white"/>
<path d="M69.106 36.9995C69.106 37.5266 69.5334 37.954 70.0605 37.954H82.3275C82.8547 37.954 83.2821 37.5266 83.2821 36.9995C83.2821 36.4724 82.8546 36.0449 82.3275 36.0449H70.0605C69.5334 36.0449 69.106 36.4724 69.106 36.9995Z" fill="white"/>
<path d="M82.3269 40.5508H70.0605C69.5334 40.5508 69.106 40.9783 69.106 41.5053C69.106 42.0324 69.5334 42.4599 70.0605 42.4599H82.3275C82.8547 42.4599 83.2821 42.0324 83.2821 41.5053C83.2819 40.9785 82.8544 40.5508 82.3273 40.5508H82.3269Z" fill="white"/>
<path d="M82.3269 45.0547H70.0605C69.5334 45.0547 69.106 45.4822 69.106 46.0092C69.106 46.5363 69.5334 46.9638 70.0605 46.9638H82.3275C82.8547 46.9638 83.2821 46.5363 83.2821 46.0092C83.2819 45.4824 82.8544 45.0547 82.3273 45.0547H82.3269Z" fill="white"/>
<defs>
<filter id="filter0_d_17458_96519" x="0.0690193" y="0.796146" width="151.862" height="151.862" filterUnits="userSpaceOnUse" color-interpolation-filters="sRGB">
<feFlood flood-opacity="0" result="BackgroundImageFix"/>
<feColorMatrix in="SourceAlpha" type="matrix" values="0 0 0 0 0 0 0 0 0 0 0 0 0 0 0 0 0 0 127 0" result="hardAlpha"/>
<feOffset dy="39.7271"/>
<feGaussianBlur stdDeviation="20.4655"/>
<feComposite in2="hardAlpha" operator="out"/>
<feColorMatrix type="matrix" values="0 0 0 0 0.2 0 0 0 0 0.466667 0 0 0 0 0.937255 0 0 0 0.4 0"/>
<feBlend mode="normal" in2="BackgroundImageFix" result="effect1_dropShadow_17458_96519"/>
<feBlend mode="normal" in="SourceGraphic" in2="effect1_dropShadow_17458_96519" result="shape"/>
</filter>
</defs>
</svg>
