<svg width="152" height="153" viewBox="0 0 152 153" fill="none" xmlns="http://www.w3.org/2000/svg">
<g filter="url(#filter0_d_17458_96511)">
<circle cx="76" cy="37" r="35" fill="#27B899"/>
</g>
<path d="M87.8445 46.5459L86.1016 42.7571C87.1372 40.9636 87.6929 38.9177 87.6929 36.8465C87.6929 30.3044 82.3886 25 75.8465 25C69.3044 25 64 30.3044 64 36.8465C64 43.3886 69.3044 48.6929 75.8465 48.6929C77.9178 48.6929 79.9637 48.1372 81.7571 47.1016L85.5459 48.8445C85.7732 48.9455 86.0259 48.996 86.2783 48.996C86.7329 48.996 87.1625 48.8191 87.4907 48.4909C87.996 47.9604 88.1476 47.2026 87.8445 46.5459L87.8445 46.5459ZM84.0303 43.1107L85.6469 46.6217L82.1359 45.0051C81.8075 44.8536 81.4538 44.8788 81.1508 45.0809C79.5594 46.0912 77.7407 46.6217 75.8716 46.6217C70.4662 46.6217 66.0711 42.2266 66.0711 36.8212C66.0713 31.4158 70.4411 27.046 75.8464 27.046C81.2517 27.046 85.6469 31.4411 85.6469 36.8465C85.6469 38.7157 85.1163 40.5595 84.1061 42.1256C83.904 42.4286 83.8786 42.7823 84.0301 43.1107L84.0303 43.1107Z" fill="white"/>
<path d="M79.2059 33.5126L74.7098 38.0087L72.4617 35.7607C72.0576 35.3565 71.4261 35.3565 71.0219 35.7607C70.6177 36.1649 70.6177 36.7963 71.0219 37.2005L73.9772 40.1558C74.1793 40.3579 74.4318 40.4589 74.7096 40.4589C74.9875 40.4589 75.2401 40.3579 75.442 40.1558L80.6454 34.9525C81.0496 34.5483 81.0496 33.9168 80.6454 33.5126C80.2414 33.1338 79.6099 33.1338 79.2059 33.5126Z" fill="white"/>
<defs>
<filter id="filter0_d_17458_96511" x="0.0690193" y="0.796146" width="151.862" height="151.862" filterUnits="userSpaceOnUse" color-interpolation-filters="sRGB">
<feFlood flood-opacity="0" result="BackgroundImageFix"/>
<feColorMatrix in="SourceAlpha" type="matrix" values="0 0 0 0 0 0 0 0 0 0 0 0 0 0 0 0 0 0 127 0" result="hardAlpha"/>
<feOffset dy="39.7271"/>
<feGaussianBlur stdDeviation="20.4655"/>
<feComposite in2="hardAlpha" operator="out"/>
<feColorMatrix type="matrix" values="0 0 0 0 0.152941 0 0 0 0 0.721569 0 0 0 0 0.6 0 0 0 0.4 0"/>
<feBlend mode="normal" in2="BackgroundImageFix" result="effect1_dropShadow_17458_96511"/>
<feBlend mode="normal" in="SourceGraphic" in2="effect1_dropShadow_17458_96511" result="shape"/>
</filter>
</defs>
</svg>
