<svg width="24" height="24" viewBox="0 0 24 24" fill="none" xmlns="http://www.w3.org/2000/svg">
<path fill-rule="evenodd" clip-rule="evenodd" d="M0 12.067C0 18.0335 4.33333 22.9944 10 24L10.0671 23.9461C10.0447 23.9417 10.0224 23.9373 10 23.9328V15.4188H7V12.0669H10V9.38531C10 6.36855 11.9333 4.69257 14.6667 4.69257C15.5333 4.69257 16.4667 4.82665 17.3333 4.96073V8.04453H15.8C14.3333 8.04453 14 8.78196 14 9.72051V12.0669H17.2L16.6667 15.4188H14V23.9328C13.9776 23.9373 13.9553 23.9417 13.9329 23.9461L14 24C19.6667 22.9944 24 18.0335 24 12.067C24 5.43017 18.6 0 12 0C5.4 0 0 5.43017 0 12.067Z" fill="#555555"/>
</svg>
