<svg width="31" height="28" viewBox="0 0 31 28" fill="none" xmlns="http://www.w3.org/2000/svg">
<path d="M8.69893 18.8059C8.60814 18.6697 8.48303 18.5606 8.33811 18.4891C8.43466 18.4719 8.53092 18.4553 8.62679 18.4392L8.69893 18.8059ZM8.66372 18.4329C8.66057 18.4335 8.65744 18.4336 8.65438 18.4334L8.64834 18.3974L8.57203 17.9413L8.65678 18.3957L8.66372 18.4329ZM22.2974 18.388L22.3807 17.9414L22.3045 18.3893L22.2969 18.4337C22.2943 18.4337 22.2917 18.4334 22.289 18.4329L22.2974 18.388ZM22.3344 18.4408C22.4235 18.456 22.5118 18.4715 22.5992 18.4871C22.4762 18.546 22.3674 18.632 22.2812 18.7383L22.3344 18.4408ZM22.0606 19.9714L22.1246 19.6138C22.1803 19.7771 22.2809 19.9215 22.4132 20.0308C22.298 20.0108 22.1805 19.991 22.0606 19.9714ZM27.0179 22.4125C27.0255 21.967 26.8148 21.5851 26.471 21.2898C26.7759 21.4314 27.015 21.5683 27.2018 21.6958C27.7823 22.0918 27.8161 22.3636 27.8177 22.3855C27.8175 22.4253 27.8004 22.5116 27.6849 22.649C27.5682 22.7878 27.3746 22.9489 27.0875 23.122C26.9397 23.2112 26.7725 23.3003 26.5865 23.3886C26.8503 23.1186 27.0114 22.7887 27.0179 22.4125ZM27.8177 22.387C27.8177 22.387 27.8177 22.3865 27.8177 22.3856L27.8177 22.387ZM8.83598 19.5027L8.92841 19.9726C8.78385 19.9958 8.64274 20.0196 8.50499 20.0439C8.67367 19.9084 8.79245 19.717 8.83598 19.5027ZM4.20541 21.4549C4.53904 21.2772 4.95071 21.099 5.44453 20.9262C4.85123 21.2942 4.4787 21.8139 4.48882 22.4378C4.49691 22.9361 4.74791 23.3654 5.15837 23.7019C4.65289 23.5135 4.23451 23.3178 3.90979 23.122C3.62266 22.9489 3.42915 22.7878 3.31241 22.649C3.19637 22.511 3.17965 22.4245 3.17965 22.385C3.17965 22.3427 3.20106 22.2317 3.36502 22.0537C3.52735 21.8775 3.79782 21.672 4.20541 21.4549Z" stroke="white"/>
<path d="M15.5148 23.3933L15.1374 23.6425L15.4902 23.3775L15.5148 23.3933ZM15.5421 23.3753L15.5175 23.357L15.5283 23.3489C15.5386 23.3511 15.5481 23.3572 15.5546 23.367L15.5421 23.3753ZM15.5445 23.2757C15.5347 23.2906 15.5259 23.304 15.518 23.316C15.2786 22.9818 13.5311 20.4073 11.8173 17.1928C10.9325 15.5331 10.0623 13.7132 9.4144 11.9513C9.26501 11.545 9.12815 11.1437 9.00594 10.7498C11.4575 16.0687 19.4835 16.063 21.9678 10.7694C21.8511 11.1392 21.7215 11.516 21.5808 11.8978C20.9334 13.6544 20.0643 15.4788 19.1819 17.1469C17.5567 20.2194 15.9037 22.7302 15.5445 23.2757Z" stroke="white"/>
</svg>
