<svg width="23" height="24" viewBox="0 0 23 24" fill="none" xmlns="http://www.w3.org/2000/svg">
<path d="M21.25 10.75C20.9185 10.75 20.6005 10.8817 20.3661 11.1161C20.1317 11.3505 20 11.6685 20 12V19.5C20 19.8315 19.8683 20.1495 19.6339 20.3839C19.3995 20.6183 19.0815 20.75 18.75 20.75H3.75C3.41848 20.75 3.10054 20.6183 2.86612 20.3839C2.6317 20.1495 2.5 19.8315 2.5 19.5V4.5C2.5 4.16848 2.6317 3.85054 2.86612 3.61612C3.10054 3.3817 3.41848 3.25 3.75 3.25H11.25C11.5815 3.25 11.8995 3.1183 12.1339 2.88388C12.3683 2.64946 12.5 2.33152 12.5 2C12.5 1.66848 12.3683 1.35054 12.1339 1.11612C11.8995 0.881696 11.5815 0.75 11.25 0.75H3.75C2.75544 0.75 1.80161 1.14509 1.09835 1.84835C0.395088 2.55161 0 3.50544 0 4.5V19.5C0 20.4946 0.395088 21.4484 1.09835 22.1517C1.80161 22.8549 2.75544 23.25 3.75 23.25H18.75C19.7446 23.25 20.6984 22.8549 21.4017 22.1517C22.1049 21.4484 22.5 20.4946 22.5 19.5V12C22.5 11.6685 22.3683 11.3505 22.1339 11.1161C21.8995 10.8817 21.5815 10.75 21.25 10.75Z" fill="#FFB211"/>
<path d="M16.2499 3.25H18.2249L10.3624 11.1C10.2453 11.2162 10.1523 11.3545 10.0888 11.5068C10.0253 11.6591 9.99268 11.8225 9.99268 11.9875C9.99268 12.1525 10.0253 12.3159 10.0888 12.4682C10.1523 12.6205 10.2453 12.7588 10.3624 12.875C10.4786 12.9922 10.6169 13.0852 10.7692 13.1486C10.9215 13.2121 11.0849 13.2447 11.2499 13.2447C11.4149 13.2447 11.5783 13.2121 11.7306 13.1486C11.883 13.0852 12.0212 12.9922 12.1374 12.875L19.9999 5.025V7C19.9999 7.33152 20.1316 7.64946 20.366 7.88388C20.6005 8.1183 20.9184 8.25 21.2499 8.25C21.5814 8.25 21.8994 8.1183 22.1338 7.88388C22.3682 7.64946 22.4999 7.33152 22.4999 7V2C22.4999 1.66848 22.3682 1.35054 22.1338 1.11612C21.8994 0.881696 21.5814 0.75 21.2499 0.75H16.2499C15.9184 0.75 15.6005 0.881696 15.366 1.11612C15.1316 1.35054 14.9999 1.66848 14.9999 2C14.9999 2.33152 15.1316 2.64946 15.366 2.88388C15.6005 3.1183 15.9184 3.25 16.2499 3.25Z" fill="#FFB211"/>
</svg>
