<svg width="152" height="153" viewBox="0 0 152 153" fill="none" xmlns="http://www.w3.org/2000/svg">
<g filter="url(#filter0_d_17458_96531)">
<circle cx="76" cy="37" r="35" fill="#FFB211"/>
</g>
<path d="M68.3236 39.4075H64.7499C64.3356 39.4075 64 39.7434 64 40.1575V47.6575C64 47.8566 64.079 48.0473 64.2197 48.188C64.3602 48.3285 64.5511 48.4075 64.75 48.4075H68.3236C68.5227 48.4075 68.7134 48.3285 68.8541 48.188C68.9946 48.0473 69.0736 47.8566 69.0736 47.6575V40.1575C69.0736 39.7434 68.738 39.4075 68.3237 39.4075H68.3236ZM67.5737 46.9076H65.4999V40.9074H67.5737V46.9076ZM74.6311 37.049H71.0574C70.6433 37.049 70.3075 37.3847 70.3075 37.799V47.6428C70.3075 47.8416 70.3865 48.0323 70.5272 48.173C70.6677 48.3137 70.8586 48.3927 71.0574 48.3927H74.6311C74.8302 48.3927 75.0209 48.3137 75.1616 48.173C75.3021 48.0323 75.3813 47.8416 75.3813 47.6428V37.799C75.3813 37.5999 75.3021 37.4092 75.1616 37.2685C75.0209 37.128 74.8302 37.049 74.6311 37.049L74.6311 37.049ZM73.8812 46.8928H71.8073V38.5491H73.8812V46.8928ZM80.9426 35.0843H77.3689C76.9545 35.0843 76.6187 35.4199 76.6187 35.8342V47.6428C76.6187 47.8416 76.6979 48.0323 76.8384 48.173C76.9791 48.3137 77.1698 48.3927 77.3689 48.3927H80.9426C81.1414 48.3927 81.3323 48.3137 81.4728 48.173C81.6135 48.0323 81.6925 47.8416 81.6925 47.6428V35.8342C81.6925 35.6352 81.6135 35.4445 81.4728 35.3038C81.3323 35.1633 81.1414 35.0843 80.9426 35.0843L80.9426 35.0843ZM80.1926 46.8928H78.1188V36.5836H80.1926V46.8928ZM87.25 31.2365H83.6763C83.262 31.2365 82.9264 31.5721 82.9264 31.9865V47.6428C82.9264 47.8416 83.0054 48.0323 83.1459 48.173C83.2866 48.3137 83.4773 48.3927 83.6764 48.3927H87.25C87.4489 48.3927 87.6398 48.3137 87.7803 48.173C87.921 48.0323 88 47.8416 88 47.6428V31.9865C88 31.7877 87.921 31.5967 87.7803 31.4562C87.6398 31.3155 87.4489 31.2365 87.25 31.2365L87.25 31.2365ZM86.5001 46.8928H84.4263V32.7365H86.5001V46.8928ZM64.9409 35.92C64.9176 35.7223 64.9743 35.5232 65.0981 35.3668C65.2218 35.2106 65.4028 35.1102 65.6008 35.0877C65.7133 35.0877 76.577 33.7152 83.998 26.5001L82.3519 26.4999C81.9378 26.4999 81.6019 26.1643 81.6019 25.7499C81.6019 25.3359 81.9378 25 82.3519 25H85.9256C86.1246 25 86.3153 25.079 86.4561 25.2197C86.5968 25.3605 86.6758 25.5511 86.6758 25.7499V29.3276C86.6758 29.7417 86.3399 30.0775 85.9256 30.0775C85.5115 30.0775 85.1757 29.7417 85.1757 29.3276V27.4526C77.3984 35.1401 66.2494 36.5203 65.7733 36.5799H65.687C65.3069 36.5806 64.9862 36.2971 64.9407 35.9196L64.9409 35.92Z" fill="white"/>
<defs>
<filter id="filter0_d_17458_96531" x="0.0690193" y="0.796146" width="151.862" height="151.862" filterUnits="userSpaceOnUse" color-interpolation-filters="sRGB">
<feFlood flood-opacity="0" result="BackgroundImageFix"/>
<feColorMatrix in="SourceAlpha" type="matrix" values="0 0 0 0 0 0 0 0 0 0 0 0 0 0 0 0 0 0 127 0" result="hardAlpha"/>
<feOffset dy="39.7271"/>
<feGaussianBlur stdDeviation="20.4655"/>
<feComposite in2="hardAlpha" operator="out"/>
<feColorMatrix type="matrix" values="0 0 0 0 1 0 0 0 0 0.698039 0 0 0 0 0.0666667 0 0 0 0.4 0"/>
<feBlend mode="normal" in2="BackgroundImageFix" result="effect1_dropShadow_17458_96531"/>
<feBlend mode="normal" in="SourceGraphic" in2="effect1_dropShadow_17458_96531" result="shape"/>
</filter>
</defs>
</svg>
