<svg width="105" height="105" viewBox="0 0 105 105" fill="none" xmlns="http://www.w3.org/2000/svg">
<path d="M12.305 15.2168H55.5814C61.714 15.2168 66.6868 21.6448 66.6868 29.5723V43.1977L69.3069 43.9671L71.228 57.563L69.9008 71.2868L56.2048 71.2031C55.9899 71.2228 55.7963 71.2868 55.583 71.2868H12.3066C6.16904 71.2868 1.19794 64.8621 1.19794 56.9313V29.5739C1.19466 21.6464 6.16904 15.2168 12.305 15.2168Z" fill="#F48020"/>
<path d="M12.305 15.2446H55.5814C61.714 15.2446 66.6868 21.671 66.6868 29.6001V43.2271L69.3069 43.9966L71.228 57.5908L70.306 67.1425L69.3069 60.0928L66.6868 59.3233V45.6979C66.6868 37.7704 61.7157 31.3424 55.5814 31.3424H12.305C6.1674 31.3424 1.1963 37.7721 1.1963 45.6979V29.5985C1.1963 21.671 6.1674 15.2446 12.305 15.2446Z" fill="#F9A425"/>
<path d="M72.574 31.3516H81.3874C88.7505 31.8323 103.395 35.2071 103.114 54.4352V61.5129C103.114 67.5684 100.479 72.4755 97.2358 72.4755H72.5772C69.3304 72.4755 66.694 67.57 66.694 61.5129V42.311C66.694 36.2571 69.3288 31.3467 72.5772 31.3467" fill="#E3E4E3"/>
<path d="M70.2192 24.5869H75.502C79.9071 24.8396 88.6762 26.5918 88.5089 36.5782V40.2483C88.5089 43.395 86.9257 45.9429 84.9881 45.9429H70.2225C68.2816 45.9429 66.7017 43.395 66.7017 40.2483V30.2848C66.6984 27.1381 68.28 24.5869 70.2208 24.5869" fill="#E3E4E3"/>
<path d="M83.8126 36.6992H88.2325C91.9222 36.9748 99.2657 38.9059 99.1229 49.9063V53.9553C99.1229 57.422 97.8055 60.2324 96.1764 60.2324H83.8126C82.1835 60.2324 80.8595 57.422 80.8595 53.9553V42.9713C80.8595 39.508 82.1835 36.7009 83.8126 36.7009" fill="#A2C2CA"/>
<path d="M90.1686 50.454C90.3835 45.8176 90.0668 41.05 88.7002 36.6826C92.4129 36.9779 99.6629 38.9516 99.5234 49.8897V53.9387C99.5234 57.4054 98.2027 60.2157 96.5736 60.2157H88.5394C89.4877 57.2807 90.0029 54.0339 90.1686 50.4606" fill="#83AFB7"/>
<path d="M70.071 75.3716C70.0736 78.3896 71.2743 81.2831 73.4093 83.4163C75.5443 85.5494 78.4389 86.7477 81.4569 86.7477C84.4732 86.745 87.3653 85.5457 89.4981 83.4128C91.631 81.2799 92.8304 78.3879 92.833 75.3716C92.8321 72.3544 91.6334 69.461 89.5003 67.3272C87.3671 65.1935 84.4741 63.9939 81.4569 63.9922C79.9621 63.9918 78.4819 64.2858 77.1007 64.8574C75.7195 65.429 74.4645 66.2671 73.4072 67.3238C72.3499 68.3804 71.5111 69.635 70.9387 71.0159C70.3663 72.3967 70.0714 73.8768 70.071 75.3716Z" fill="white"/>
<path d="M72.0884 75.3718C72.0906 77.854 73.0782 80.2338 74.8342 81.9883C76.5901 83.7427 78.9708 84.7282 81.4531 84.7282C83.9336 84.7252 86.3117 83.7385 88.0658 81.9844C89.8198 80.2304 90.8065 77.8523 90.8096 75.3718C90.777 72.9106 89.7764 70.5614 88.0245 68.8325C86.2726 67.1036 83.9103 66.1343 81.449 66.1343C78.9876 66.1343 76.6253 67.1036 74.8734 68.8325C73.1215 70.5614 72.121 72.9106 72.0884 75.3718Z" fill="#243438"/>
<path d="M75.3863 75.2412C75.3863 76.8505 76.0256 78.3939 77.1635 79.5318C78.3014 80.6698 79.8448 81.3091 81.4541 81.3091C83.0634 81.3091 84.6068 80.6698 85.7447 79.5318C86.8827 78.3939 87.522 76.8505 87.522 75.2412C87.477 73.6619 86.818 72.1623 85.6849 71.061C84.5519 69.9598 83.0341 69.3438 81.4541 69.3438C79.8741 69.3438 78.3563 69.9598 77.2233 71.061C76.0903 72.1623 75.4313 73.6619 75.3863 75.2412Z" fill="#969796"/>
<path d="M23.2379 76.8435C23.2388 79.4713 24.2831 81.9913 26.1412 83.8495C27.9994 85.7077 30.5194 86.752 33.1473 86.7528C35.7749 86.7511 38.2943 85.7065 40.1523 83.8485C42.0103 81.9905 43.0549 79.4711 43.0566 76.8435C43.0558 74.2156 42.0115 71.6956 40.1533 69.8374C38.2951 67.9793 35.7751 66.935 33.1473 66.9341C31.8459 66.9341 30.5574 67.1904 29.3551 67.6884C28.1529 68.1864 27.0604 68.9163 26.1403 69.8365C25.2201 70.7566 24.4902 71.849 23.9922 73.0513C23.4942 74.2536 23.2379 75.5421 23.2379 76.8435Z" fill="white"/>
<path d="M24.9933 76.8435C24.9933 79.0038 25.8515 81.0757 27.3791 82.6033C28.9067 84.131 30.9786 84.9892 33.139 84.9892C35.2993 84.9892 37.3712 84.131 38.8988 82.6033C40.4265 81.0757 41.2847 79.0038 41.2847 76.8435C41.2855 75.7742 41.0757 74.7152 40.6671 73.7271C40.2586 72.739 39.6594 71.841 38.9037 71.0846C38.148 70.3281 37.2506 69.728 36.2629 69.3184C35.2752 68.9089 34.2164 68.698 33.1472 68.6978C32.0767 68.6965 31.0165 68.9062 30.0272 69.315C29.0378 69.7238 28.1388 70.3236 27.3815 71.0802C26.6242 71.8367 26.0234 72.7352 25.6137 73.7241C25.2039 74.713 24.993 75.773 24.9933 76.8435Z" fill="#243438"/>
<path d="M27.8576 76.733C27.8576 77.4271 27.9943 78.1144 28.26 78.7556C28.5257 79.3969 28.9151 79.9795 29.4059 80.4702C29.8968 80.961 30.4796 81.3502 31.1209 81.6156C31.7622 81.8811 32.4496 82.0176 33.1437 82.0174C34.1878 82.0165 35.2083 81.706 36.076 81.1252C36.9438 80.5445 37.62 79.7195 38.019 78.7546C38.4181 77.7897 38.5221 76.7282 38.3181 75.7041C38.114 74.6801 37.611 73.7395 36.8725 73.0013C36.1341 72.2631 35.1934 71.7603 34.1693 71.5566C33.1452 71.3529 32.0837 71.4573 31.1189 71.8566C30.1541 72.256 29.3294 72.9324 28.7489 73.8003C28.1684 74.6683 27.8582 75.6888 27.8576 76.733Z" fill="#969796"/>
<path d="M2.96914 76.7346C2.97021 78.0348 3.22738 79.3221 3.72596 80.523C4.22453 81.7238 4.95475 82.8147 5.87492 83.7334C6.79509 84.652 7.88719 85.3804 9.08887 85.877C10.2905 86.3736 11.5783 86.6286 12.8785 86.6275C14.1787 86.6265 15.466 86.3693 16.6669 85.8707C17.8678 85.3721 18.9586 84.6419 19.8773 83.7218C20.7959 82.8016 21.5244 81.7095 22.0209 80.5078C22.5175 79.3061 22.7726 78.0184 22.7715 76.7182C22.7693 74.0922 21.7241 71.5747 19.8657 69.7194C18.0073 67.8641 15.4881 66.823 12.8621 66.8252C10.2361 66.8274 7.71861 67.8726 5.86332 69.731C4.00802 71.5894 2.96696 74.1086 2.96914 76.7346Z" fill="white"/>
<path d="M4.72578 76.7331C4.72839 78.8941 5.58856 80.9657 7.11738 82.493C8.64621 84.0203 10.7187 84.8784 12.8797 84.8788C15.0401 84.8788 17.112 84.0206 18.6396 82.493C20.1672 80.9654 21.0254 78.8935 21.0254 76.7331C21.0254 74.5727 20.1672 72.5008 18.6396 70.9732C17.112 69.4456 15.0401 68.5874 12.8797 68.5874C11.8094 68.5868 10.7495 68.797 9.76046 69.206C8.77142 69.615 7.87264 70.2149 7.11546 70.9713C6.35828 71.7277 5.75753 72.6259 5.3475 73.6145C4.93748 74.6031 4.72622 75.6628 4.72578 76.7331Z" fill="#243438"/>
<path d="M7.59584 76.6228C7.58348 77.3243 7.71097 78.0212 7.97086 78.6729C8.23075 79.3245 8.61785 79.9179 9.10955 80.4184C9.60126 80.9188 10.1877 81.3163 10.8347 81.5876C11.4817 81.859 12.1762 81.9987 12.8778 81.9987C13.5794 81.9987 14.274 81.859 14.921 81.5876C15.5679 81.3163 16.1544 80.9188 16.6461 80.4184C17.1378 79.9179 17.5249 79.3245 17.7848 78.6729C18.0447 78.0212 18.1722 77.3243 18.1598 76.6228C18.1354 75.2381 17.5682 73.9183 16.5803 72.9476C15.5924 71.977 14.2628 71.4331 12.8778 71.4331C11.4929 71.4331 10.1633 71.977 9.17538 72.9476C8.18747 73.9183 7.62025 75.2381 7.59584 76.6228Z" fill="#969796"/>
<path d="M99.5317 66.068C99.5317 68.8275 100.647 71.067 102.027 71.067C103.405 71.067 104.522 68.8275 104.522 66.068V65.9564C104.522 63.2002 103.405 60.9673 102.027 60.9673C100.647 60.9673 99.5317 63.2002 99.5317 65.9564V66.068Z" fill="#F1F1F1"/>
<path d="M0.477303 60.2861C0.477303 63.0456 1.59293 65.2785 2.97433 65.2785C4.35082 65.2785 5.46973 63.0456 5.46973 60.2861V60.1778C5.46973 57.415 4.35082 55.1821 2.97433 55.1821C1.59129 55.1821 0.477303 57.415 0.477303 60.1778V60.2861Z" fill="#DF394C"/>
</svg>
