<svg width="130" height="41" viewBox="0 0 130 41" fill="none" xmlns="http://www.w3.org/2000/svg">
<path d="M62.1366 28.3633C60.8531 28.3633 59.6362 28.1966 58.486 27.8633C57.3525 27.5132 56.4273 27.0465 55.7105 26.463C55.3271 26.1796 55.1354 25.7796 55.1354 25.2628C55.1354 24.9128 55.2354 24.6127 55.4355 24.3627C55.6522 24.096 55.9022 23.9626 56.1856 23.9626C56.4857 23.9626 56.8274 24.0793 57.2108 24.3127C57.9276 24.8294 58.6777 25.2045 59.4612 25.4378C60.2446 25.6712 61.1114 25.7879 62.0616 25.7879C63.2785 25.7879 64.212 25.5795 64.8621 25.1628C65.5122 24.7294 65.8372 24.1043 65.8372 23.2875C65.8372 22.654 65.5289 22.1706 64.9121 21.8372C64.312 21.4872 63.3035 21.1538 61.8866 20.8371C60.4197 20.5203 59.2278 20.1536 58.311 19.7369C57.3941 19.3201 56.7024 18.7867 56.2356 18.1366C55.7689 17.4865 55.5355 16.6614 55.5355 15.6612C55.5355 14.6277 55.8272 13.7025 56.4106 12.8857C56.9941 12.0689 57.8025 11.4355 58.8361 10.9854C59.8862 10.5186 61.0614 10.2853 62.3617 10.2853C64.7454 10.2853 66.6874 10.9187 68.1876 12.1856C68.4043 12.369 68.5544 12.5523 68.6377 12.7357C68.7377 12.9024 68.7877 13.1191 68.7877 13.3858C68.7877 13.7359 68.6794 14.0442 68.4627 14.311C68.2627 14.561 68.021 14.686 67.7376 14.686C67.5709 14.686 67.4125 14.661 67.2625 14.611C67.1291 14.561 66.9458 14.4693 66.7124 14.336C66.0289 13.8359 65.3622 13.4691 64.7121 13.2358C64.0786 12.9857 63.2951 12.8607 62.3617 12.8607C61.2281 12.8607 60.328 13.0941 59.6612 13.5608C59.0111 14.0109 58.686 14.6443 58.686 15.4611C58.686 16.1446 58.9777 16.6697 59.5612 17.0364C60.1446 17.4031 61.1364 17.7449 62.5367 18.0616C64.0203 18.395 65.2205 18.77 66.1373 19.1868C67.0708 19.5869 67.7792 20.1036 68.2627 20.737C68.7627 21.3705 69.0128 22.1623 69.0128 23.1125C69.0128 24.146 68.7211 25.0628 68.1376 25.8629C67.5709 26.6464 66.7624 27.2632 65.7122 27.7132C64.6787 28.1466 63.4868 28.3633 62.1366 28.3633ZM78.7318 15.6112C79.782 15.6112 80.7155 15.8779 81.5323 16.4113C82.3658 16.9447 83.0075 17.7032 83.4576 18.6867C83.9244 19.6535 84.1577 20.7704 84.1577 22.0373C84.1577 23.3041 83.9244 24.4127 83.4576 25.3628C83.0075 26.313 82.3741 27.0465 81.5573 27.5632C80.7405 28.08 79.7987 28.3383 78.7318 28.3383C77.865 28.3383 77.0899 28.155 76.4064 27.7882C75.723 27.4215 75.1979 26.9131 74.8312 26.263V31.3639C74.8312 31.7973 74.6895 32.139 74.4061 32.389C74.1227 32.6391 73.7476 32.7641 73.2809 32.7641C72.8141 32.7641 72.4307 32.6307 72.1307 32.364C71.8473 32.0973 71.7056 31.7473 71.7056 31.3138V17.1364C71.7056 16.6864 71.839 16.328 72.1057 16.0613C72.3891 15.7945 72.7641 15.6612 73.2309 15.6612C73.6976 15.6612 74.0727 15.7945 74.3561 16.0613C74.6395 16.328 74.7811 16.6864 74.7811 17.1364V17.7615C75.1479 17.0781 75.673 16.553 76.3564 16.1863C77.0565 15.8029 77.8483 15.6112 78.7318 15.6112ZM77.9067 25.9129C78.8902 25.9129 79.657 25.5795 80.2071 24.9128C80.7572 24.2293 81.0322 23.2708 81.0322 22.0373C81.0322 20.7704 80.7572 19.7869 80.2071 19.0868C79.657 18.3866 78.8902 18.0366 77.9067 18.0366C76.9065 18.0366 76.1314 18.3783 75.5813 19.0618C75.0479 19.7452 74.7811 20.7204 74.7811 21.9873C74.7811 23.2375 75.0479 24.2043 75.5813 24.8878C76.1314 25.5712 76.9065 25.9129 77.9067 25.9129ZM92.2988 28.3383C91.0486 28.3383 89.9484 28.08 88.9982 27.5632C88.0647 27.0465 87.3396 26.3047 86.8228 25.3378C86.3061 24.371 86.0477 23.2458 86.0477 21.9623C86.0477 20.6787 86.3061 19.5618 86.8228 18.6117C87.3396 17.6449 88.0647 16.9031 88.9982 16.3863C89.9484 15.8696 91.0486 15.6112 92.2988 15.6112C93.549 15.6112 94.6408 15.8696 95.5743 16.3863C96.5245 16.9031 97.2496 17.6449 97.7497 18.6117C98.2665 19.5618 98.5248 20.6787 98.5248 21.9623C98.5248 23.2458 98.2665 24.371 97.7497 25.3378C97.2496 26.3047 96.5245 27.0465 95.5743 27.5632C94.6408 28.08 93.549 28.3383 92.2988 28.3383ZM92.2738 25.9129C93.2906 25.9129 94.0657 25.5795 94.5992 24.9128C95.1326 24.246 95.3993 23.2625 95.3993 21.9623C95.3993 20.6787 95.1326 19.7035 94.5992 19.0368C94.0657 18.3533 93.2989 18.0116 92.2988 18.0116C91.2986 18.0116 90.5235 18.3533 89.9734 19.0368C89.44 19.7035 89.1732 20.6787 89.1732 21.9623C89.1732 23.2625 89.44 24.246 89.9734 24.9128C90.5068 25.5795 91.2736 25.9129 92.2738 25.9129ZM107.383 25.9629C108.216 26.0129 108.633 26.388 108.633 27.0881C108.633 27.4882 108.467 27.7966 108.133 28.0133C107.816 28.2133 107.358 28.2967 106.758 28.2633L106.083 28.2133C103.282 28.0133 101.882 26.513 101.882 23.7126V18.2616H100.632C100.182 18.2616 99.8317 18.1616 99.5817 17.9616C99.3483 17.7615 99.2316 17.4698 99.2316 17.0864C99.2316 16.703 99.3483 16.4113 99.5817 16.2113C99.8317 16.0112 100.182 15.9112 100.632 15.9112H101.882V13.6108C101.882 13.1608 102.024 12.8024 102.307 12.5357C102.591 12.2689 102.974 12.1356 103.457 12.1356C103.924 12.1356 104.299 12.2689 104.583 12.5357C104.866 12.8024 105.008 13.1608 105.008 13.6108V15.9112H107.133C107.583 15.9112 107.925 16.0112 108.158 16.2113C108.408 16.4113 108.533 16.703 108.533 17.0864C108.533 17.4698 108.408 17.7615 108.158 17.9616C107.925 18.1616 107.583 18.2616 107.133 18.2616H105.008V23.9376C105.008 25.1711 105.574 25.8296 106.708 25.9129L107.383 25.9629ZM116.442 25.9629C117.276 26.0129 117.692 26.388 117.692 27.0881C117.692 27.4882 117.526 27.7966 117.192 28.0133C116.876 28.2133 116.417 28.2967 115.817 28.2633L115.142 28.2133C112.341 28.0133 110.941 26.513 110.941 23.7126V18.2616H109.691C109.241 18.2616 108.891 18.1616 108.641 17.9616C108.407 17.7615 108.291 17.4698 108.291 17.0864C108.291 16.703 108.407 16.4113 108.641 16.2113C108.891 16.0112 109.241 15.9112 109.691 15.9112H110.941V13.6108C110.941 13.1608 111.083 12.8024 111.366 12.5357C111.65 12.2689 112.033 12.1356 112.516 12.1356C112.983 12.1356 113.358 12.2689 113.642 12.5357C113.925 12.8024 114.067 13.1608 114.067 13.6108V15.9112H116.192C116.642 15.9112 116.984 16.0112 117.217 16.2113C117.467 16.4113 117.592 16.703 117.592 17.0864C117.592 17.4698 117.467 17.7615 117.217 17.9616C116.984 18.1616 116.642 18.2616 116.192 18.2616H114.067V23.9376C114.067 25.1711 114.634 25.8296 115.767 25.9129L116.442 25.9629ZM126.147 15.6612C126.581 15.6278 126.922 15.7195 127.172 15.9362C127.423 16.1529 127.548 16.478 127.548 16.9114C127.548 17.3615 127.439 17.6949 127.222 17.9116C127.006 18.1283 126.614 18.27 126.047 18.3366L125.297 18.4117C124.314 18.5117 123.589 18.8451 123.122 19.4118C122.672 19.9786 122.447 20.687 122.447 21.5372V26.7881C122.447 27.2715 122.297 27.6466 121.997 27.9133C121.697 28.1633 121.321 28.2883 120.871 28.2883C120.421 28.2883 120.046 28.1633 119.746 27.9133C119.463 27.6466 119.321 27.2715 119.321 26.7881V17.1114C119.321 16.6447 119.463 16.2863 119.746 16.0362C120.046 15.7862 120.413 15.6612 120.846 15.6612C121.28 15.6612 121.63 15.7862 121.897 16.0362C122.163 16.2696 122.297 16.6113 122.297 17.0614V18.0616C122.613 17.3281 123.08 16.7614 123.697 16.3613C124.33 15.9612 125.03 15.7362 125.797 15.6862L126.147 15.6612Z" fill="#274B89"/>
<path fill-rule="evenodd" clip-rule="evenodd" d="M20.5 41C31.8218 41 41 31.8218 41 20.5C41 9.17816 31.8218 0 20.5 0C9.17816 0 0 9.17816 0 20.5C0 31.8218 9.17816 41 20.5 41ZM20.5 34.0301C27.9724 34.0301 34.03 27.9725 34.03 20.5001C34.03 13.0276 27.9724 6.97005 20.5 6.97005C13.0276 6.97005 6.96999 13.0276 6.96999 20.5001C6.96999 27.9725 13.0276 34.0301 20.5 34.0301Z" fill="#274B89"/>
<circle cx="20.5001" cy="20.5" r="6.15" fill="#274B89"/>
</svg>
