<svg width="130" height="130" viewBox="0 0 130 130" fill="none" xmlns="http://www.w3.org/2000/svg">
<g opacity="0.930588" clip-path="url(#clip0_4204_919)">
<path d="M74.1724 0.380859L74.124 28.7261L74.0757 57.0712L71.851 50.491V50.4742L68.9653 113.576C71.8027 121.944 73.318 126.415 73.3341 126.433C73.3503 126.45 74.9624 126.551 76.913 126.652C82.8132 126.955 90.1322 127.613 95.6939 128.339C96.9836 128.508 98.0798 128.592 98.1604 128.525C98.241 128.457 98.2571 99.6054 98.241 64.3937L98.1927 0.380859H74.1724Z" fill="#B1060F"/>
<path d="M30.7266 0.297147V64.3774C30.7266 99.6231 30.7588 128.491 30.8072 128.542C30.8555 128.592 32.9351 128.373 35.45 128.087C37.9649 127.8 41.4309 127.429 43.1558 127.277C45.7997 127.041 53.7312 126.517 54.634 126.501C54.908 126.501 54.9242 125.067 54.9564 99.3531L55.0048 72.2061L56.9231 77.8752C57.2133 78.7526 57.31 79.0225 57.6002 79.883L60.4859 16.7981C59.8733 14.9928 60.1957 15.9376 59.5025 13.8792C57.1488 6.91102 55.1498 1.02265 55.0692 0.752692L54.908 0.280273H30.7266V0.297147Z" fill="#B1060F"/>
<path d="M74.1724 0.380859L74.124 28.7261L74.0757 57.0712L71.851 50.491V50.4742L68.9653 113.576C71.8027 121.944 73.318 126.415 73.3341 126.433C73.3503 126.45 74.9624 126.551 76.913 126.652C82.8132 126.955 90.1322 127.613 95.6939 128.339C96.9836 128.508 98.0798 128.592 98.1604 128.525C98.241 128.457 98.2571 99.6054 98.241 64.3937L98.1927 0.380859H74.1724Z" fill="#B1060F"/>
<path d="M30.7266 0.297147V64.3774C30.7266 99.6231 30.7588 128.491 30.8072 128.542C30.8555 128.592 32.9351 128.373 35.45 128.087C37.9649 127.8 41.4309 127.429 43.1558 127.277C45.7997 127.041 53.7312 126.517 54.634 126.501C54.908 126.501 54.9242 125.067 54.9564 99.3531L55.0048 72.2061L56.9231 77.8752C57.2133 78.7526 57.31 79.0225 57.6002 79.883L60.4859 16.7981C59.8733 14.9928 60.1957 15.9376 59.5025 13.8792C57.1488 6.91102 55.1498 1.02265 55.0692 0.752692L54.908 0.280273H30.7266V0.297147Z" fill="#B1060F"/>
<path d="M30.7266 0.297147V36.2685L54.9403 103.487C54.9403 101.951 54.9403 101.108 54.9564 99.3531L55.0048 72.2061L56.9231 77.8752C67.563 109.46 73.286 126.4 73.3182 126.433C73.3343 126.45 74.9464 126.551 76.897 126.653C82.7973 126.956 90.1162 127.614 95.678 128.34C96.9677 128.509 98.0639 128.592 98.1445 128.526C98.1929 128.475 98.2251 114.336 98.2251 94.3762L74.1404 21.8598L74.1242 28.7267L74.0759 57.0719L71.8511 50.4917C69.6748 44.0634 68.224 39.761 59.4703 13.8792C57.1166 6.91102 55.1176 1.02265 55.037 0.752692L54.8758 0.280273H30.7266V0.297147Z" fill="url(#paint0_radial_4204_919)"/>
<path d="M30.7266 0.297147L54.9887 72.2568V72.223L56.907 77.8921C67.563 109.46 73.286 126.4 73.3182 126.433C73.3343 126.45 74.9464 126.551 76.897 126.653C82.7973 126.956 90.1162 127.614 95.6779 128.34C96.9515 128.509 98.0639 128.592 98.1283 128.526L74.0759 57.055V57.0719L71.8512 50.4917C69.6748 44.0634 68.224 39.761 59.4703 13.8792C57.1166 6.91102 55.1176 1.02265 55.037 0.752692L54.8757 0.280273H42.8011L30.7266 0.297147Z" fill="#E50914"/>
</g>
<defs>
<radialGradient id="paint0_radial_4204_919" cx="0" cy="0" r="1" gradientUnits="userSpaceOnUse" gradientTransform="translate(63.3458 63.6706) rotate(-19.9221) scale(4.47123 169.685)">
<stop/>
<stop offset="1" stop-opacity="0"/>
</radialGradient>
<clipPath id="clip0_4204_919">
<rect width="68.7407" height="129.625" fill="white" transform="translate(30.4424)"/>
</clipPath>
</defs>
</svg>
