<svg width="266" height="89" viewBox="0 0 266 89" fill="none" xmlns="http://www.w3.org/2000/svg">
<path fill-rule="evenodd" clip-rule="evenodd" d="M110.843 0.778256C110.463 1.22734 110.153 1.27521 109.788 0.940563C109.074 0.286774 105.908 2.00924 105.401 3.32685C105.112 4.07775 105.079 3.88718 105.27 2.57139L105.524 0.811538L103.712 1.16168C101.063 1.67414 100.295 1.72931 99.8392 1.4398C99.2513 1.0664 96.6097 1.37688 96.049 1.88523C95.7364 2.16881 95.5099 2.11547 95.3904 1.72885C95.244 1.25606 94.9393 1.24922 93.8477 1.69329C92.9204 2.07033 92.2448 2.10316 91.7251 1.79678C91.1437 1.45347 90.7638 1.56654 90.1225 2.27367C89.4233 3.04464 88.9863 3.14539 87.5288 2.87367C86.5647 2.69358 85.5897 2.6147 85.3623 2.69814C85.1349 2.78111 83.9255 2.91242 82.6748 2.98947C79.0604 3.21241 78.9537 3.22974 78.9537 3.59676C78.9537 3.7887 78.3674 3.85025 77.6505 3.73444C76.4853 3.54569 76.3716 3.62685 76.5779 4.4972C76.733 5.15099 76.6176 5.47104 76.2273 5.47104C75.9077 5.47104 75.646 5.1633 75.646 4.78716C75.646 4.33124 75.2326 4.10328 74.4056 4.10328C73.6891 4.10328 73.1653 4.34401 73.1653 4.67318C73.1648 5.02515 72.5248 5.26633 71.4903 5.30418C69.5847 5.37348 68.9815 5.78153 69.8696 6.40067C70.2814 6.6879 70.3111 6.82695 69.9609 6.83197C69.6769 6.83561 69.4441 7.14655 69.4441 7.52268C69.4441 7.89882 69.165 8.20656 68.8239 8.20656C68.4828 8.20656 68.2037 7.89882 68.2037 7.52268C68.2037 7.14655 68.3898 6.8388 68.6172 6.8388C68.8446 6.8388 69.0306 6.63364 69.0306 6.38288C69.0306 5.69536 67.9106 5.83578 67.6604 6.55431C67.5273 6.93637 67.0556 7.1005 66.4548 6.97376C65.5427 6.78181 65.4807 6.88759 65.6374 8.36705C65.7986 9.88937 66.8219 10.9553 67.3437 10.1442C67.4756 9.93952 68.0954 9.73572 68.7206 9.69195C69.3457 9.64818 70.0903 9.58892 70.3744 9.56019C70.6589 9.53147 71.3096 9.64955 71.8215 9.82235C72.5161 10.0571 72.7518 9.95274 72.7518 9.41065C72.7518 8.82023 72.949 8.7678 73.8123 9.1298C75.4083 9.79864 76.8864 9.68375 76.8864 8.89045C76.8864 8.46507 77.2767 8.20656 77.92 8.20656C78.5241 8.20656 78.9537 8.46872 78.9537 8.83665C78.9537 9.70016 82.2246 9.75487 82.5231 8.89637C82.6422 8.55443 83.2367 8.28544 83.8441 8.29821C85.9482 8.34289 86.396 8.20337 86.396 7.50262C86.396 7.11555 86.6287 6.83197 86.9128 6.873C87.1973 6.91358 87.8547 6.92269 88.3744 6.8926C89.1835 6.84655 89.2563 6.70932 88.8817 5.93745C88.5249 5.20159 88.56 5.08488 89.0739 5.3019C89.4204 5.4487 89.7036 5.85447 89.7036 6.20371C89.7036 6.55294 89.9629 6.8388 90.2796 6.8388C90.5963 6.8388 90.9614 7.14336 91.0912 7.51539C91.4369 8.5093 96.4232 8.24532 97.559 7.17299C98.4326 6.34823 99.4274 6.0879 99.0358 6.78683C98.9114 7.00886 99.2769 7.2888 99.8483 7.40962C100.419 7.52998 100.988 7.44746 101.112 7.22634C101.236 7.00476 101.511 6.94184 101.723 7.08637C101.934 7.23044 102.107 7.13105 102.107 6.8657C102.107 6.60036 102.491 6.38288 102.959 6.38288C103.427 6.38288 103.695 6.58805 103.555 6.8388C103.397 7.11919 103.985 7.26828 105.081 7.22634C106.269 7.18074 106.491 7.09549 105.748 6.97057C104.954 6.83698 104.703 6.58349 104.875 6.08882C105.008 5.70721 105.23 5.56588 105.369 5.77469C105.76 6.36328 107.405 7.29472 108.054 7.29472C108.374 7.29472 109.493 6.40249 110.54 5.31147C111.844 3.95374 112.444 3.56347 112.444 4.07365C112.444 4.48306 111.882 5.18427 111.196 5.63107C109.792 6.5461 109.91 7.29472 111.459 7.29472C112.12 7.29472 112.389 7.10962 112.205 6.78136C111.999 6.41343 112.126 6.39656 112.653 6.72163C113.583 7.29609 114.925 6.92999 114.925 6.10158C114.925 5.75508 115.111 5.47104 115.338 5.47104C115.566 5.47104 115.752 5.7446 115.752 6.07878C115.752 7.03257 120.621 6.92361 120.855 5.96481C121 5.36983 121.039 5.38305 121.079 6.04094C121.134 6.96008 121.973 7.09047 122.698 6.2917C123.074 5.87681 123.194 5.87453 123.194 6.28212C123.194 6.87847 130.455 6.85248 131.325 6.2534C131.589 6.07058 131.901 6.17909 132.016 6.49413C132.178 6.93136 132.326 6.91038 132.645 6.40477C132.874 6.04049 132.972 5.58138 132.861 5.38396C132.751 5.187 132.949 5.1478 133.302 5.29688C133.655 5.44642 133.944 5.81025 133.944 6.10614C133.944 6.69382 134.734 6.82786 137.872 6.77315C139.009 6.75309 141.427 6.78364 143.247 6.84063C149.042 7.02254 149.399 7.00111 149.562 6.46313C149.673 6.09702 149.911 6.14353 150.338 6.61495C151.117 7.47299 153.677 7.49077 155.5 6.65051C156.705 6.09565 157.009 6.09565 157.697 6.65051C158.674 7.43834 159.526 7.51083 158.834 6.74762C158.159 6.0031 158.211 5.47104 158.958 5.47104C159.299 5.47104 159.578 5.77879 159.578 6.15492C159.578 6.53106 159.904 6.85567 160.302 6.87573C160.7 6.89625 161.584 6.96145 162.266 7.02072C162.948 7.07999 163.643 6.90947 163.81 6.64185C164.013 6.31632 164.116 6.34367 164.12 6.72482C164.124 7.0385 164.545 7.29153 165.057 7.28789C165.704 7.28287 165.824 7.16661 165.451 6.90537C165.02 6.60401 165.034 6.42073 165.525 5.97119C166.023 5.51572 166.219 5.5832 166.585 6.33638C166.853 6.88941 167.282 7.15567 167.652 6.99883C167.993 6.85476 168.502 6.94503 168.783 7.19944C169.616 7.95216 170.979 8.02328 171.712 7.35263C172.156 6.9464 172.396 6.90628 172.396 7.2391C172.396 7.7821 173.732 7.94897 174.174 7.46114C174.769 6.80507 177.734 6.84792 178.074 7.51767C178.434 8.22662 180.205 8.42267 182.85 8.04654C183.711 7.92389 184.967 7.99821 185.641 8.21112C186.315 8.42449 186.867 8.43361 186.867 8.23164C186.867 8.02967 187.332 7.86462 187.9 7.86462C188.469 7.86462 188.934 8.12268 188.934 8.43817C188.934 9.12342 190.491 9.66597 190.679 9.04591C190.75 8.80838 191.504 8.44136 192.352 8.23027C193.737 7.88605 193.896 7.94076 193.896 8.76142C193.896 9.57068 194.073 9.63907 195.446 9.3564C196.299 9.18087 196.852 9.19728 196.676 9.39287C196.213 9.90806 198.964 10.8545 199.544 10.3795C199.825 10.1492 200.135 10.1843 200.292 10.4638C200.439 10.7269 201.262 10.9421 202.12 10.9421C202.978 10.9421 203.815 11.0898 203.979 11.2703C204.442 11.781 208.511 11.7915 209.09 11.284C209.461 10.958 209.607 11.0451 209.607 11.5927C209.607 12.2022 210 12.3491 211.571 12.3249C212.651 12.308 214.16 12.427 214.925 12.5893C215.823 12.7799 216.423 12.6901 216.621 12.3354C216.857 11.9146 217.064 11.9287 217.506 12.3956C218.344 13.2805 220.228 14.1235 220.557 13.761C221.071 13.1939 222.81 13.3963 223.037 14.0501C223.214 14.5557 223.388 14.5762 223.858 14.1458C224.454 13.6001 225.496 13.9047 225.149 14.5229C224.988 14.8097 226.155 14.873 227.696 14.6606C227.98 14.6214 228.228 14.2302 228.245 13.7916C228.271 13.1538 228.326 13.131 228.519 13.6776C228.652 14.0537 229.038 14.5867 229.377 14.8621C229.716 15.1375 229.871 15.5802 229.722 15.8455C229.555 16.1441 229.752 16.2417 230.24 16.1008C230.674 15.9759 231.705 16.2276 232.532 16.6598C233.359 17.0925 234.957 17.4467 236.085 17.4467C237.213 17.4467 238.136 17.6245 238.136 17.8415C238.136 18.059 238.415 18.2368 238.756 18.2368C239.097 18.2368 239.376 18.0098 239.376 17.7321C239.376 17.4545 239.655 17.3455 239.996 17.49C240.337 17.6341 240.617 17.5534 240.617 17.3108C240.617 16.5855 241.748 16.8111 242.019 17.5903C242.39 18.6563 242.363 18.6927 241.207 18.6927C240.197 18.6927 240.179 18.7319 240.864 19.4865C241.377 20.0518 241.632 20.1189 241.754 19.719C241.869 19.3374 242.358 19.5239 243.283 20.3017C244.143 21.0252 244.906 21.3339 245.359 21.1424C245.783 20.9632 246.221 21.0991 246.433 21.4757C246.63 21.8258 247.123 22.1126 247.528 22.1126C247.934 22.113 248.289 22.3697 248.317 22.6825C248.346 22.9957 248.392 23.4243 248.421 23.6344C248.565 24.7036 252.193 25.5534 252.193 24.518C252.193 24.2116 252.483 24.4173 252.838 24.9749C253.192 25.5329 253.38 26.1707 253.256 26.3923C252.954 26.9303 253.791 27.616 255.203 27.988C255.887 28.1686 256.806 29.0166 257.477 30.0853C258.096 31.0723 258.831 31.8875 259.111 31.8971C259.391 31.9067 259.747 32.4716 259.902 33.1532C260.057 33.8343 260.527 34.7972 260.946 35.2932C261.463 35.9055 261.61 36.496 261.404 37.1324C261.237 37.6476 261.142 38.8777 261.191 39.8652C261.242 40.8532 261.005 42.1279 260.666 42.6988C260.327 43.2696 260.049 44.051 260.049 44.4363C260.049 44.8211 259.863 45.0846 259.635 45.0221C259.407 44.9592 258.985 45.4211 258.698 46.0479C258.409 46.6748 257.759 47.3902 257.251 47.6377C256.743 47.8853 256.328 48.4392 256.328 48.8687C256.328 49.2987 256.065 49.8138 255.744 50.0145C255.422 50.2151 255.097 50.9947 255.02 51.747C254.919 52.7431 254.655 53.1275 254.048 53.1612C252.955 53.2223 251.001 54.368 249.722 55.6975C249.159 56.2829 248.65 56.7165 248.59 56.6604C248.284 56.375 244.443 58.2785 243.62 59.1233C243.333 59.4187 243.097 59.9043 243.097 60.202C243.097 60.512 242.757 60.6456 242.302 60.5143C241.865 60.3885 240.93 60.672 240.225 61.1453C239.52 61.6181 238.674 62.0052 238.347 62.0052C238.019 62.0052 237.063 62.6717 236.221 63.486C235.38 64.3007 234.351 64.903 233.933 64.825C233.399 64.7252 233.174 64.9641 233.174 65.6325C233.174 66.4331 233.001 66.5338 232.073 66.2767C231.161 66.0246 231.016 66.1016 231.233 66.7239C231.408 67.2268 231.279 67.4762 230.843 67.4762C230.434 67.4762 230.28 67.2218 230.43 66.7923C230.591 66.3273 230.407 66.1084 229.854 66.1084C229.406 66.1084 229.04 66.2794 229.04 66.4882C229.04 66.6975 228.807 66.9031 228.523 66.946C223.978 67.6294 221.688 68.5941 221.518 69.8971C221.403 70.7821 221.331 70.809 220.788 70.1652C220.173 69.4362 220.153 69.4385 216.566 70.6453C215.732 70.9262 214.352 71.2544 213.5 71.3743C212.648 71.4947 211.737 71.7892 211.475 72.0286C211.214 72.2679 209.896 72.5985 208.546 72.763C207.185 72.929 205.223 73.5732 204.14 74.2106C202.571 75.1325 202.068 75.2496 201.582 74.8051C201.14 74.4007 200.755 74.3829 200.151 74.7395C199.697 75.0075 198.69 75.2268 197.914 75.2268C197.138 75.2268 195.926 75.5442 195.221 75.9322C194.432 76.3666 192.32 76.7236 189.726 76.8613C187.409 76.9844 185.192 77.2748 184.799 77.5069C184.406 77.7385 182.804 77.9615 181.238 78.0025C179.672 78.0435 177.642 78.3513 176.727 78.6868C175.812 79.0219 173.858 79.3333 172.386 79.3789C170.511 79.4373 169.417 79.7117 168.737 80.2953C167.893 81.0189 167.688 81.0426 167.172 80.4745C166.741 79.9985 166.305 79.9351 165.573 80.242C165.02 80.474 163.863 80.6477 163.003 80.6281C162.143 80.6085 161.253 80.6368 161.025 80.691C160.798 80.7458 160.026 80.7553 159.31 80.7129C158.594 80.6705 157.885 80.8552 157.735 81.1228C157.585 81.3904 157.031 81.6097 156.503 81.6097C155.976 81.6097 155.318 81.9116 155.04 82.2808C154.623 82.8343 154.44 82.8471 153.993 82.3547C153.321 81.6138 148.584 81.7985 147.71 82.5995C147.241 83.0286 147.038 83.0162 146.772 82.5412C146.518 82.0884 145.273 81.9553 141.838 82.0137C136.816 82.0989 135.191 82.5257 135.172 83.764C135.16 84.5135 135.126 84.5103 134.71 83.7206C134.347 83.0308 134.191 82.9875 133.895 83.4927C133.609 83.9828 133.48 83.9171 133.298 83.1863C133.14 82.5544 132.675 82.2225 131.851 82.1532C131.183 82.0971 130.636 82.2325 130.636 82.4546C130.636 82.6766 130.078 82.786 129.396 82.6985C128.714 82.6109 128.155 82.7254 128.155 82.9529C128.155 83.5442 126.889 83.7694 125.64 83.4006C124.837 83.163 124.452 83.2975 124.087 83.9431C123.819 84.415 123.286 84.8012 122.901 84.8012C122.357 84.8012 122.312 84.6794 122.698 84.2541C123.75 83.0942 123.177 82.75 120.293 82.8074C118.697 82.8389 117.295 82.693 117.177 82.4824C116.863 81.9216 114.993 82.9816 114.785 83.8387C114.642 84.4305 114.598 84.4104 114.559 83.7352C114.516 82.9871 114.168 82.91 111.307 83.0199C109.545 83.0874 107.69 83.303 107.187 83.4986C106.648 83.7083 106.163 83.6614 106.008 83.3851C105.863 83.1266 105.461 83.0354 105.114 83.1822C104.767 83.329 104.274 83.2702 104.019 83.0514C102.678 81.9024 100.905 82.3073 100.347 83.8893C100.155 84.4328 100.099 84.4077 100.073 83.7681C100.05 83.1977 99.709 82.9684 98.9031 82.982C98.278 82.9921 97.3068 82.9442 96.7453 82.8749C95.6203 82.7368 95.0009 84.1848 95.9179 84.8094C96.1966 84.9995 96.2971 85.3834 96.1408 85.6619C95.7307 86.3937 95.0786 86.2852 95.0786 85.4851C95.0786 85.1089 94.8859 84.8012 94.6507 84.8012C94.3675 84.8012 94.3799 84.477 94.6879 83.8424C95.1361 82.9187 95.0766 82.89 93.0481 83.0445C91.4691 83.1653 90.9436 83.0491 90.9436 82.5799C90.944 82.0752 90.8237 82.0638 90.3238 82.5216C89.9476 82.8658 89.7036 82.9023 89.7036 82.6141C89.7036 82.336 88.6324 82.1368 87.1195 82.1336C85.6985 82.1304 82.4582 82.0593 79.9199 81.9758C77.3813 81.8929 75.3905 81.979 75.4963 82.1678C75.7527 82.6246 74.4404 82.0766 73.2281 81.2199C72.524 80.723 72.0696 80.6637 71.5742 81.0043C71.1935 81.2664 70.5253 81.3166 70.0643 81.1182C68.8462 80.5935 65.7469 80.6322 63.9087 81.1953C62.6973 81.566 62.2255 81.5527 61.9948 81.1415C61.8207 80.8306 60.6424 80.5679 59.261 80.5324C57.2495 80.4809 56.6744 80.6455 55.9033 81.4958C54.746 82.7719 53.9493 82.8571 54.6439 81.6302C55.2294 80.5967 54.7791 79.8175 54.0564 80.6145C53.344 81.4 52.7126 81.276 53.3192 80.4699C53.6024 80.0938 53.7645 79.7756 53.6797 79.7628C53.5954 79.7505 52.3496 79.626 50.912 79.4865C48.5681 79.259 48.1886 79.3434 47.2359 80.3072L46.1738 81.3818L46.4466 80.128C46.7439 78.7621 46.7712 78.778 43.913 78.6444C42.9463 78.5988 42.1558 78.7493 42.1558 78.9786C42.1558 79.2079 41.8634 79.073 41.5062 78.6786C41.1486 78.2847 40.5284 77.9624 40.1277 77.9624C39.7271 77.9624 39.2806 77.8311 39.135 77.671C38.9899 77.5105 38.1679 77.3273 37.3092 77.2639C33.3429 76.9694 30.8112 76.5404 30.3043 76.0767C29.895 75.7019 29.5796 75.7288 29.0871 76.1797C28.524 76.6949 28.3404 76.6648 27.8885 75.9832C27.4874 75.3787 27.3006 75.3262 27.1377 75.7726C26.9673 76.2385 26.8429 76.2454 26.5596 75.805C26.3608 75.4963 25.7658 75.3354 25.2374 75.4475C24.7086 75.5601 23.2358 75.2487 21.964 74.7559C20.6926 74.2626 19.3195 73.9758 18.9135 74.118C18.4608 74.2763 18.1726 74.144 18.1689 73.7757C18.1639 73.3334 18.0544 73.3553 17.7521 73.8591C17.4011 74.4445 17.2382 74.398 16.6217 73.5377C16.2252 72.9851 14.8314 72.0846 13.5237 71.5366C12.2159 70.9891 11.1463 70.4055 11.1463 70.24C11.1463 70.0745 10.4951 70.0225 9.69916 70.1251C8.36865 70.2965 8.25205 70.2145 8.25205 69.1102C8.25205 68.1341 8.01431 67.8569 6.98025 67.6289C6.08263 67.4311 5.39298 66.7973 4.63593 65.4747C4.04592 64.4439 3.60724 63.5311 3.66099 63.4454C3.71516 63.3597 3.48982 63.0519 3.16029 62.7615C2.83118 62.4711 2.44542 61.0559 2.30278 59.6175C2.07537 57.3169 2.14401 56.933 2.87418 56.4302C3.33064 56.116 3.70399 55.3952 3.70399 54.8285C3.70399 54.2623 3.88137 53.7986 4.09802 53.7986C4.31467 53.7986 4.80131 53.0805 5.1788 52.2029C5.55629 51.3252 6.12356 50.6072 6.43862 50.6072C6.75367 50.6072 7.01167 50.3486 7.01167 50.0331C7.01167 49.7172 7.38379 49.2025 7.83859 48.8892C8.2934 48.576 8.66551 47.935 8.66551 47.465C8.66551 46.9771 9.04217 46.5016 9.5437 46.3571C10.2499 46.1533 10.3698 45.8756 10.156 44.936C9.89638 43.7962 10.4285 43.3129 10.9395 44.2243C11.0801 44.475 11.3501 44.6802 11.5399 44.6802C12.0538 44.6802 12.4338 43.3083 12.0881 42.7015C11.9227 42.4106 11.8405 41.8138 11.9062 41.3748C11.9715 40.9362 11.8165 40.5769 11.5614 40.5769C11.3063 40.5769 11.2091 40.7761 11.3456 41.0196C11.482 41.2631 11.1277 41.5909 10.5579 41.7486C9.98817 41.9064 9.40974 42.4252 9.27247 42.9016C9.13561 43.3785 8.84991 43.7683 8.63781 43.7683C8.4257 43.7683 8.25205 44.0182 8.25205 44.3237C8.25205 44.6291 7.75714 45.3481 7.15266 45.9212C6.54777 46.4938 5.84902 47.4239 5.60012 47.987C5.35122 48.5505 4.54745 49.3192 3.81439 49.6953C3.08008 50.0719 2.47767 50.7312 2.47271 51.1629C2.46692 51.6704 2.24489 51.8536 1.84342 51.684C1.124 51.3795 1.06198 51.9033 1.62346 53.5328C1.95506 54.4934 1.88146 54.7779 1.19843 55.1809C0.744447 55.449 0.487275 55.8717 0.627024 56.121C0.766774 56.37 0.643563 56.8893 0.353314 57.275C-0.0390593 57.7966 -0.0580782 58.1809 0.279718 58.7777C0.557977 59.2683 0.59064 59.8286 0.364891 60.2221C-0.137876 61.0979 -0.115136 63.3729 0.396314 63.3729C0.623717 63.3729 0.824659 63.9373 0.842437 64.6267C0.860216 65.316 0.968956 65.6243 1.08348 65.3106C1.3543 64.5715 1.9716 64.5715 1.91288 65.3106C1.83639 66.2726 3.41044 69.2999 3.98721 69.2999C4.28614 69.2999 4.53091 69.5885 4.53091 69.9409C4.53091 70.3435 4.81951 70.499 5.30532 70.359C5.83538 70.2063 6.36543 70.5787 6.98728 71.5416C7.48632 72.3149 8.25453 72.9472 8.69363 72.9472C9.13313 72.9472 9.49243 73.255 9.49243 73.6311C9.49243 74.0073 9.77152 74.315 10.1126 74.315C10.4537 74.315 10.7328 74.5375 10.7328 74.8088C10.7328 75.0805 10.9656 75.2086 11.2496 75.0937C11.5341 74.9788 11.7222 74.6615 11.6681 74.3884C11.6139 74.1153 11.8467 74.0091 12.1849 74.1522C12.5231 74.2954 12.8001 74.6752 12.8001 74.9957C12.8001 75.5647 15.1622 77.0505 16.0669 77.0505C16.317 77.0505 16.5212 77.2247 16.5212 77.4371C16.5212 77.6496 17.098 77.8415 17.8034 77.8639C18.5083 77.8858 19.4167 78.235 19.8219 78.6394C20.3164 79.1327 20.9143 79.2759 21.6407 79.0748C22.2758 78.8993 22.7231 78.9668 22.7231 79.238C22.7231 79.4924 23.0953 79.5932 23.5501 79.4623C24.4832 79.1929 24.6346 78.6089 23.8602 78.2642C23.5761 78.1379 23.7622 78.018 24.2736 77.9984C24.8115 77.9774 25.2039 78.2318 25.2039 78.6016C25.2039 79.363 27.5065 80.4485 28.8217 80.3072C29.3331 80.2525 29.752 80.3983 29.752 80.6318C29.752 81.3371 31.0585 81.6608 31.665 81.1059C32.1046 80.7034 32.2327 80.7449 32.2327 81.2897C32.2327 81.8213 32.8641 82.0556 34.8168 82.2489C36.2383 82.3898 37.931 82.4828 38.5793 82.4564C39.6411 82.4126 39.735 82.2818 39.5274 81.1378C39.3653 80.2447 39.4856 79.7888 39.9334 79.5991C40.8993 79.1906 41.0266 79.2645 40.7467 80.0692C40.5491 80.6373 40.6822 80.7521 41.3226 80.5675C42.3844 80.2616 42.3927 80.764 41.34 81.6006C40.5887 82.1979 40.5768 82.3128 41.1854 83.0545C41.6518 83.6226 42.0507 83.7393 42.5403 83.4507C42.9335 83.2182 43.4842 83.2118 43.8121 83.4352C44.13 83.6518 44.5232 83.7389 44.6853 83.6281C44.8478 83.5173 45.5077 83.65 46.1523 83.9231C46.7968 84.1962 48.2543 84.5112 49.3913 84.6238C50.5283 84.736 51.8076 84.9466 52.2338 85.0916C52.7387 85.263 52.9107 85.1787 52.7263 84.85C52.3021 84.0931 53.1401 84.2422 53.7326 85.0291C54.4595 85.9952 54.973 85.8776 54.973 84.7456C54.973 84.0375 55.1119 83.8975 55.4898 84.2231C55.7743 84.4683 56.6116 84.8933 57.3504 85.1673C58.6115 85.635 58.6942 85.5999 58.6942 84.6028C58.6942 83.9235 58.9923 83.4539 59.5198 83.3017C60.1694 83.1143 60.2694 83.2132 59.9891 83.7658C59.3648 84.9954 60.8644 86.1183 63.1153 86.1074C64.2085 86.1019 65.8946 86.2975 66.8625 86.5414C67.8899 86.8004 68.7172 86.8154 68.8508 86.577C68.9765 86.3527 68.8822 86.1689 68.6416 86.1689C68.401 86.1689 68.2037 86.0089 68.2037 85.8129C68.2037 85.2498 70.5452 84.4246 71.0897 84.7957C71.4122 85.0155 71.2493 85.2334 70.6163 85.4299L69.6508 85.729L70.5919 86.6016C71.7868 87.7095 77.6223 87.8722 77.9928 86.8081C78.2884 85.9587 78.9537 85.9898 78.9537 86.8528C78.9537 87.2732 79.3411 87.5367 79.9596 87.5367C80.806 87.5367 80.9602 87.3229 80.9309 86.1917C80.9056 85.2088 80.672 84.8098 80.0634 84.71C79.3374 84.5905 79.3105 84.5007 79.8554 84.006C80.3838 83.526 80.6327 83.7662 81.4741 85.5708L82.4681 87.7026L82.7025 86.3659C82.8315 85.6305 82.7927 84.5773 82.6169 84.0252C82.3689 83.2474 82.4325 83.0787 82.8993 83.2761C83.2305 83.4161 83.5046 83.7653 83.5079 84.0521C83.5117 84.3639 83.6593 84.3206 83.8755 83.945C84.3832 83.0609 85.2416 83.7836 84.9377 84.8395C84.7996 85.32 84.8724 85.713 85.0998 85.713C85.3272 85.713 85.6315 86.1233 85.7758 86.6249C85.9201 87.1264 86.3046 87.5367 86.6304 87.5367C86.9562 87.5367 87.2229 87.7419 87.2229 87.9926C87.2229 88.6004 88.7204 88.573 89.7834 87.9457C90.4379 87.5595 90.7179 87.5859 90.9903 88.0596C91.2657 88.5388 91.3463 88.4987 91.3513 87.8786C91.3587 86.9276 92.478 86.8314 93.3921 87.7031C93.7514 88.045 94.7429 88.4426 95.5954 88.5862C96.8048 88.7896 97.1459 88.6961 97.1459 88.1613C97.1459 87.4733 98.1506 87.595 99.6048 88.4581C99.9339 88.6537 100.625 88.6368 101.141 88.4203C101.703 88.1846 102.176 88.2028 102.324 88.4659C102.685 89.1092 105.317 89.0011 105.52 88.3346C105.646 87.9233 105.856 87.8987 106.278 88.2461C106.599 88.5115 107.931 88.7795 109.238 88.8424C111.338 88.9432 111.729 88.8187 112.616 87.7624L113.62 86.5683L113.755 87.6224C113.883 88.6127 114.054 88.6706 116.579 88.5776C118.057 88.5233 119.452 88.4577 119.679 88.4312C119.907 88.4052 122.633 88.5256 125.738 88.6979C131.035 88.9924 131.396 88.9596 131.582 88.1604C131.757 87.4086 131.786 87.4022 131.829 88.1066C131.871 88.8183 132.332 89.1064 133.203 88.9651C133.832 88.8625 145.793 88.351 146.864 88.3806C147.49 88.3979 148.001 88.2201 148.001 87.9853C148.001 87.7273 148.382 87.7186 148.966 87.9639C149.497 88.1864 150.178 88.2001 150.48 87.9944C150.784 87.787 151.338 87.8335 151.723 88.0988C152.155 88.3961 153.029 88.4376 154.034 88.2083C154.923 88.0054 155.82 87.8846 156.026 87.9397C156.233 87.9954 156.534 87.8034 156.697 87.5139C156.92 87.1159 157.21 87.1154 157.88 87.5107C158.369 87.7988 158.938 87.9192 159.145 87.7783C159.352 87.6375 160.686 87.4218 162.11 87.3001C163.534 87.1779 164.82 86.8633 164.967 86.6007C165.114 86.3381 165.59 86.1306 166.024 86.1402C167.112 86.1635 168.33 86.1612 169.191 86.1347C169.589 86.1224 169.915 85.8174 169.915 85.4568C169.915 85.0962 170.194 84.8012 170.535 84.8012C170.876 84.8012 171.155 85.0063 171.155 85.2571C171.155 85.5079 171.423 85.713 171.749 85.713C172.172 85.713 172.337 85.18 172.321 83.8674C172.308 82.8521 172.413 81.8947 172.553 81.7397C172.694 81.5847 172.809 81.995 172.809 82.652C172.809 83.986 173.599 86.1689 174.082 86.1689C174.857 86.1689 175.703 85.5621 175.703 85.0072C175.703 83.9805 176.625 83.7042 177.193 84.5609C177.831 85.5215 179.22 85.1486 178.86 84.1136C178.722 83.7161 178.857 83.4334 179.186 83.4334C179.496 83.4334 179.857 83.7412 179.988 84.1173C180.118 84.4934 180.65 84.7775 181.169 84.7483C181.869 84.7091 181.925 84.6416 181.388 84.487C180.548 84.2449 180.408 83.4334 181.206 83.4334C181.504 83.4334 182.108 83.7243 182.549 84.0795C183.114 84.5358 183.502 84.5864 183.868 84.2518C184.233 83.9181 184.386 83.9354 184.386 84.3102C184.386 84.6635 184.837 84.7492 185.73 84.5655C187.165 84.2696 187.651 84.1784 191.828 83.4234C193.306 83.1558 194.888 82.7486 195.343 82.5175C195.797 82.2868 196.635 82.1194 197.203 82.1459C198.681 82.2152 201.475 81.607 201.937 81.1155C202.153 80.8857 202.683 80.6979 203.114 80.6979C203.545 80.6979 204.392 80.3149 204.995 79.8462C205.743 79.2663 206.356 79.1108 206.92 79.3584C208.227 79.9333 208.775 79.8453 208.516 79.1022C208.365 78.669 208.522 78.4183 208.943 78.4183C209.308 78.4183 209.607 78.6235 209.607 78.8742C209.607 79.125 209.886 79.3301 210.227 79.3301C210.96 79.3301 210.967 79.28 210.444 77.764C210.182 77.004 210.182 76.5946 210.444 76.5946C210.666 76.5946 210.847 76.9024 210.847 77.2785C210.847 77.6546 211.204 77.9624 211.64 77.9624C212.076 77.9624 212.494 78.1611 212.57 78.4042C212.651 78.6631 213.496 78.5332 214.611 78.0905C216.05 77.5183 216.629 76.9972 216.987 75.9499L217.461 74.5658L218.091 75.5565C218.69 76.4998 218.802 76.5157 220.409 75.8902C221.339 75.5287 222.238 75.3281 222.409 75.4443C222.579 75.5601 222.635 75.1726 222.532 74.5826C222.35 73.529 223.271 72.3308 223.552 73.2577C223.63 73.5176 223.936 74.0939 224.231 74.5389C224.704 75.2528 224.958 75.2825 226.386 74.7914C227.277 74.4855 228.795 73.8431 229.759 73.3635C230.723 72.8839 231.796 72.4913 232.144 72.4913C232.492 72.4913 233.514 71.9784 234.415 71.3515C235.315 70.7246 236.321 70.2117 236.651 70.2117C236.98 70.2117 237.496 69.955 237.796 69.6418C238.096 69.3286 238.967 69.0168 239.73 68.9497C240.494 68.8823 241.512 68.5234 241.993 68.1519C242.474 67.7803 243.199 67.4762 243.603 67.4762C244.007 67.4762 244.338 67.1685 244.338 66.7923C244.338 66.4089 244.706 66.1084 245.177 66.1084C245.64 66.1084 246.125 65.8007 246.255 65.4246C246.386 65.0484 246.943 64.7407 247.493 64.7407C248.179 64.7407 248.616 64.3828 248.886 63.6009C249.27 62.4857 250.126 62.0138 250.126 62.917C250.126 63.5913 250.924 63.4705 251.632 62.689C251.973 62.3129 252.567 62.0052 252.952 62.0052C253.337 62.0052 253.835 61.5602 254.059 61.0167C254.284 60.4728 254.838 59.8063 255.291 59.535C255.745 59.2637 256.526 58.5803 257.029 58.0159C257.531 57.4519 258.091 56.9814 258.272 56.9709C258.454 56.9599 259.067 56.3071 259.636 55.5192C260.204 54.7314 261.182 53.5492 261.81 52.8927C263.33 51.2992 265.748 45.9476 264.59 46.7368C263.753 47.3072 264.047 45.1521 265.114 42.8934C265.755 41.5343 266.134 40.3034 265.956 40.1579C265.777 40.012 265.63 38.4737 265.63 36.7394C265.629 34.6253 265.459 33.5229 265.113 33.3957C264.829 33.2913 264.597 32.9375 264.597 32.6092C264.597 32.2805 264.335 31.9012 264.016 31.7662C263.696 31.6308 263.31 30.8932 263.157 30.1268C263.005 29.3604 262.708 28.6163 262.498 28.4731C262.288 28.3304 262.11 27.7637 262.102 27.2143C262.093 26.665 261.675 25.6943 261.171 25.0574C259.918 23.4712 257.155 21.2728 257.155 21.8609C257.155 22.1244 256.876 22.3401 256.535 22.3401C256.194 22.3401 255.915 22.1678 255.915 21.9576C255.915 21.7469 255.449 21.3407 254.881 21.0553C254.312 20.7694 253.843 20.1727 253.837 19.7281C253.827 18.9029 251.477 17.325 250.258 17.325C249.895 17.325 249.332 16.9657 249.008 16.5271C248.604 15.9786 248.356 15.8984 248.214 16.2709C248.074 16.6374 247.737 16.5143 247.17 15.8893C246.589 15.2483 246.028 15.0508 245.335 15.2423C244.776 15.3973 244.338 15.3171 244.338 15.06C244.338 14.3159 241.372 12.4767 239.583 12.1106C238.673 11.9246 237.738 11.5986 237.505 11.3866C236.649 10.607 232.33 9.26293 229.311 8.8371C228.366 8.70397 226.988 8.4213 226.249 8.2093C225.339 7.94851 224.905 7.98499 224.905 8.32283C224.905 8.59683 224.486 8.39486 223.975 7.87329C223.391 7.27831 222.275 6.84154 220.977 6.69975C219.84 6.57528 217.98 6.24383 216.843 5.96252C215.706 5.68168 213.698 5.37165 212.381 5.27317C211.063 5.17515 209.761 4.8975 209.486 4.65631C209.212 4.41513 207.684 4.19903 206.093 4.17577C203.241 4.13429 202.562 4.04082 201.338 3.52244C200.225 3.05148 196.376 2.85908 196.376 3.27442C196.376 3.49736 196.033 3.47685 195.613 3.22883C195.088 2.9188 194.701 2.94205 194.372 3.30405C194.012 3.70116 193.896 3.67426 193.896 3.19554C193.896 2.7337 193.754 2.77473 193.375 3.346C192.788 4.2314 191.124 4.14705 190.596 3.20557C190.37 2.80209 189.827 2.69814 188.956 2.89053C188.069 3.08567 187.741 3.01956 187.93 2.68309C188.103 2.37307 187.853 2.39723 187.26 2.74783C186.475 3.21059 186.231 3.18506 185.843 2.60057C185.423 1.96684 185.327 1.97277 184.905 2.65665C184.469 3.36378 184.433 3.36104 184.41 2.62154C184.397 2.18295 184.339 1.80499 184.283 1.78219C184.226 1.75985 182.33 1.65043 180.071 1.53964C177.811 1.4284 175.734 1.12931 175.456 0.874911C175.11 0.557591 174.858 0.575372 174.659 0.930533C174.47 1.26883 173.845 1.33448 172.865 1.11883C170.305 0.555311 168.674 0.601359 168.674 1.23737C168.674 1.5597 168.488 1.82368 168.261 1.82368C168.034 1.82368 167.894 1.59299 167.951 1.31077C168.008 1.02856 167.589 0.742238 167.021 0.674306C166.452 0.606374 165.569 0.403033 165.057 0.222033C164.353 -0.0264436 164.126 0.072947 164.126 0.630538C164.126 1.03631 164.343 1.36776 164.609 1.36776C164.874 1.36776 164.952 1.52141 164.782 1.70879C164.611 1.89663 164.238 1.69739 163.952 1.26609C163.246 0.200149 161.319 0.125378 159.634 1.09831C158.539 1.73067 158.143 1.78219 157.774 1.33949C157.419 0.915944 157.431 0.85713 157.821 1.09968C158.138 1.29709 158.338 1.1471 158.338 0.71078C158.338 0.320056 158.1 0 157.81 0C157.167 0 155.427 1.24193 154.72 2.20529C154.271 2.81804 154.203 2.77564 154.203 1.88022C154.203 1.05774 154.037 0.908649 153.376 1.1398C152.787 1.34588 152.55 1.22187 152.55 0.707588C152.55 0.179177 152.189 0.0086623 151.206 0.0715793C150.467 0.119451 149.561 0.320512 149.193 0.518838C148.825 0.717163 148.411 0.75546 148.273 0.603638C148.135 0.451361 146.316 0.268537 144.23 0.196957C141.362 0.0989343 140.201 0.237534 139.469 0.766858C138.656 1.35408 138.465 1.36457 138.28 0.832511C138.048 0.166411 136.528 0.0496949 135.673 0.632361C135.397 0.820656 135.259 1.13251 135.367 1.3249C135.475 1.5173 135.309 2.07535 134.999 2.5641C134.516 3.32275 133.141 3.60268 131.877 3.19965C131.527 3.0884 133.713 2.13097 134.098 2.22717C134.297 2.27641 134.343 1.98416 134.201 1.57703C134.06 1.17035 133.944 0.647407 133.944 0.4158C133.944 0.17097 132.6 0.106229 130.74 0.261242C126.96 0.575827 127.027 0.576739 125.571 0.19331C124.701 -0.0360178 124.434 0.0606371 124.434 0.603638C124.434 1.23281 124.305 1.23919 123.297 0.659717C121.741 -0.235711 118.647 -0.177809 117.42 0.769593C116.713 1.31533 116.376 1.38144 116.26 0.997553C116.02 0.202884 113.875 0.337381 113.236 1.18676C112.735 1.85149 112.627 1.83736 112.034 1.02992C111.48 0.275376 111.302 0.237535 110.843 0.778256ZM116.165 2.05164C116.165 2.42778 115.979 2.76105 115.752 2.79251C115.524 2.82397 115.145 2.87503 114.91 2.90649C114.674 2.93795 114.305 3.27123 114.089 3.64736C113.533 4.6171 113.553 3.40117 114.112 2.24951C114.616 1.21092 116.165 1.06184 116.165 2.05164ZM94.2517 2.93658C94.2517 3.04737 94.0656 3.26439 93.8382 3.4194C93.6108 3.57441 93.4248 3.48369 93.4248 3.21834C93.4248 2.95299 93.6108 2.73552 93.8382 2.73552C94.0656 2.73552 94.2517 2.82579 94.2517 2.93658ZM82.0728 5.43867C81.6664 6.16404 81.0115 5.57317 81.3005 4.74203C81.4597 4.28474 81.685 4.1972 81.9496 4.48899C82.1725 4.73473 82.2279 5.16193 82.0728 5.43867ZM183.146 4.78716C183.146 5.1633 182.872 5.47104 182.538 5.47104C182.169 5.47104 182.024 5.20387 182.169 4.78716C182.3 4.41103 182.573 4.10328 182.776 4.10328C182.979 4.10328 183.146 4.41103 183.146 4.78716ZM187.457 4.44522C187.252 4.63352 186.944 4.99233 186.775 5.24308C186.598 5.50341 186.463 5.35661 186.459 4.90114C186.456 4.45753 186.759 4.10328 187.142 4.10328C187.521 4.10328 187.663 4.25693 187.457 4.44522ZM80.1941 5.47104C80.1941 5.7218 80.008 5.92696 79.7806 5.92696C79.5532 5.92696 79.3671 5.7218 79.3671 5.47104C79.3671 5.22029 79.5532 5.01512 79.7806 5.01512C80.008 5.01512 80.1941 5.22029 80.1941 5.47104ZM93.3127 5.2905C93.1755 5.44186 92.8186 5.45828 92.5205 5.32652C92.1906 5.18108 92.2886 5.07302 92.7703 5.05114C93.2061 5.03154 93.45 5.13913 93.3127 5.2905ZM193.896 5.96161C193.896 6.17726 193.616 6.23608 193.275 6.09201C192.934 5.94748 192.655 5.6525 192.655 5.43639C192.655 5.22074 192.934 5.16193 193.275 5.306C193.616 5.45053 193.896 5.74551 193.896 5.96161ZM202.578 5.47104C202.578 5.7218 202.252 5.92377 201.855 5.92013C201.236 5.9142 201.221 5.84855 201.751 5.47104C202.531 4.91482 202.578 4.91482 202.578 5.47104ZM72.5451 6.38288C72.6856 6.63364 72.6034 6.8388 72.3627 6.8388C72.1221 6.8388 71.9249 6.63364 71.9249 6.38288C71.9249 6.13213 72.0067 5.92696 72.1072 5.92696C72.2077 5.92696 72.4045 6.13213 72.5451 6.38288ZM180.665 6.38288C180.665 6.63364 180.468 6.8388 180.227 6.8388C179.986 6.8388 179.904 6.63364 180.045 6.38288C180.185 6.13213 180.382 5.92696 180.482 5.92696C180.583 5.92696 180.665 6.13213 180.665 6.38288ZM190.983 7.49761C191.359 7.9973 191.375 8.20656 191.039 8.20656C190.776 8.20656 190.455 7.89882 190.324 7.52268C190.193 7.14655 189.827 6.8388 189.51 6.8388C189.193 6.8388 188.934 6.62635 188.934 6.36693C188.934 5.77651 190.222 6.48729 190.983 7.49761ZM185.514 6.65826C185.377 6.80963 185.02 6.82604 184.722 6.69428C184.392 6.54884 184.49 6.44078 184.972 6.4189C185.408 6.3993 185.652 6.50689 185.514 6.65826ZM64.3449 8.05474C63.8062 8.64835 64.0803 9.57433 64.7927 9.56749C65.3649 9.56202 65.3972 9.47721 64.9465 9.16217C64.6331 8.94333 64.5045 8.53619 64.6608 8.25763C64.9734 7.70004 64.7795 7.57557 64.3449 8.05474ZM200.812 9.39378C200.675 9.54515 200.318 9.56156 200.02 9.4298C199.69 9.28436 199.788 9.17631 200.27 9.15442C200.706 9.13482 200.95 9.24242 200.812 9.39378ZM202.165 10.0302C202.165 10.281 201.979 10.4862 201.751 10.4862C201.524 10.4862 201.338 10.281 201.338 10.0302C201.338 9.77949 201.524 9.57433 201.751 9.57433C201.979 9.57433 202.165 9.77949 202.165 10.0302ZM206.713 10.2582C206.713 10.6343 206.527 10.9421 206.299 10.9421C206.072 10.9421 205.886 10.6343 205.886 10.2582C205.886 9.88207 206.072 9.57433 206.299 9.57433C206.527 9.57433 206.713 9.88207 206.713 10.2582ZM218.29 11.1969C218.29 11.5877 218.104 11.781 217.876 11.626C217.649 11.471 217.463 11.1514 217.463 10.9152C217.463 10.679 217.649 10.4862 217.876 10.4862C218.104 10.4862 218.29 10.8062 218.29 11.1969ZM233.588 15.2733C233.588 15.6495 233.309 15.9572 232.967 15.9572C232.626 15.9572 232.347 15.6495 232.347 15.2733C232.347 14.8972 232.626 14.5894 232.967 14.5894C233.309 14.5894 233.588 14.8972 233.588 15.2733ZM247.919 19.2626C247.805 19.5763 247.711 19.3196 247.711 18.6927C247.711 18.0658 247.805 17.8096 247.919 18.1228C248.034 18.4365 248.034 18.9494 247.919 19.2626ZM53.1124 24.6197C52.9719 24.8705 53.0541 25.0756 53.2948 25.0756C53.5354 25.0756 53.7326 24.8705 53.7326 24.6197C53.7326 24.3689 53.6508 24.1638 53.5503 24.1638C53.4498 24.1638 53.253 24.3689 53.1124 24.6197ZM47.5961 26.4434C47.5961 27.0703 47.6899 27.327 47.8045 27.0133C47.9194 26.7001 47.9194 26.1871 47.8045 25.8735C47.6899 25.5603 47.5961 25.8165 47.5961 26.4434ZM38.925 26.9969C38.2808 27.7072 38.2965 28.3984 38.9514 28.1367C39.2359 28.0231 39.7821 28.231 40.1658 28.599C40.5495 28.9674 41.0609 29.1333 41.3028 28.9687C41.892 28.5671 41.8626 27.8111 41.2581 27.8111C40.9919 27.8111 40.468 27.5061 40.0947 27.1336C39.5708 26.6107 39.3033 26.5797 38.925 26.9969ZM33.364 28.9956C33.2279 29.1456 33.2163 29.5546 33.3383 29.9052C33.5161 30.4163 33.1936 30.4869 31.7105 30.2626C30.533 30.0848 29.7573 30.1687 29.5754 30.4929C29.4183 30.7733 29.4869 31.0026 29.7276 31.0026C29.9682 31.0026 30.1654 31.49 30.1654 32.0854C30.1654 32.9366 30.3866 33.1682 31.1991 33.1682C31.9272 33.1682 32.2327 32.9202 32.2327 32.3293C32.2327 31.4061 33.3842 30.553 34.1971 30.8745C34.5427 31.0112 34.6221 30.8147 34.4369 30.2822C34.2475 29.7388 34.3133 29.5901 34.6432 29.8149C34.9095 29.9964 35.1269 29.9494 35.1269 29.7105C35.1269 29.4716 34.8326 29.152 34.4729 28.9997C33.6703 28.6601 33.6678 28.6601 33.364 28.9956ZM35.9539 29.9727C35.9539 30.8134 36.7179 31.0919 37.501 30.5371C38.0873 30.1213 38.0977 30.0657 37.5548 30.2485C37.1843 30.3734 36.6729 30.2453 36.4178 29.964C36.075 29.586 35.9539 29.5883 35.9539 29.9727ZM27.0645 31.4585C26.9239 31.7093 27.0062 31.9144 27.2468 31.9144C27.4874 31.9144 27.6847 32.2053 27.6847 32.5605C27.6847 33.4965 28.6398 33.7076 29.1847 32.8919C29.5366 32.3653 29.5184 32.0475 29.1107 31.5985C28.4694 30.8909 27.4225 30.8193 27.0645 31.4585ZM24.2736 32.6845C23.8755 32.7994 23.5501 33.2635 23.5501 33.7158C23.5501 34.168 23.2363 34.82 22.8526 35.1642C22.2452 35.7086 22.1881 35.6913 22.4131 35.0297C22.5664 34.577 22.4308 34.168 22.0769 34.018C21.7503 33.8799 21.4828 33.9656 21.4828 34.2082C21.4828 34.4512 21.2037 34.6499 20.8626 34.6499C20.5215 34.6499 20.2424 34.8487 20.2424 35.0917C20.2424 35.3343 19.9823 35.4232 19.664 35.2882C18.7403 34.8975 18.6245 35.7109 19.4684 36.6674C20.151 37.4415 20.2424 37.4552 20.2424 36.7814C20.2424 36.3615 20.5215 36.0177 20.8626 36.0177C21.2037 36.0177 21.4828 36.3396 21.4828 36.7335C21.4828 37.9307 23.2673 37.3262 23.5951 36.0177C23.775 35.3005 23.8965 35.1738 23.9222 35.6758C23.9685 36.5666 24.5932 36.739 25.0195 35.978C25.1721 35.7054 25.6451 35.5828 26.0705 35.7054C26.7023 35.8873 26.7717 35.7806 26.4517 35.1209C26.2363 34.6773 26.1731 34.1895 26.3112 34.0372C26.5861 33.7335 25.6744 32.338 25.2568 32.4232C25.1138 32.4524 24.6718 32.57 24.2736 32.6845ZM26.8577 34.194C26.3277 34.5715 26.3426 34.6372 26.9611 34.6431C27.3593 34.6468 27.6847 34.4448 27.6847 34.194C27.6847 33.6378 27.6379 33.6378 26.8577 34.194ZM16.0268 37.6002C13.8983 39.1143 13.675 39.5028 14.764 39.7977C15.1618 39.9053 14.8831 39.9104 14.1439 39.8087C12.753 39.6172 12.2932 40.2651 13.467 40.7616C13.8904 40.9407 14.0558 41.3752 13.9193 41.9501C13.8011 42.4485 13.873 42.8565 14.0794 42.8565C14.2853 42.8565 14.4539 42.4462 14.4539 41.9447C14.4539 40.9508 14.7587 40.8268 15.6575 41.4541C16.3348 41.9269 17.7616 41.1126 17.7616 40.2537C17.7616 39.9263 18.0626 39.8005 18.4852 39.9505C19.0686 40.1575 19.0938 40.1173 18.615 39.743C18.1308 39.3642 18.1184 39.1499 18.5476 38.5795C18.9747 38.0124 18.9698 37.7238 18.5212 37.0499C17.9956 36.2603 17.8724 36.2872 16.0268 37.6002ZM7.63186 47.4157C7.77451 47.6701 7.46524 47.8684 6.9327 47.8648C6.16449 47.8589 6.09917 47.7713 6.59821 47.4157C7.36766 46.8677 7.32466 46.8677 7.63186 47.4157ZM249.092 59.2696C249.233 59.5204 249.047 59.7256 248.679 59.7256C248.311 59.7256 248.125 59.5204 248.266 59.2696C248.406 59.0189 248.592 58.8137 248.679 58.8137C248.766 58.8137 248.952 59.0189 249.092 59.2696ZM242 64.0764C241.865 64.4635 241.666 64.6823 241.558 64.5629C241.449 64.4434 241.483 64.1266 241.633 63.8594C242.041 63.1317 242.279 63.2731 242 64.0764ZM240.759 66.8119C240.624 67.199 240.425 67.4178 240.317 67.2984C240.209 67.1789 240.243 66.8621 240.393 66.5949C240.8 65.8673 241.039 66.0086 240.759 66.8119ZM231.107 68.388C231.107 68.6388 230.91 68.844 230.669 68.844C230.428 68.844 230.346 68.6388 230.487 68.388C230.627 68.1373 230.824 67.9321 230.925 67.9321C231.025 67.9321 231.107 68.1373 231.107 68.388ZM232.554 68.388C232.695 68.6388 232.519 68.844 232.165 68.844C231.811 68.844 231.52 68.6388 231.52 68.388C231.52 68.1373 231.695 67.9321 231.909 67.9321C232.124 67.9321 232.413 68.1373 232.554 68.388ZM205.059 77.5064C205.059 77.7572 204.873 77.9624 204.645 77.9624C204.418 77.9624 204.232 77.7572 204.232 77.5064C204.232 77.2557 204.418 77.0505 204.645 77.0505C204.873 77.0505 205.059 77.2557 205.059 77.5064ZM45.1881 81.6549C45.3774 81.8112 45.2381 82.0634 44.878 82.2156C44.4062 82.4153 44.2231 82.2202 44.2231 81.5195C44.2231 80.9842 44.3628 80.7316 44.5332 80.9587C44.7035 81.1853 44.9983 81.4989 45.1881 81.6549ZM52.3802 82.341C52.2429 82.4924 51.8861 82.5088 51.588 82.377C51.2581 82.2316 51.3561 82.1236 51.8378 82.1017C52.2735 82.0821 52.5175 82.1897 52.3802 82.341ZM153.79 84.1173C153.79 84.5103 153.417 84.8012 152.913 84.8012C152.179 84.8012 152.12 84.6886 152.55 84.1173C152.833 83.7412 153.228 83.4334 153.427 83.4334C153.627 83.4334 153.79 83.7412 153.79 84.1173ZM108.516 84.3453C108.657 84.596 108.471 84.8012 108.103 84.8012C107.735 84.8012 107.549 84.596 107.689 84.3453C107.83 84.0945 108.016 83.8893 108.103 83.8893C108.189 83.8893 108.375 84.0945 108.516 84.3453ZM92.1844 84.5176C92.1844 84.612 91.9053 84.9448 91.5642 85.2571C91.0561 85.7221 90.944 85.6907 90.944 85.0848C90.944 84.6781 91.2231 84.3453 91.5642 84.3453C91.9053 84.3453 92.1844 84.4228 92.1844 84.5176ZM119.473 84.5463C119.473 84.6571 119.287 84.8741 119.059 85.0291C118.832 85.1841 118.646 85.0934 118.646 84.8281C118.646 84.5627 118.832 84.3453 119.059 84.3453C119.287 84.3453 119.473 84.4355 119.473 84.5463ZM101.108 85.713C101.431 85.713 101.694 86.1233 101.694 86.6249C101.694 87.1264 101.588 87.5367 101.458 87.5367C100.983 87.5367 100.244 86.3732 100.155 85.4851C100.105 84.9835 100.167 84.8299 100.293 85.1431C100.419 85.4568 100.786 85.713 101.108 85.713ZM83.9152 86.6249C83.9152 87.2125 84.1244 87.5358 84.432 87.4227C84.7165 87.3183 84.9489 86.959 84.9489 86.6249C84.9489 86.2907 84.7165 85.9314 84.432 85.827C84.1244 85.7139 83.9152 86.0372 83.9152 86.6249ZM110.246 86.7106C110.114 87.0739 110.016 86.9659 109.996 86.4347C109.978 85.9542 110.076 85.6852 110.213 85.8366C110.35 85.9879 110.365 86.3814 110.246 86.7106ZM111.41 87.9926C111.551 88.2434 111.376 88.4485 111.021 88.4485C110.667 88.4485 110.377 88.2434 110.377 87.9926C110.377 87.7419 110.552 87.5367 110.766 87.5367C110.98 87.5367 111.27 87.7419 111.41 87.9926Z" fill="#E97A35"/>
</svg>
