<svg width="375" height="382" viewBox="0 0 375 382" fill="none" xmlns="http://www.w3.org/2000/svg">
<path d="M258.084 62.4455C248.66 71.3588 238.847 83.6404 225.969 87.5072C215.864 90.5108 205.054 87.8842 195.776 83.5066C175.396 73.8637 155.648 52.7783 161.728 28.4583C164.16 18.7303 176.405 6.87429 187.373 10.0359C193.003 11.6775 197.381 15.6173 202.148 18.8397C205.029 20.9264 208.342 22.3378 211.843 22.9693C215.344 23.6008 218.941 23.4362 222.37 22.4877C236.755 18.8397 243.249 11.4586 254.959 3.03173C256.059 2.1146 257.34 1.43838 258.718 1.04671C260.096 0.65505 261.541 0.556632 262.96 0.757809C266.261 1.02833 269.427 2.19275 272.116 4.12612C274.817 5.42194 277.153 7.36927 278.914 9.79269C282.562 15.0458 282.124 23.5092 282.562 29.6256C283 35.7421 281.577 40.0832 277.09 44.4608C270.779 50.5652 264.407 56.4506 258.084 62.4455Z" fill="#263238"/>
<path d="M254.509 67.6503C262.62 58.9194 270.56 50.0548 278.55 41.2266C278.55 41.2266 278.55 41.0929 278.477 41.1415C271.691 48.2186 264.809 55.1863 258.109 62.3486C251.408 69.5108 245.243 77.0378 238.105 83.4583C222.042 97.8679 200.884 86.8023 189.696 72.2225C189.186 71.5658 188.189 72.4535 188.724 73.098C198.95 85.5985 215.719 96.579 232.171 88.7966C241.182 84.6135 247.87 74.7761 254.509 67.6503Z" fill="#263238"/>
<path d="M256.454 3.14073C256.624 2.99481 256.393 2.73945 256.211 2.88537C246.872 10.1814 236.67 19.6662 224.437 21.3078C218.408 22.1094 212.278 21.0665 206.853 18.3164C202.561 16.1398 199.35 12.662 195.617 9.73144C181.025 -1.72328 162.262 14.2185 163.649 30.5129C163.649 30.8534 164.269 30.8169 164.257 30.5129C163.782 18.6082 172.003 7.40888 184.467 6.72792C194.474 6.1564 200.275 16.6626 208.896 20.1039C226.893 27.3148 243.637 14.6441 256.454 3.14073Z" fill="#263238"/>
<path d="M245.022 116.059C243.453 124.738 240.269 133.045 235.634 140.549C215.436 173.077 173.557 226.265 164.012 241.1C146.647 268.156 64.786 322.949 64.786 322.949L39.25 283.271C39.25 283.271 117.573 213.57 118.57 211.758C124.248 201.471 169.35 135.478 169.471 133.362C170.566 111.718 189.304 93.125 189.304 93.125L245.022 116.059Z" fill="#263238"/>
<path d="M245.012 116.059C243.611 123.944 240.864 131.529 236.889 138.482C210.404 140.221 179.64 133.144 169.656 130.614C172.137 110.149 189.307 93.125 189.307 93.125L245.012 116.059Z" fill="#455A64"/>
<path d="M26.8852 381.05C24.8788 379.043 -0.0735472 307.591 0.279093 304.138C0.279093 303.542 9.20452 299.809 23.7722 294.069C24.7815 293.668 96.9268 229.889 96.9268 229.889L131.303 277.811L41.0394 339.608C41.0394 339.608 36.3456 370.008 35.5431 373.741C34.7405 377.475 28.8916 383.056 26.8852 381.05Z" fill="#263238"/>
<path opacity="0.3" d="M131.304 277.811L118.889 286.323L85.2422 240.261L96.9279 229.938L131.304 277.811Z" fill="white"/>
<path opacity="0.1" d="M131.316 277.811L88.9629 306.788L89.2183 236.71C93.9607 232.515 96.9398 229.9 96.9398 229.9L131.316 277.811Z" fill="black"/>
<path opacity="0.1" d="M171.284 139.053C167.993 145.068 164.56 150.998 160.985 156.843C157.446 162.704 153.786 168.492 150.101 174.268C146.417 180.044 142.623 185.735 138.744 191.377C134.865 197.019 130.937 202.637 126.693 208.049L131.861 199.16C133.612 196.205 135.363 193.262 137.151 190.344C140.702 184.495 144.374 178.719 148.095 172.955C151.816 167.191 155.573 161.476 159.428 155.821C163.283 150.167 167.198 144.561 171.284 139.053Z" fill="white"/>
<path d="M146.37 266.271L140.107 219.589C140.107 219.589 214.101 197.64 215.998 193.432C216.752 191.791 168.781 160.26 169.255 124.947C169.498 107.315 189.027 93.1367 189.027 93.1367L233.533 111.742C233.533 111.742 227.173 127.258 229.131 129.872C233.375 135.563 289.201 179.728 286.064 207.465C282.805 236.211 146.37 266.271 146.37 266.271Z" fill="#263238"/>
<path d="M229.13 129.848C208.775 122.893 185.926 131.064 171.285 138.36C169.914 134.035 169.229 129.522 169.255 124.984C169.498 107.352 189.027 93.1738 189.027 93.1738L233.545 111.779C233.545 111.779 227.185 127.173 229.13 129.848Z" fill="#455A64"/>
<path d="M213.494 117.068C216.699 118.289 219.66 120.072 222.237 122.334C223.543 123.433 224.782 124.611 225.946 125.86C227.108 127.106 228.173 128.44 229.132 129.849C226.517 127.672 224.037 125.41 221.459 123.258C220.182 122.176 218.881 121.13 217.556 120.096C216.23 119.063 214.905 118.029 213.494 117.068Z" fill="#263238"/>
<path d="M221.592 119.537C222.585 119.907 223.501 120.46 224.291 121.167C225.094 121.858 225.813 122.641 226.431 123.501C227.662 125.226 228.451 127.226 228.73 129.326C228.134 128.45 227.635 127.563 227.088 126.712C226.541 125.86 226.006 125.021 225.434 124.207C224.268 122.559 222.984 120.998 221.592 119.537Z" fill="#263238"/>
<path d="M216.057 193.408C217.706 194.009 219.278 194.805 220.738 195.779C222.207 196.736 223.609 197.792 224.933 198.941C226.255 200.08 227.506 201.298 228.679 202.589C229.849 203.89 230.922 205.276 231.889 206.736C229.238 204.437 226.745 202.078 224.143 199.829C222.854 198.698 221.529 197.603 220.191 196.521C218.853 195.439 217.443 194.405 216.057 193.408Z" fill="#37474F"/>
<path d="M171.285 138.336C171.965 140.64 172.869 142.872 173.985 145C174.508 146.082 175.079 147.14 175.651 148.198C176.222 149.256 176.867 150.277 177.487 151.286C178.107 152.296 178.764 153.317 179.432 154.314L181.463 157.281C182.91 159.202 184.309 161.148 185.853 162.996C188.808 166.79 192.079 170.292 195.338 173.843L200.384 178.999C202.099 180.689 203.85 182.343 205.552 184.045C203.704 182.501 201.904 180.896 200.068 179.327L194.827 174.33C191.404 170.905 188.157 167.31 185.099 163.556C182.049 159.8 179.285 155.821 176.83 151.651C174.319 147.519 172.449 143.029 171.285 138.336Z" fill="#37474F"/>
<path opacity="0.1" d="M186.717 97.9883C183.686 101.571 181.203 105.583 179.348 109.893C177.479 114.124 176.375 118.653 176.089 123.269C175.863 127.849 176.579 132.426 178.193 136.718C179.016 138.858 180.004 140.932 181.147 142.919C182.278 144.95 183.506 146.932 184.795 148.866C187.385 152.748 190.195 156.479 193.21 160.041C196.201 163.689 199.387 167.081 202.646 170.462C205.905 173.842 209.31 177.089 212.776 180.251C216.241 183.412 219.804 186.525 223.44 189.529C215.57 184.266 208.17 178.335 201.321 171.799C194.377 165.323 188.162 158.105 182.789 150.276C181.468 148.298 180.227 146.272 179.068 144.196C177.877 142.09 176.86 139.89 176.028 137.618C174.385 133.02 173.758 128.12 174.192 123.257C175.244 113.617 179.682 104.663 186.717 97.9883Z" fill="white"/>
<path d="M96.8054 305.524C95.6867 302.909 99.1279 227.311 100.757 224.234C101.025 223.699 110.643 223.541 126.293 223.638C127.388 223.638 198.499 200.072 198.499 200.072L223.355 249.369L125.394 272.339C125.394 272.339 109.731 298.787 107.591 301.973C105.451 305.159 97.9241 308.126 96.8054 305.524Z" fill="#263238"/>
<path opacity="0.3" d="M223.353 249.369L207.801 253.017L185.086 204.523L198.498 200.133L223.353 249.369Z" fill="white"/>
<path d="M248.89 63.4178C261.889 91.2521 279.4 117.408 288.714 118.661C301.251 120.339 329.462 110.465 343.629 103.996C347.787 102.087 332.32 69.9478 327.821 72.0149C322.434 74.4469 294.806 87.6041 294.21 87.677C292.994 87.8351 266.242 64.719 259.968 59.0402C249.559 49.5554 243.102 51.0633 248.89 63.4178Z" fill="#AD6359"/>
<path d="M364.411 93.1862C358.939 98.4758 343.508 104.896 339.191 105.018C334.875 105.139 323.067 79.263 325.098 75.3353C327.129 71.4076 346.986 55.0403 354.72 54.335C362.453 53.6297 370.053 87.702 364.411 93.1862Z" fill="#AD6359"/>
<path d="M343.047 57.8606C342.014 61.7518 347.194 60.7425 347.194 60.7425C347.194 60.7425 340.08 64.0014 340.567 68.4277C341.053 72.8539 347.267 71.2609 347.717 71.1637C347.34 71.3339 340.883 74.4955 341.831 78.8974C342.78 83.2993 348.823 80.9525 349.213 80.7944C348.909 81.0619 344.981 84.795 346.452 87.9809C349.006 93.4408 359.318 84.187 364.182 84.6491C364.182 84.6491 364.327 92.9787 364.376 93.2219C364.376 93.2219 374.372 84.6126 374.639 78.0219C374.691 77.0631 374.415 76.1153 373.855 75.3348C373.296 74.5544 372.487 73.9881 371.563 73.7294C371.563 73.7294 375.089 71.2974 374.457 67.8197C374.128 66.0321 370.967 64.9742 370.967 64.9742C371.737 64.3761 372.327 63.5772 372.672 62.6655C373.018 61.7537 373.105 60.7644 372.925 59.8062C372.329 57.3742 369.277 56.6811 369.277 56.6811C369.277 56.6811 370.991 53.483 369.568 51.1726C366.699 46.5153 345.261 49.4702 343.047 57.8606Z" fill="#AD6359"/>
<path d="M368.8 56.4989C368.816 56.4989 368.832 56.4925 368.843 56.4811C368.855 56.4697 368.861 56.4542 368.861 56.4381C368.861 56.422 368.855 56.4065 368.843 56.3951C368.832 56.3837 368.816 56.3773 368.8 56.3773C361.232 55.579 353.599 57.097 346.912 60.7306C346.693 60.8522 346.803 61.2413 347.058 61.1562C354.042 58.559 361.366 56.9902 368.8 56.4989Z" fill="#263238"/>
<path d="M371.061 64.8787C371.146 64.8787 371.134 64.7328 371.061 64.7206C362.705 63.9156 354.337 66.1284 347.471 70.9587C347.228 71.1289 347.203 71.5302 347.471 71.3478C352.25 68.2835 364.081 65.2435 371.061 64.8787Z" fill="#263238"/>
<path d="M348.845 81.2817C355.606 76.6244 363.182 74.6059 371.256 73.6452C371.353 73.6452 371.329 73.4872 371.256 73.475C367.17 72.867 362.087 74.01 358.208 75.2382C354.588 76.3105 351.31 78.31 348.699 81.0385C348.602 81.148 348.711 81.379 348.845 81.2817Z" fill="#263238"/>
<path d="M347.192 60.707C345.902 61.4613 344.681 62.328 343.544 63.2971C342.389 64.1978 341.495 65.3898 340.954 66.7506C340.743 67.3877 340.774 68.0798 341.039 68.6962C341.309 69.3077 341.727 69.8425 342.255 70.2526C342.829 70.6117 343.472 70.845 344.143 70.9373C344.814 71.0295 345.496 70.9785 346.146 70.7877L349.356 69.9973L346.62 71.8577C345.393 72.6714 344.308 73.6821 343.41 74.8491C342.965 75.3644 342.634 75.9673 342.437 76.6187C342.24 77.2701 342.182 77.9556 342.267 78.6309C342.344 79.2677 342.639 79.8581 343.102 80.3015C343.566 80.745 344.169 81.0141 344.808 81.0629C346.229 81.1363 347.644 80.8432 348.918 80.2117L352.493 78.5336L349.648 81.1966C348.858 81.9432 348.164 82.7846 347.581 83.7016C346.994 84.5489 346.676 85.5531 346.669 86.5835C346.683 87.0468 346.825 87.4971 347.081 87.8837C347.337 88.2704 347.695 88.5781 348.116 88.7723C349.12 89.0652 350.188 89.0652 351.192 88.7723C353.38 88.1671 355.519 87.3947 357.588 86.4619C358.646 86.0363 359.704 85.5986 360.799 85.2459C361.866 84.791 363.019 84.5712 364.179 84.6014C363.039 84.7012 361.928 85.0191 360.908 85.5377C359.875 85.9998 358.853 86.5227 357.819 87.0334C355.777 88.1287 353.635 89.0284 351.423 89.7208C350.243 90.108 348.976 90.146 347.775 89.8302C347.131 89.585 346.573 89.1557 346.171 88.5957C345.769 88.0357 345.54 87.3697 345.514 86.6808C345.484 85.3869 345.849 84.1147 346.559 83.0328C347.187 82.0014 347.943 81.0536 348.809 80.2117L349.551 81.2817C348.049 82.0498 346.372 82.4104 344.687 82.3275C343.771 82.2469 342.912 81.8516 342.255 81.2088C341.61 80.5416 341.186 79.6927 341.039 78.7768C340.926 77.9212 340.997 77.0515 341.246 76.2255C341.496 75.3994 341.918 74.6359 342.486 73.9857C343.49 72.7168 344.698 71.6237 346.061 70.7512L346.535 71.8213C345.72 72.0235 344.871 72.0468 344.046 71.8893C343.221 71.7319 342.439 71.3975 341.756 70.9093C341.109 70.3764 340.61 69.6852 340.309 68.9029C340.014 68.119 340.014 67.2547 340.309 66.4709C340.968 65.0388 342.012 63.818 343.325 62.9445C344.525 62.0543 345.822 61.3036 347.192 60.707Z" fill="#263238"/>
<path d="M327.932 71.9553C327.932 71.9553 340.469 42.1877 349.698 52.7912C352.446 55.9406 359.949 72.1499 356.727 73.7307C352.556 75.7493 348.215 69.572 346.026 65.2187C346.026 65.2187 343.18 75.9438 335.082 76.1627C333.619 76.1819 332.179 75.7999 330.919 75.0581C329.658 74.3163 328.625 73.2432 327.932 71.9553Z" fill="#AD6359"/>
<path d="M348.929 51.9648C350.151 53.0692 351.204 54.3476 352.054 55.7588C352.962 57.1489 353.775 58.5993 354.486 60.0999C355.926 63.0798 357.102 66.1804 358 69.3658C358.236 70.2129 358.35 71.089 358.341 71.9681C358.332 72.4745 358.212 72.9729 357.988 73.4273C357.865 73.6728 357.705 73.8983 357.514 74.0961C357.318 74.292 357.087 74.4488 356.833 74.5581C355.936 74.9795 354.918 75.0657 353.963 74.8013C353.088 74.5407 352.265 74.1292 351.531 73.5853C350.171 72.5383 348.999 71.2677 348.066 69.8279C347.146 68.449 346.333 67.0018 345.634 65.4989L346.692 65.3773C346.326 66.5879 345.846 67.7606 345.257 68.8794C344.679 69.9956 343.991 71.0508 343.202 72.0288C342.403 73.0007 341.464 73.849 340.417 74.546C339.378 75.2344 338.219 75.7211 337 75.9808C338.149 75.5739 339.221 74.978 340.174 74.2176C341.1 73.4562 341.918 72.5726 342.606 71.5911C343.3 70.6129 343.898 69.5705 344.393 68.4781C344.9 67.3945 345.307 66.2671 345.609 65.1098L345.95 63.6749L346.667 64.9882C347.421 66.4048 348.262 67.7734 349.184 69.0861C350.024 70.3614 351.058 71.4978 352.249 72.4545C353.465 73.3057 354.997 73.8772 356.128 73.3056C357.259 72.7341 356.979 71.1047 356.638 69.6576C356.266 68.0904 355.812 66.5439 355.276 65.0247C354.754 63.4804 354.219 61.9482 353.611 60.4404C352.499 57.3896 350.919 54.5303 348.929 51.9648Z" fill="#263238"/>
<path d="M308.013 80.649L319.176 116.144C319.176 116.144 293.798 121.92 286.161 118.199C278.525 114.478 258.801 88.1761 250.241 68.5741C241.68 48.9722 248.246 47.2941 264.468 61.7524C280.689 76.2106 293.652 86.5345 294.236 86.3642C294.819 86.194 308.013 80.649 308.013 80.649Z" fill="#384C6D"/>
<path d="M302.491 85.0631C302.491 84.9537 302.272 85.0023 302.297 85.0631C304.325 95.436 306.918 105.69 310.067 115.779C310.067 115.889 310.286 115.84 310.262 115.779C308.234 105.406 305.64 95.1524 302.491 85.0631Z" fill="#263238"/>
<path opacity="0.1" d="M273.89 106.245C265.451 95.9092 255.65 80.9159 250.238 68.5492C243.295 52.7412 246.286 48.5581 256.318 55.234L273.89 106.245Z" fill="black"/>
<path d="M249.146 102.354L245.024 116.059L230.006 121.762L189.307 93.125C189.307 93.125 211.547 54.213 235.819 47.0872C247.979 43.5122 256.223 49.2882 258.388 58.165C258.923 60.4146 263.434 81.9621 260.151 91.3983C259.202 93.9026 257.73 96.1755 255.832 98.0649C253.934 99.9543 251.654 101.417 249.146 102.354Z" fill="#384C6D"/>
<path d="M233.46 92.5784C235.86 93.672 238.148 94.9955 240.294 96.5304C241.364 97.3208 242.385 98.172 243.394 99.0718C243.905 99.5096 244.416 99.923 244.939 100.349C245.46 100.793 246.046 101.154 246.678 101.419C246.738 101.419 246.678 101.552 246.678 101.54C246.06 101.389 245.458 101.181 244.878 100.92C244.313 100.639 243.775 100.305 243.273 99.923C242.178 99.1448 241.133 98.2814 240.038 97.491C237.862 95.8737 235.673 94.2565 233.375 92.8581C233.229 92.7851 233.338 92.5297 233.46 92.5784Z" fill="#263238"/>
<path d="M226.42 93.5878C228.544 93.9429 230.638 94.4592 232.683 95.1321C233.701 95.4839 234.699 95.8898 235.674 96.3481L237.06 97.0413C237.571 97.2966 238.033 97.6492 238.544 97.9046C238.605 97.9046 238.544 98.0384 238.544 98.0141C238.057 97.8073 237.522 97.6979 237.024 97.5155L235.504 96.9805C234.495 96.6278 233.473 96.2752 232.476 95.9104C230.457 95.1686 228.439 94.4633 226.396 93.8067C226.238 93.7824 226.311 93.5635 226.42 93.5878Z" fill="#263238"/>
<path opacity="0.1" d="M247.785 88.286L235.783 70.5932L236.817 64.5254L259.775 74.4358V78.3148L247.785 88.286Z" fill="black"/>
<path opacity="0.1" d="M247.785 86.3634L237.729 71.5404L238.58 66.4453L257.841 74.7506V77.9973L247.785 86.3634Z" fill="black"/>
<path d="M232.632 43.0865C202.524 39.7425 178.192 43.4269 171.941 49.6285C166.773 54.7722 149.92 77.8884 142.259 92.2858C140.119 96.3351 172.136 115.39 173.875 110.769C176.574 103.692 196.018 70.1546 196.249 69.5953C196.724 68.3792 228.388 59.4538 236.377 57.4353C251.225 53.8845 248.598 44.8618 232.632 43.0865Z" fill="#AD6359"/>
<path d="M147.353 147.846C146.275 147.567 145.309 146.966 144.583 146.122C143.858 145.279 143.407 144.234 143.291 143.128C141.515 143.768 139.571 143.768 137.795 143.128C134.73 141.827 135.424 136.452 135.424 136.452C133.436 136.714 131.416 136.375 129.623 135.479C126.814 133.947 126.741 128.414 126.741 128.414C124.785 127.655 123.167 126.218 122.181 124.365C119.749 119.294 124.334 112.059 127.203 107.414C130.073 102.769 142.561 92.3234 144.738 90.0859L174.713 108.156C174.713 108.156 167.757 132.609 163.598 137.583C160.048 141.766 151.499 148.697 147.353 147.846Z" fill="#AD6359"/>
<path d="M143.902 143.151C148.693 139.588 152.159 134.809 155.892 130.225C155.977 130.128 155.819 129.994 155.734 130.103C152.086 134.7 147.55 138.506 143.707 142.944C143.598 143.066 143.78 143.248 143.902 143.151Z" fill="#263238"/>
<path d="M135.875 136.487C136.885 135.575 137.768 134.532 138.502 133.386C139.353 132.17 140.192 131.052 141.007 129.872C142.636 127.44 144.217 125.069 145.725 122.576C145.785 122.467 145.639 122.333 145.567 122.454C143.937 124.814 142.271 127.16 140.532 129.459C139.673 130.602 138.797 131.745 137.906 132.888C137.002 133.903 136.215 135.017 135.559 136.207C135.522 136.249 135.503 136.304 135.506 136.36C135.51 136.416 135.535 136.468 135.577 136.505C135.619 136.542 135.674 136.561 135.73 136.558C135.786 136.555 135.838 136.529 135.875 136.487Z" fill="#263238"/>
<path d="M126.815 128.219C127.715 127.381 128.463 126.393 129.028 125.301C129.758 124.206 130.475 123.112 131.217 122.017C132.676 119.841 134.147 117.652 135.692 115.524C135.765 115.427 135.607 115.293 135.534 115.402C133.953 117.555 132.348 119.695 130.791 121.859C130.025 122.929 129.259 123.987 128.505 125.069C127.727 125.984 127.117 127.03 126.705 128.158C126.681 128.219 126.766 128.255 126.815 128.219Z" fill="#263238"/>
<path d="M183.677 95.094L151.611 74.3976C151.611 74.3976 165.826 50.26 173.232 46.1256C180.637 41.9912 210.417 40.1429 231.6 42.7938C253.172 45.4933 253.062 54.1148 231.928 59.1733C210.794 64.2319 196.98 69.4242 196.798 69.9957C196.615 70.5672 183.677 95.094 183.677 95.094Z" fill="#384C6D"/>
<path d="M186.011 91.3857C187.895 88.0052 196.955 70.1786 197.21 70.057C197.733 69.8017 205.929 66.9198 208.361 66.0686C210.428 65.339 212.507 64.6459 214.587 63.9649C216.301 63.8068 218.016 63.6487 219.706 63.3326C219.732 63.3326 219.756 63.3223 219.775 63.3041C219.793 63.2858 219.803 63.2611 219.803 63.2353C219.803 63.2095 219.793 63.1848 219.775 63.1665C219.756 63.1483 219.732 63.138 219.706 63.138C218.521 63.1608 217.339 63.2624 216.167 63.442C218.453 62.7002 220.739 61.9706 223.013 61.2167C223.013 61.2167 223.013 61.1316 223.013 61.1438C217.918 62.2868 196.809 68.8897 196.736 69.1815C196.663 69.4734 185.925 90.5953 185.792 91.0695C185.755 91.2033 185.95 91.483 186.011 91.3857Z" fill="#263238"/>
<path d="M184.734 85.8284C184.831 85.8892 184.929 85.7189 184.831 85.6581C176.171 79.6056 167.187 74.0281 157.921 68.9503C157.898 68.943 157.873 68.9438 157.85 68.9525C157.827 68.9612 157.808 68.9774 157.795 68.9984C157.782 69.0195 157.777 69.0442 157.78 69.0685C157.783 69.0929 157.794 69.1155 157.812 69.1327C166.474 75.1856 175.462 80.7592 184.734 85.8284Z" fill="#263238"/>
<path d="M236.307 43.5371C236.307 43.5371 241.803 63.443 249.999 65.6075C258.195 67.772 261.636 59.3086 261.636 59.3086C261.636 59.3086 252.175 45.3611 236.307 43.5371Z" fill="#AD6359"/>
<path d="M245.886 47.999C245.716 49.2758 248.44 59.0767 253.924 60.8764C255.712 61.4601 259.323 51.8415 259.323 51.8415L259.761 51.1849L265.756 42.1014L256.94 30.1724L255.627 28.543C255.627 28.543 254.143 31.1331 252.343 34.3798L252.088 34.8418C251.978 35.0149 251.876 35.1934 251.784 35.3769C251.504 35.8511 251.225 36.3497 250.957 36.8483C250.69 37.3468 250.544 37.59 250.349 37.9913L249.717 39.2073C248.247 42.0499 246.967 44.9869 245.886 47.999Z" fill="#AD6359"/>
<path d="M252.344 34.3798C252.282 37.552 252.914 40.6995 254.195 43.6021C255.477 46.5048 257.376 49.0927 259.762 51.1849L265.756 42.1014L256.94 30.1724L255.627 28.543C255.627 28.543 254.144 31.1087 252.344 34.3798Z" fill="#263238"/>
<path d="M285.189 25.1256C286.843 44.1682 275.631 47.3055 271.521 47.6581C267.788 47.9864 255.057 48.6066 251.433 29.8316C247.809 11.0565 256.139 4.29556 264.627 3.07956C273.114 1.86356 283.523 6.07092 285.189 25.1256Z" fill="#AD6359"/>
<path d="M276.044 34.7573C275.581 35.5868 274.916 36.2854 274.11 36.788C273.659 37.0405 273.142 37.1507 272.627 37.1042C271.508 36.9826 271.326 35.9977 271.411 35.11C271.449 34.6453 271.547 34.1875 271.703 33.748C273.007 34.5337 274.526 34.8869 276.044 34.7573Z" fill="#263238"/>
<path d="M274.11 36.8006C273.659 37.053 273.142 37.1633 272.627 37.1167C271.508 36.9951 271.326 36.0102 271.411 35.1225C271.984 35.0603 272.561 35.1918 273.05 35.4959C273.539 35.8001 273.913 36.2594 274.11 36.8006Z" fill="#FF9BBC"/>
<path d="M279.668 22.464C279.242 22.6099 278.816 22.6828 278.391 22.7923C277.955 22.9692 277.474 23.0033 277.017 22.8895C276.881 22.8225 276.771 22.7119 276.705 22.5753C276.639 22.4387 276.62 22.284 276.652 22.1356C276.752 21.8539 276.925 21.6039 277.154 21.4115C277.382 21.2191 277.658 21.0912 277.953 21.0412C278.541 20.8535 279.177 20.8881 279.741 21.1385C279.864 21.2035 279.967 21.3027 280.036 21.4244C280.105 21.5461 280.138 21.685 280.13 21.8247C280.122 21.9644 280.075 22.0989 279.993 22.2122C279.911 22.3256 279.798 22.4129 279.668 22.464Z" fill="#263238"/>
<path d="M266.486 23.2777C266.9 23.1296 267.306 22.9591 267.702 22.767C268.159 22.6479 268.561 22.3779 268.845 22.0009C268.914 21.8672 268.936 21.7139 268.908 21.5661C268.879 21.4182 268.801 21.2844 268.687 21.1862C268.436 21.0219 268.145 20.9284 267.846 20.9156C267.546 20.9027 267.249 20.971 266.985 21.1132C266.394 21.3328 265.907 21.767 265.623 22.3292C265.579 22.4533 265.571 22.5867 265.597 22.7154C265.623 22.8441 265.684 22.9632 265.772 23.0604C265.86 23.1575 265.973 23.229 266.099 23.2672C266.225 23.3055 266.358 23.3091 266.486 23.2777Z" fill="#263238"/>
<path d="M269.235 26.9258C269.235 26.9258 269.137 26.9987 269.15 27.0474C269.332 28.3363 269.332 29.8442 268.201 30.4035C268.201 30.4035 268.201 30.4887 268.201 30.4765C269.636 30.1239 269.563 28.1175 269.235 26.9258Z" fill="#263238"/>
<path d="M267.933 25.7099C265.829 25.7829 266.133 29.9659 268.079 29.9051C270.024 29.8443 269.684 25.637 267.933 25.7099Z" fill="#263238"/>
<path d="M267.133 25.99C266.792 26.2454 266.464 26.6953 266.014 26.7683C265.564 26.8412 265.09 26.4399 264.737 26.0508H264.664C264.664 26.8534 265.077 27.6559 265.953 27.7167C266.829 27.7775 267.254 27.0115 267.4 26.1967C267.412 26.0873 267.266 25.8806 267.133 25.99Z" fill="#263238"/>
<path d="M277.223 25.7715C277.223 25.7715 277.32 25.7715 277.32 25.8688C277.32 27.182 277.636 28.6656 278.84 29.0182V29.0912C277.381 28.9817 277.052 27.0118 277.223 25.7715Z" fill="#263238"/>
<path d="M278.294 24.3349C280.373 24.0431 280.799 28.214 278.878 28.4936C276.956 28.7733 276.543 24.5781 278.294 24.3349Z" fill="#263238"/>
<path d="M279.19 24.5193C279.543 24.7017 279.908 25.0787 280.309 25.0665C280.71 25.0544 281.063 24.5558 281.306 24.0938C281.306 24.0938 281.306 24.0938 281.379 24.0938C281.476 24.8963 281.306 25.7475 280.552 25.9785C279.798 26.2096 279.275 25.5651 279.008 24.7625C278.959 24.6774 279.044 24.4464 279.19 24.5193Z" fill="#263238"/>
<path d="M276.092 32.0333C276.092 32.0333 276.529 33.9546 276.602 34.8666C276.602 34.9517 276.396 35.0125 276.079 35.049C275.312 35.2656 274.5 35.2668 273.732 35.0523C272.964 34.8378 272.27 34.4159 271.726 33.833C271.653 33.7601 271.726 33.6506 271.86 33.6993C273.092 34.3961 274.516 34.6775 275.921 34.5018C275.921 34.2465 275.07 31.2429 275.216 31.2308C275.931 31.2334 276.643 31.3315 277.332 31.5226C276.542 27.5098 275.131 23.6551 274.413 19.6423C274.413 19.4964 274.596 19.4356 274.645 19.5572C276.281 23.6481 277.503 27.8929 278.293 32.2279C278.414 32.69 276.469 32.1549 276.092 32.0333Z" fill="#263238"/>
<path d="M253.062 30.7203C256.162 30.7203 256.369 24.2025 256.369 24.2025C256.369 24.2025 262.632 23.7526 264.018 14.584C264.044 17.2989 263.275 19.9621 261.805 22.2447C261.805 22.2447 272.749 20.2262 276.701 10.6441C276.701 10.6441 275.205 15.5081 273.6 17.2956C276.338 16.225 278.631 14.2573 280.106 11.7142C280.106 11.7142 282.44 16.9065 284.033 18.2563C284.033 18.2563 282.112 -1.01733 264.37 2.44827C264.37 2.44827 253.232 4.04123 249.876 13.222C246.52 22.4028 253.062 30.7203 253.062 30.7203Z" fill="#263238"/>
<path d="M255.213 30.7807C255.213 30.7807 251.322 24.6156 248.549 25.9167C245.777 27.2178 248.549 36.0581 251.614 37.3957C252.002 37.5946 252.427 37.7127 252.863 37.743C253.298 37.7733 253.735 37.7151 254.148 37.572C254.56 37.4288 254.939 37.2037 255.263 36.91C255.586 36.6164 255.846 36.2605 256.028 35.8636L255.213 30.7807Z" fill="#AD6359"/>
<path d="M249.39 28.4824C249.39 28.4824 249.33 28.4824 249.39 28.5676C251.567 29.5647 252.649 31.6927 253.367 33.8693C253.247 33.6406 253.079 33.4404 252.875 33.2823C252.67 33.1243 252.434 33.012 252.183 32.9532C251.931 32.8943 251.67 32.8903 251.417 32.9414C251.164 32.9925 250.925 33.0974 250.716 33.2491C250.655 33.2491 250.716 33.3829 250.777 33.3707C251.174 33.2681 251.594 33.29 251.979 33.4335C252.364 33.5771 252.695 33.8353 252.929 34.1733C253.318 34.7425 253.64 35.3545 253.889 35.9973C253.987 36.1919 254.352 36.1067 254.279 35.8757C254.449 32.9816 252.43 28.908 249.39 28.4824Z" fill="#263238"/>
<path d="M247.564 45.1903C246.908 42.9407 243.916 47.1845 245.57 50.0543C248.002 54.286 252.939 59.5513 254.082 59.7093C255.225 59.8674 259.737 55.502 260.32 54.5049C260.904 53.5077 260.113 51.0149 259.712 51.1973C259.311 51.3797 255.371 56.1343 254.848 56.3167C254.325 56.4991 248.987 50.0421 247.564 45.1903Z" fill="#455A64"/>
</svg>
