<svg width="120" height="107" viewBox="0 0 120 107" fill="none" xmlns="http://www.w3.org/2000/svg">
<path d="M34.1533 35L39.4267 0H12L0.54 30C0.186666 31.0667 0 32.1733 0 33.3333C0 40.6933 7.66667 46.6667 17.14 46.6667C25.8733 46.6667 33.0933 41.5733 34.1533 35ZM60 46.6667C69.4667 46.6667 77.14 40.6933 77.14 33.3333C77.14 33.06 77.12 32.7867 77.1067 32.5267L73.7133 0H46.2867L42.8867 32.5C42.8733 32.7733 42.86 33.0467 42.86 33.3333C42.86 40.6933 50.5333 46.6667 60 46.6667ZM93.3333 53.64V80H26.6667V53.68C23.7467 54.7333 20.5333 55.3333 17.14 55.3333C15.84 55.3333 14.58 55.18 13.3333 55.0067V97.3333C13.3333 102.467 17.5267 106.667 22.6533 106.667H97.3333C102.467 106.667 106.667 102.46 106.667 97.3333V55.0133C105.406 55.2068 104.135 55.3159 102.86 55.34C99.6093 55.3367 96.3845 54.7613 93.3333 53.64ZM119.467 30L107.993 0H80.5733L85.84 34.9467C86.8667 41.5467 94.0867 46.6667 102.86 46.6667C112.327 46.6667 120 40.6933 120 33.3333C120 32.1733 119.813 31.0667 119.467 30Z" fill="#C2E0FF"/>
</svg>
