<svg width="130" height="44" viewBox="0 0 130 44" fill="none" xmlns="http://www.w3.org/2000/svg">
<g opacity="0.930588" clip-path="url(#clip0_4204_934)">
<path d="M7.43393 31.0084C7.97864 32.411 8.73271 33.6103 9.69645 34.6062C10.6601 35.6023 11.8019 36.3646 13.1215 36.8931C14.4413 37.4216 15.8763 37.6858 17.4266 37.6858C18.935 37.6858 20.3489 37.4113 21.6688 36.8624C22.9886 36.3135 24.1407 35.5412 25.1253 34.5453C26.1098 33.5492 26.8745 32.3602 27.4192 30.978C27.9639 29.5957 28.2362 28.051 28.2362 26.3435V0H34.8351V42.6861H28.2991V38.7224C26.8327 40.2264 25.1043 41.3851 23.1141 42.1983C21.1239 43.0112 18.9768 43.4178 16.6724 43.4178C14.3261 43.4178 12.137 43.0214 10.1048 42.2286C8.0729 41.436 6.31309 40.3079 4.82583 38.8443C3.33857 37.3807 2.16531 35.6227 1.30647 33.5696C0.447487 31.5166 0.0180664 29.2299 0.0180664 26.7093V0H6.61693V26.3435C6.61693 28.051 6.88921 29.6058 7.43393 31.0084Z" fill="#010202"/>
<path d="M46.21 0V15.5499C47.6764 14.127 49.3733 12.999 51.3006 12.1655C53.2278 11.332 55.3227 10.9154 57.5852 10.9154C59.9315 10.9154 62.1309 11.3422 64.1841 12.1959C66.237 13.0496 68.0175 14.2083 69.5259 15.6719C71.0343 17.1354 72.2285 18.8632 73.1082 20.8551C73.9878 22.8473 74.428 24.9612 74.428 27.1972C74.428 29.433 73.9878 31.5369 73.1082 33.5085C72.2285 35.4802 71.0343 37.1978 69.5259 38.6612C68.0175 40.1248 66.237 41.2834 64.1841 42.1372C62.1309 42.9909 59.9314 43.4177 57.5852 43.4177C55.3227 43.4177 53.2174 43.001 51.2692 42.1675C49.3209 41.3342 47.6135 40.206 46.1471 38.7832V42.686H39.8625V0H46.21ZM46.9327 31.4047C47.4982 32.7058 48.2839 33.844 49.2895 34.8197C50.295 35.7954 51.4682 36.5679 52.8088 37.137C54.1497 37.7061 55.595 37.9907 57.1453 37.9907C58.6537 37.9907 60.0781 37.7061 61.4188 37.137C62.7595 36.5679 63.9221 35.7955 64.9069 34.8197C65.8915 33.8442 66.677 32.7058 67.2636 31.4047C67.8501 30.1039 68.1434 28.7014 68.1434 27.1972C68.1434 25.6929 67.8501 24.2803 67.2636 22.959C66.677 21.6377 65.8915 20.4893 64.9069 19.5136C63.9222 18.5381 62.7596 17.7757 61.4188 17.227C60.078 16.6782 58.6536 16.4036 57.1453 16.4036C55.6371 16.4036 54.2125 16.678 52.8719 17.227C51.5312 17.7759 50.3581 18.5381 49.3523 19.5136C48.3469 20.4893 47.5508 21.6377 46.9642 22.959C46.3777 24.2803 46.0844 25.6929 46.0844 27.1972C46.0842 28.7014 46.3671 30.1039 46.9327 31.4047Z" fill="#010202"/>
<path d="M78.0095 20.9152C78.8471 18.9638 79.9996 17.2463 81.4657 15.7624C82.9324 14.2786 84.6713 13.1098 86.6825 12.2561C88.6937 11.4024 90.872 10.9756 93.2184 10.9756C95.5228 10.9756 97.6599 11.3822 99.629 12.1951C101.598 13.0082 103.294 14.1364 104.719 15.5796C106.144 17.0227 107.254 18.7303 108.05 20.7019C108.846 22.6736 109.244 24.8181 109.244 27.1354V29.1477H83.1626C83.3726 30.408 83.7917 31.5768 84.4201 32.6539C85.0485 33.7313 85.834 34.6663 86.7766 35.4591C87.7192 36.2519 88.7878 36.8719 89.9816 37.3189C91.1761 37.7661 92.443 37.9898 93.7838 37.9898C97.5969 37.9898 100.677 36.4652 103.022 33.4162L107.611 36.709C106.018 38.7824 104.049 40.4086 101.703 41.5875C99.3568 42.7664 96.7173 43.3559 93.7845 43.3559C91.3962 43.3559 89.165 42.9492 87.0908 42.1363C85.0174 41.3233 83.2155 40.1848 81.6865 38.7213C80.1567 37.2577 78.9528 35.5401 78.0725 33.5685C77.1929 31.5969 76.7527 29.4523 76.7527 27.1351C76.7527 24.9399 77.1719 22.8666 78.0095 20.9152ZM86.8396 18.5064C85.0587 19.9496 83.875 21.8705 83.2886 24.2691H102.834C102.29 21.8705 101.127 19.9496 99.346 18.5064C97.565 17.0633 95.4808 16.3417 93.0924 16.3417C90.7048 16.3417 88.6198 17.0633 86.8396 18.5064Z" fill="#010202"/>
<path d="M121.122 19.2083C119.781 20.6311 119.111 22.5621 119.111 25.0014V42.6858H112.763V11.5859H119.048V15.4277C119.844 14.1674 120.881 13.1713 122.158 12.4396C123.436 11.7078 124.955 11.3418 126.715 11.3418H128.914V17.074H126.275C124.18 17.0741 122.463 17.7855 121.122 19.2083Z" fill="#010202"/>
</g>
<defs>
<clipPath id="clip0_4204_934">
<rect width="129.589" height="43.4375" fill="white" transform="translate(0.0180664)"/>
</clipPath>
</defs>
</svg>
