<svg width="130" height="101" viewBox="0 0 130 101" fill="none" xmlns="http://www.w3.org/2000/svg">
<g opacity="0.930588" clip-path="url(#clip0_4204_929)">
<path d="M126.729 17.2686C122.676 17.2686 119.802 20.4394 119.802 25.3066V43.1604H113.616V11.7346H119.728V15.5721C120.482 14.3002 121.562 13.2531 122.856 12.5393C124.152 11.8255 125.614 11.4709 127.091 11.5124H129.314V17.2686H126.729ZM109.341 27.4475C109.341 18.0761 102.674 11.0679 93.6507 11.0679C91.5187 11.0824 89.4107 11.5182 87.4478 12.3505C85.485 13.1827 83.706 14.3948 82.2133 15.9171C80.7206 17.4394 79.5437 19.2418 78.7502 21.2206C77.9567 23.1994 77.5623 25.3157 77.5896 27.4475C77.5896 36.8116 84.8127 43.8938 94.2364 43.8938C96.8681 43.9435 99.4736 43.3597 101.833 42.1917C104.192 41.0235 106.236 39.3054 107.793 37.1819L103.304 33.8926C102.274 35.3302 100.911 36.4968 99.3318 37.2928C97.7529 38.0888 96.004 38.4906 94.2364 38.4636C91.7176 38.4517 89.2868 37.538 87.3841 35.8881C85.4815 34.2382 84.2328 31.9613 83.8645 29.47H109.356L109.341 27.4475ZM83.9978 24.5657C85.1017 19.7726 88.9316 16.5277 93.5766 16.5277C98.2216 16.5277 102.044 19.7726 103.081 24.5657H83.9978ZM57.9948 11.0679C55.9276 11.0697 53.8812 11.481 51.9739 12.2783C50.0665 13.0755 48.336 14.2429 46.8825 15.7128V0H40.6966V43.1604H46.8084V39.1747C49.7692 42.17 53.7981 43.8673 58.0097 43.8938C60.1944 43.9402 62.3664 43.55 64.3984 42.746C66.4303 41.942 68.2812 40.7405 69.8428 39.2118C71.4043 37.6832 72.6449 35.8581 73.4918 33.8437C74.3388 31.8293 74.775 29.6661 74.775 27.4808C74.775 25.2957 74.3388 23.1324 73.4918 21.1181C72.6449 19.1036 71.4043 17.2786 69.8428 15.7499C68.2812 14.2212 66.4303 13.0196 64.3984 12.2156C62.3664 11.4117 60.1944 11.0215 58.0097 11.0679H57.9948ZM57.5504 38.3672C55.3942 38.3776 53.2836 37.747 51.4864 36.5559C49.6891 35.3646 48.2862 33.6665 47.4557 31.6767C46.6251 29.6869 46.4044 27.4952 46.8214 25.3797C47.2384 23.2642 48.2745 21.3204 49.7981 19.7947C51.3217 18.269 53.2642 17.2303 55.379 16.8104C57.4939 16.3904 59.6859 16.6082 61.6768 17.436C63.6677 18.2639 65.3679 19.6645 66.5616 21.46C67.7552 23.2557 68.3885 25.3654 68.3812 27.5216C68.3831 28.9438 68.1043 30.3523 67.5605 31.6664C67.0166 32.9805 66.2187 34.1743 65.2124 35.1793C64.2061 36.1842 63.0112 36.9805 61.6963 37.5226C60.3815 38.0645 58.9725 38.3415 57.5504 38.3377V38.3672ZM17.9163 38.0709C23.8874 38.0709 28.5249 33.4926 28.5249 26.6326V0H34.933V43.1604H28.599V39.0784C27.1192 40.6079 25.3444 41.8212 23.3822 42.6451C21.42 43.469 19.311 43.8862 17.1829 43.8715C7.97445 43.8715 0.884766 37.1597 0.884766 26.9808V0H7.41142V26.6697C7.41142 33.5667 11.8564 38.0709 17.9163 38.0709Z" fill="#262626"/>
<path d="M0.00390625 56.1162H30.2814V63.5245H8.18259V74.0441H29.6664V81.2005H8.18259V91.898H30.2814V99.3067H0.00390625V56.1162ZM113.899 100.084C123.18 100.084 128.411 95.6389 128.411 89.5348C128.411 85.1862 125.314 81.9413 118.832 80.5338L111.98 79.1336C108.001 78.3927 106.749 77.652 106.749 76.1703C106.749 74.2516 108.668 73.0737 112.201 73.0737C116.032 73.0737 118.869 74.1034 119.61 77.6445H127.641C127.203 70.9772 122.41 66.5767 112.691 66.5767C104.29 66.5767 98.3925 70.0437 98.3925 76.763C98.3925 81.4079 101.638 84.4305 108.638 85.9047L116.298 87.6753C119.321 88.2679 120.129 89.0828 120.129 90.3349C120.129 92.3277 117.847 93.5797 114.158 93.5797C109.52 93.5797 106.867 92.5499 105.838 89.0088H97.7632C98.941 95.6615 103.875 100.084 113.899 100.084ZM95.4291 99.2766H86.7395C81.2871 99.2766 78.2645 95.8841 78.2645 91.6016V74.6368H72.1528V67.4064H78.2942V58.3312H86.3691V67.4064H95.4291V74.6368H86.3691V89.5348C86.3691 91.2313 87.547 92.0462 89.3917 92.0462H95.4291V99.2766ZM60.6107 67.4211V70.2955C57.7677 67.8923 54.1619 66.5792 50.4392 66.5914C48.2104 66.5445 45.9947 66.9431 43.9218 67.7636C41.8491 68.5841 39.9609 69.8101 38.368 71.3699C36.7753 72.9295 35.5098 74.7915 34.6459 76.8465C33.782 78.9016 33.3369 81.1085 33.3369 83.3378C33.3369 85.567 33.782 87.7739 34.6459 89.829C35.5098 91.8841 36.7753 93.746 38.368 95.3055C39.9609 96.8656 41.8491 98.0913 43.9218 98.9122C45.9947 99.7322 48.2104 100.131 50.4392 100.084C54.1626 100.1 57.7696 98.7864 60.6107 96.38V99.2616H68.6634V67.4064L60.6107 67.4211ZM51.1059 93.0907C49.1742 93.1128 47.2797 92.5601 45.6629 91.5027C44.0462 90.4454 42.7803 88.9313 42.0261 87.1529C41.2719 85.3744 41.0635 83.4118 41.4273 81.5146C41.7912 79.6174 42.7109 77.8713 44.0695 76.498C45.4281 75.1247 47.1644 74.1864 49.0576 73.8022C50.9507 73.4181 52.9154 73.6055 54.7018 74.3406C56.4883 75.0757 58.0159 76.3253 59.0904 77.9306C60.165 79.536 60.7379 81.4246 60.7366 83.3563C60.7484 84.6298 60.5074 85.8929 60.0279 87.0726C59.5482 88.2523 58.8393 89.3252 57.9423 90.229C57.0453 91.1329 55.9778 91.8501 54.8019 92.3387C53.6258 92.8274 52.3646 93.0779 51.0911 93.0759L51.1059 93.0907Z" fill="#5FB709"/>
</g>
<defs>
<clipPath id="clip0_4204_929">
<rect width="129.617" height="100.5" fill="white" transform="translate(0.00390625)"/>
</clipPath>
</defs>
</svg>
