<svg width="120" height="135" viewBox="0 0 120 135" fill="none" xmlns="http://www.w3.org/2000/svg">
<path d="M106.667 0.916504H13.3333C9.79711 0.916504 6.40573 2.32126 3.90524 4.82175C1.40476 7.32223 0 10.7136 0 14.2498V100.917C0 104.453 1.40476 107.844 3.90524 110.345C6.40573 112.845 9.79711 114.25 13.3333 114.25H40L60 134.25L80 114.25H106.667C110.203 114.25 113.594 112.845 116.095 110.345C118.595 107.844 120 104.453 120 100.917V14.2498C120 10.7136 118.595 7.32223 116.095 4.82175C113.594 2.32126 110.203 0.916504 106.667 0.916504ZM60 20.9165C71.5133 20.9165 80 29.3965 80 40.9165C80 52.4365 71.5133 60.9165 60 60.9165C48.4933 60.9165 40 52.4365 40 40.9165C40 29.3965 48.4933 20.9165 60 20.9165ZM27.8467 94.2498C31.5667 82.7632 44.4867 74.2498 60 74.2498C75.5133 74.2498 88.44 82.7632 92.1533 94.2498H27.8467Z" fill="#C2E0FF"/>
</svg>
