<svg width="130" height="130" viewBox="0 0 130 130" fill="none" xmlns="http://www.w3.org/2000/svg">
<g opacity="0.930588" clip-path="url(#clip0_4204_901)">
<path d="M86.6714 66.791C86.6714 66.791 85.9601 66.8388 85.6109 66.8943C84.2616 67.1114 83.8602 67.4767 83.8602 69.138V82.2418C83.8602 84.0287 84.973 84.1352 86.5427 84.2235C90.374 84.4408 92.5997 81.0374 92.5997 75.5334C92.5997 70.0258 90.389 66.7912 86.6715 66.7912C86.6715 66.7912 85.9602 66.839 85.6109 66.8945C84.2617 67.1117 83.8603 67.477 83.8603 69.1382V82.242C83.8603 84.0289 84.9731 84.1354 86.5427 84.2237C90.3741 84.441 92.5998 81.0376 92.5998 75.5336C92.5998 70.026 90.3891 66.7914 86.6716 66.7914L86.6714 66.791ZM46.4519 66.983C43.0155 66.983 40.8933 70.2618 40.8933 75.6963C40.8933 81.0088 42.9814 84.2246 46.5148 84.2246C49.9521 84.2246 52.1075 80.8831 52.1075 75.6375C52.1075 70.3248 49.9191 66.983 46.4519 66.983ZM66.9622 66.983C63.5248 66.983 61.3983 70.2618 61.3983 75.6963C61.3983 81.0088 63.4918 84.2246 67.024 84.2246C70.4582 84.2246 72.6134 80.8831 72.6134 75.6375C72.6134 70.3248 70.4284 66.983 66.9622 66.983ZM86.6716 66.7914C86.6716 66.7914 85.9603 66.8392 85.611 66.8947C84.2618 67.1119 83.8604 67.4772 83.8604 69.1384V82.2422C83.8604 84.0292 84.9732 84.1357 86.5428 84.224C90.3742 84.4412 92.5998 81.0378 92.5998 75.5338C92.5998 70.0262 90.3892 66.7916 86.6717 66.7916C86.6717 66.7916 85.9604 66.8394 85.6111 66.8949C84.2619 67.1121 83.8605 67.4774 83.8605 69.1386V82.2424C83.8605 84.0294 84.9733 84.1359 86.5429 84.2242C90.3743 84.4414 92.5999 81.038 92.5999 75.534C92.5999 70.0265 90.3893 66.7918 86.6718 66.7918L86.6716 66.7914ZM66.9623 66.9835C63.525 66.9835 61.3984 70.2622 61.3984 75.6967C61.3984 81.0093 63.492 84.225 67.0242 84.225C70.4584 84.225 72.6136 80.8835 72.6136 75.6378C72.6136 70.3253 70.4286 66.9835 66.9623 66.9835ZM46.4521 66.9835C43.0157 66.9835 40.8935 70.2622 40.8935 75.6967C40.8935 81.0093 42.9816 84.225 46.515 84.225C49.9523 84.225 52.1076 80.8835 52.1076 75.6378C52.1076 70.3253 49.9193 66.9835 46.4521 66.9835ZM49.2601 97.7796C49.2079 97.6837 48.438 96.0917 48.3464 95.8926C48.2612 95.7158 48.0483 95.7052 47.9706 95.9003C47.8821 96.1175 47.1229 97.6435 47.0718 97.7531C46.9866 97.9342 47.0825 98.0524 47.2561 98.0524H49.0716C49.2047 98.0524 49.3367 97.9342 49.26 97.7798L49.2601 97.7796ZM46.4521 66.9837C43.0156 66.9837 40.8934 70.2625 40.8934 75.6969C40.8934 81.0095 42.9816 84.2252 46.5149 84.2252C49.9523 84.2252 52.1076 80.8837 52.1076 75.6382C52.1076 70.3255 49.9192 66.9837 46.4521 66.9837ZM66.9623 66.9837C63.5249 66.9837 61.3984 70.2625 61.3984 75.6969C61.3984 81.0095 63.492 84.2252 67.0241 84.2252C70.4583 84.2252 72.6136 80.8837 72.6136 75.6382C72.6136 70.3255 70.4285 66.9837 66.9623 66.9837ZM86.6717 66.7921C86.6717 66.7921 85.9604 66.8399 85.6111 66.8953C84.2619 67.1125 83.8605 67.4778 83.8605 69.1391V82.2429C83.8605 84.0298 84.9733 84.1363 86.543 84.2246C90.3743 84.4419 92.6 81.0385 92.6 75.5343C92.6 70.0269 90.3893 66.7923 86.6718 66.7923C86.6718 66.7923 85.9605 66.8401 85.6112 66.8956C84.262 67.1127 83.8606 67.478 83.8606 69.1393V82.2431C83.8606 84.03 84.9734 84.1365 86.543 84.2248C90.3744 84.4421 92.6001 81.0387 92.6001 75.5345C92.6001 70.0271 90.3894 66.7925 86.6719 66.7925L86.6717 66.7921ZM66.9625 66.9841C63.525 66.9841 61.3986 70.2629 61.3986 75.6973C61.3986 81.0099 63.4921 84.2257 67.0243 84.2257C70.4585 84.2257 72.6137 80.8841 72.6137 75.6385C72.6137 70.3259 70.4287 66.9841 66.9625 66.9841ZM46.4522 66.9841C43.0158 66.9841 40.8936 70.2629 40.8936 75.6973C40.8936 81.0099 42.9817 84.2257 46.5151 84.2257C49.9524 84.2257 52.1078 80.8841 52.1078 75.6385C52.1078 70.3259 49.9194 66.9841 46.4522 66.9841ZM49.2602 97.7802C49.208 97.6843 48.4381 96.0924 48.3466 95.8932C48.2613 95.7164 48.0484 95.7059 47.9707 95.9009C47.8822 96.1182 47.123 97.644 47.0719 97.7537C46.9867 97.9348 47.0826 98.053 47.2561 98.053H49.0717C49.2048 98.053 49.3368 97.9348 49.2601 97.7804C49.208 97.6845 48.4381 96.0926 48.3465 95.8934C48.2613 95.7166 48.0484 95.7061 47.9706 95.9011C47.8822 96.1184 47.123 97.6442 47.0719 97.754C46.9867 97.935 47.0826 98.0533 47.2561 98.0533H49.0717C49.2048 98.0533 49.3368 97.935 49.2601 97.7806L49.2602 97.7802ZM46.4521 66.9837C43.0157 66.9837 40.8935 70.2625 40.8935 75.6969C40.8935 81.0095 42.9816 84.2252 46.515 84.2252C49.9523 84.2252 52.1077 80.8837 52.1077 75.6382C52.1077 70.3255 49.9193 66.9837 46.4521 66.9837ZM61.0826 94.534H58.7686C58.5291 94.534 58.2788 94.6181 58.2788 94.9163V96.6041C58.2788 96.8693 58.5291 97.0236 58.7686 97.0236H61.0826C61.86 97.0236 62.4935 96.6147 62.4935 95.7788C62.4935 94.943 61.8599 94.534 61.0826 94.534ZM66.9628 66.9837C63.5255 66.9837 61.3989 70.2625 61.3989 75.6969C61.3989 81.0095 63.4924 84.2253 67.0246 84.2253C70.4588 84.2253 72.6141 80.8837 72.6141 75.6382C72.6141 70.3255 70.429 66.9837 66.9628 66.9837ZM86.6722 66.7921C86.6722 66.7921 85.961 66.8399 85.6117 66.8954C84.2624 67.1126 83.861 67.4779 83.861 69.1391V82.2429C83.861 84.0298 84.9738 84.1363 86.5435 84.2246C90.3749 84.4419 92.6005 81.0385 92.6005 75.5344C92.6005 70.0269 90.3898 66.7923 86.6723 66.7923C86.6723 66.7923 85.961 66.8401 85.6117 66.8956C84.2625 67.1128 83.8611 67.4781 83.8611 69.1393V82.2431C83.8611 84.0301 84.9739 84.1365 86.5436 84.2248C90.3749 84.4421 92.6006 81.0387 92.6006 75.5347C92.6006 70.0271 90.3899 66.7925 86.6724 66.7925L86.6722 66.7921ZM66.963 66.9842C63.5256 66.9842 61.3991 70.2629 61.3991 75.6974C61.3991 81.01 63.4926 84.2257 67.0248 84.2257C70.459 84.2257 72.6143 80.8842 72.6143 75.6385C72.6143 70.3259 70.4292 66.9842 66.963 66.9842ZM46.4527 66.9842C43.0163 66.9842 40.8941 70.2629 40.8941 75.6974C40.8941 81.01 42.9822 84.2257 46.5156 84.2257C49.9529 84.2257 52.1083 80.8842 52.1083 75.6385C52.1083 70.3259 49.9199 66.9842 46.4527 66.9842ZM61.0832 94.5345H58.7692C58.5297 94.5345 58.2794 94.6186 58.2794 94.9167V96.6046C58.2794 96.8697 58.5297 97.0241 58.7692 97.0241H61.0832C61.8606 97.0241 62.4941 96.6152 62.4941 95.7794C62.4941 94.9435 61.8605 94.5345 61.0832 94.5345ZM49.2605 97.7803C49.2083 97.6844 48.4385 96.0924 48.3469 95.8933C48.2617 95.7165 48.0488 95.7059 47.971 95.901C47.8826 96.1183 47.1233 97.6441 47.0723 97.7538C46.987 97.9349 47.083 98.0531 47.2564 98.0531H49.0721C49.2051 98.0531 49.3372 97.9349 49.2605 97.7805C49.2083 97.6846 48.4384 96.0927 48.3469 95.8935C48.2616 95.7167 48.0487 95.7062 47.971 95.9012C47.8825 96.1185 47.1233 97.6443 47.0722 97.754C46.987 97.9351 47.0829 98.0533 47.2564 98.0533H49.072C49.2051 98.0533 49.3371 97.9351 49.2604 97.7806L49.2605 97.7803ZM46.4525 66.9838C43.0161 66.9838 40.8939 70.2625 40.8939 75.697C40.8939 81.0096 42.982 84.2253 46.5153 84.2253C49.9527 84.2253 52.108 80.8838 52.108 75.6382C52.108 70.3256 49.9196 66.9838 46.4525 66.9838ZM61.0829 94.5341H58.769C58.5294 94.5341 58.2791 94.6182 58.2791 94.9164V96.6042C58.2791 96.8693 58.5294 97.0238 58.769 97.0238H61.0829C61.8603 97.0238 62.4938 96.6148 62.4938 95.7789C62.4938 94.9431 61.8603 94.5341 61.0829 94.5341ZM66.9631 66.9838C63.5257 66.9838 61.3992 70.2626 61.3992 75.697C61.3992 81.0096 63.4927 84.2254 67.025 84.2254C70.4592 84.2254 72.6144 80.8838 72.6144 75.6383C72.6144 70.3256 70.4294 66.9838 66.9631 66.9838ZM86.6726 66.7922C86.6726 66.7922 85.9613 66.84 85.612 66.8955C84.2628 67.1126 83.8614 67.4779 83.8614 69.1392V82.243C83.8614 84.0299 84.9742 84.1364 86.5438 84.2247C90.3752 84.442 92.6008 81.0386 92.6008 75.5345C92.6008 70.027 90.3902 66.7924 86.6727 66.7924C86.6727 66.7924 85.9614 66.8402 85.6121 66.8957C84.2629 67.1128 83.8615 67.4782 83.8615 69.1394V82.2432C83.8615 84.0301 84.9742 84.1365 86.5439 84.2249C90.3753 84.4422 92.6009 81.0388 92.6009 75.5348C92.6009 70.0272 90.3902 66.7926 86.6728 66.7926L86.6726 66.7922ZM66.9633 66.9842C63.5259 66.9842 61.3994 70.263 61.3994 75.6975C61.3994 81.01 63.4929 84.2258 67.0251 84.2258C70.4594 84.2258 72.6146 80.8843 72.6146 75.6386C72.6146 70.326 70.4296 66.9842 66.9633 66.9842ZM46.4531 66.9842C43.0167 66.9842 40.8945 70.263 40.8945 75.6975C40.8945 81.01 42.9826 84.2258 46.5159 84.2258C49.9533 84.2258 52.1086 80.8843 52.1086 75.6386C52.1086 70.326 49.9202 66.9842 46.4531 66.9842ZM61.0835 94.5345H58.7696C58.53 94.5345 58.2797 94.6187 58.2797 94.9168V96.6047C58.2797 96.8698 58.53 97.0242 58.7696 97.0242H61.0835C61.8609 97.0242 62.4944 96.6153 62.4944 95.7794C62.4944 94.9436 61.8609 94.5346 61.0835 94.5346V94.5345ZM49.2609 97.7804C49.2087 97.6845 48.4388 96.0925 48.3473 95.8934C48.262 95.7166 48.0491 95.706 47.9714 95.9011C47.8829 96.1183 47.1237 97.6442 47.0726 97.7539C46.9874 97.935 47.0832 98.0532 47.2568 98.0532H49.0724C49.2055 98.0532 49.3375 97.935 49.2608 97.7805L49.2609 97.7804ZM112.944 85.8395C112.944 85.6222 112.727 85.5701 112.514 85.5701H112.219V86.1047H112.44C112.709 86.1047 112.944 86.0898 112.944 85.8395ZM112.944 87.1728L112.399 86.4029H112.215V87.1728H111.89V85.272H112.604C113.051 85.272 113.253 85.4487 113.253 85.8396C113.253 86.2186 113.043 86.3656 112.768 86.3954L113.319 87.1728H112.944ZM112.506 84.9621C111.772 84.9621 111.227 85.5116 111.227 86.2698C111.227 87.029 111.772 87.5742 112.506 87.5742C113.242 87.5742 113.784 87.029 113.784 86.2698C113.784 85.5116 113.242 84.9621 112.506 84.9621ZM48.3425 95.8927C48.2574 95.716 48.0444 95.7054 47.9666 95.9004C47.8782 96.1177 47.1189 97.6435 47.0679 97.7533C46.9826 97.9343 47.0786 98.0526 47.2521 98.0526H49.0677C49.2008 98.0526 49.3328 97.9343 49.2562 97.78C49.2039 97.6841 48.434 96.0921 48.3425 95.893V95.8927ZM46.4481 66.9839C43.0116 66.9839 40.8894 70.2626 40.8894 75.6971C40.8894 81.0097 42.9775 84.2254 46.5109 84.2254C49.9484 84.2254 52.1036 80.8839 52.1036 75.6383C52.1036 70.3257 49.9152 66.9839 46.4481 66.9839ZM61.0785 94.5342H58.7646C58.525 94.5342 58.2747 94.6183 58.2747 94.9164V96.6043C58.2747 96.8694 58.525 97.0238 58.7646 97.0238H61.0785C61.8559 97.0238 62.4894 96.6149 62.4894 95.7789C62.4894 94.943 61.8558 94.5341 61.0785 94.5341V94.5342ZM66.9587 66.9838C63.5214 66.9838 61.3948 70.2626 61.3948 75.697C61.3948 81.0096 63.4884 84.2254 67.0205 84.2254C70.4547 84.2254 72.6101 80.8838 72.6101 75.6383C72.6101 70.3256 70.4249 66.9838 66.9587 66.9838ZM92.5966 75.5351C92.5966 70.0277 90.3859 66.793 86.6684 66.793C86.6684 66.793 85.9571 66.8409 85.6078 66.8963C84.2586 67.1135 83.8572 67.4788 83.8572 69.1401V82.2439C83.8572 84.0308 84.97 84.1372 86.5396 84.2256C90.371 84.4428 92.5966 81.0395 92.5966 75.5353V75.5351ZM114.167 60.3716C114.042 60.9456 113.684 61.1565 113.054 61.1565L112.255 61.1599H99.9898C98.9365 61.1599 98.5788 60.9501 98.5788 60.2536C98.5788 59.7935 98.9365 59.4134 99.3561 59.4134H99.9898C100.207 59.4134 100.426 59.2217 100.491 59.012C100.587 58.7574 100.613 58.6031 100.613 57.7597V43.7749C100.613 42.9645 100.587 42.8016 100.491 42.5482C100.426 42.2713 100.174 42.0839 99.9898 42.0839H99.3561C98.9365 42.0839 98.5532 41.675 98.5532 41.2107C98.5532 40.5175 98.9365 40.2928 99.9898 40.2928H112.475C113.106 40.2928 113.459 40.5037 113.587 41.0776L114.03 43.2521C114.199 44.055 113.915 44.4863 113.345 44.4863C113.043 44.4863 112.752 44.4086 112.541 43.9996C112.505 43.9368 112.376 43.709 112.232 43.3256C111.926 42.5216 111.296 42.4226 109.84 42.4226H106.894C105.188 42.4226 104.996 42.6473 104.996 44.3085V48.0228C104.996 48.7224 105.095 49.028 105.283 49.1537C105.428 49.2527 105.659 49.2751 106.556 49.2751H108.01C109.322 49.2751 109.509 49.1792 109.605 48.5531L109.628 48.3614C109.724 47.8312 110.004 47.5809 110.475 47.5809C111.131 47.5809 111.348 47.9525 111.348 49.0504V51.6774C111.348 52.7711 111.131 53.147 110.475 53.147C110.004 53.147 109.724 52.8637 109.628 52.3334L109.595 52.1268C109.502 51.5007 109.315 51.4081 108 51.4081H106.556C105.66 51.4081 105.428 51.4304 105.284 51.5294C105.095 51.6551 104.996 51.9575 104.996 52.6615V56.6249C104.996 58.2797 105.095 58.629 105.59 58.8206C105.991 58.9719 106.425 59.0379 107.45 59.0379L110.559 59.0302C111.675 59.0302 112.465 58.6809 112.851 57.8706C113.028 57.5022 113.083 57.3617 113.121 57.2987C113.33 56.8898 113.661 56.7099 113.967 56.7099C114.535 56.7099 114.815 57.1412 114.648 57.9442L114.166 60.372L114.167 60.3716ZM112.506 87.8998C111.602 87.8998 110.88 87.1704 110.88 86.2706C110.88 85.3643 111.602 84.6392 112.506 84.6392C113.404 84.6392 114.131 85.3644 114.131 86.2706C114.131 87.1704 113.404 87.8998 112.506 87.8998ZM105.222 86.4889C104.068 86.4889 102.832 86.326 101.939 86.0459C101.489 85.9245 101.439 85.8915 101.261 85.8915C100.996 85.8915 100.863 85.9544 100.595 86.2014C100.3 86.4261 100.145 86.4889 99.8681 86.4889C99.3458 86.4889 99.0881 86.2014 98.9038 85.4528L98.1147 82.3253C98.0562 82.1379 98.0339 81.8536 98.0339 81.6992C98.0339 81.1433 98.4651 80.7227 99.021 80.7227C99.3458 80.7227 99.6142 80.8889 99.8053 81.1434L100.255 81.762C101.338 83.2912 103.089 84.2379 104.876 84.2379C106.906 84.2379 108.291 83.1026 108.291 81.4489C108.291 80.6013 107.941 79.8538 107.274 79.1019C106.597 78.3544 105.756 77.6655 103.958 76.4163C100.997 74.342 100.72 74.1535 99.7475 73.0343C98.9594 72.1206 98.5568 71.0004 98.5568 69.7513C98.5568 66.7196 100.863 64.7156 104.308 64.7156C105.192 64.7156 106.095 64.7996 107.005 64.9956C107.1 65.0287 107.354 65.0872 107.796 65.1873C107.941 65.2159 108.103 65.249 108.225 65.249C108.431 65.249 108.67 65.1468 108.943 64.9657C109.252 64.7411 109.352 64.7156 109.603 64.7156C110.063 64.7156 110.358 65.0286 110.483 65.5887L111.231 68.9708C111.286 69.1177 111.286 69.3062 111.286 69.4052C111.286 69.8141 110.921 70.1527 110.388 70.1527C110.052 70.1527 109.845 70.0282 109.558 69.6268C108.854 68.5618 108.723 68.4393 108.069 67.9357C107.23 67.2797 106.154 66.9295 105.13 66.9295C103.685 66.9295 102.75 67.7515 102.75 69.0336C102.75 69.4936 102.832 69.9686 103.089 70.3147C103.405 70.7864 103.906 71.2806 104.526 71.7523C104.912 72.0281 105.406 72.3859 106.072 72.8502C108.541 74.57 109.352 75.1971 110.358 76.2247C111.415 77.3184 112.049 78.8806 112.049 80.4874C112.049 84.1016 109.352 86.489 105.222 86.489V86.4889ZM97.3267 94.549H95.5069C95.2566 94.549 95.0756 94.631 95.0756 94.9324L95.0863 100.373C95.0863 100.757 94.8137 100.802 94.3866 100.802C93.9745 100.802 93.6977 100.76 93.6977 100.388V94.9399C93.6977 94.6747 93.6018 94.5491 93.2706 94.5491H91.4284C91.1302 94.5491 91.0451 94.2626 91.0451 94.023C91.0451 93.7579 91.0227 93.2457 91.4178 93.2457H97.2969C97.562 93.2457 97.7388 93.3927 97.7388 93.8792C97.7388 94.3105 97.6248 94.5491 97.3267 94.5491V94.549ZM82.2064 96.2326H84.8036C85.1167 96.2326 85.1987 96.5062 85.1987 96.9035C85.1987 97.2496 85.1241 97.5519 84.8335 97.5519H82.2437C82.0372 97.5519 81.8497 97.6957 81.8497 97.9353V99.0364C81.8497 99.3015 81.9935 99.4272 82.2065 99.4272H86.6608C86.9558 99.4272 87.0591 99.6221 87.0591 100.109C87.0591 100.459 86.9782 100.746 86.6651 100.746H80.9286C80.5963 100.746 80.46 100.588 80.46 100.194V93.7313C80.46 93.4373 80.5782 93.2307 80.9211 93.2307H86.6757C87.0185 93.2307 87.0804 93.4587 87.0804 93.8676C87.0804 94.2477 87.0292 94.5491 86.6576 94.5491H82.1585C81.9786 94.5491 81.8497 94.6896 81.8497 94.8845V95.9015C81.8497 96.1156 82.0042 96.2326 82.2065 96.2326H82.2064ZM77.4806 85.0515C77.4806 84.5798 77.7936 84.1826 78.2238 84.1826H78.8618C79.0757 84.1826 79.2887 84.0165 79.392 83.7737C79.4548 83.549 79.4878 83.3605 79.4878 82.5427V68.621C79.4878 67.8063 79.4548 67.6158 79.392 67.39C79.2887 67.1515 79.0757 66.9811 78.8618 66.9811H78.2238C77.7936 66.9811 77.4806 66.5839 77.4806 66.1121C77.4806 65.4306 77.9513 65.3348 78.8617 65.1985C79.7753 65.0654 82.3246 64.7162 86.2263 64.7162C90.1238 64.7162 92.5441 65.5627 94.4599 67.5008C96.299 69.3473 97.2967 72.1905 97.2967 75.5693C97.2967 79.3527 96.0221 82.4802 93.7017 84.3268C91.8999 85.7857 89.6382 86.4492 86.2263 86.4492C82.3246 86.4492 79.7753 86.0988 78.8617 85.9657C77.9512 85.8336 77.4806 85.7378 77.4806 85.052V85.0515ZM66.9247 86.4779C61.8815 86.4779 58.2712 83.6304 57.1109 79.0397C57.096 79.0067 57.0853 78.9737 57.0779 78.9364C56.9746 78.4211 56.5104 78.3838 56.3996 78.933C56.3996 78.9512 56.3847 78.9692 56.3771 78.9885C55.2058 83.6451 51.5767 86.4777 46.4151 86.4777C40.2293 86.4777 36.2025 82.1969 36.2025 75.668C36.2025 68.9859 40.2001 64.7339 46.4773 64.7339C51.6313 64.7339 55.2978 67.608 56.4206 72.2934C56.5388 72.8312 56.9957 72.7907 57.0947 72.2796C57.0947 72.2719 57.0947 72.2646 57.1053 72.2604C58.2511 67.5739 61.8579 64.7339 66.989 64.7339C73.2377 64.7339 77.297 68.9518 77.297 75.5138C77.297 82.1969 73.2675 86.4777 66.926 86.4777L66.9247 86.4779ZM75.5846 100.806C74.9511 100.806 74.7775 100.706 74.6156 100.511L72.21 97.9433C71.8821 97.659 71.5541 97.6153 71.1047 97.6153C70.8534 97.6153 70.6585 97.8731 70.6585 98.1712V100.359C70.6585 100.776 70.3018 100.802 69.911 100.802C69.4979 100.802 69.2806 100.688 69.2806 100.356V93.6764C69.2806 93.2825 69.5277 93.2165 70.0143 93.2165C70.3977 93.2165 70.6585 93.3048 70.6585 93.6659V95.6816C70.6585 96.0053 70.8066 96.1639 71.0089 96.1639C71.5946 96.1639 71.7202 96.0383 71.9375 95.8509C72.1802 95.6443 74.6487 93.3783 74.6487 93.3783C74.9585 93.1131 75.2715 93.1174 75.5697 93.4038C75.8168 93.6402 75.9265 93.9054 75.6507 94.178C75.4589 94.3654 73.293 96.3258 73.293 96.3258C73.0236 96.5579 73.0907 96.7752 73.2748 96.9775C73.2748 96.9775 75.8753 99.844 76.1479 100.139C76.5567 100.584 76.1808 100.806 75.5845 100.806H75.5846ZM62.3648 98.3811C62.4244 98.4706 63.4776 99.9985 63.632 100.228C63.8642 100.574 63.6544 100.802 62.9367 100.802C62.5352 100.802 62.2658 100.732 62.0922 100.474L60.9251 98.6611C60.792 98.4588 60.6003 98.3299 60.3384 98.3299H58.6697C58.4674 98.3299 58.2756 98.4961 58.2756 98.6984L58.2863 100.508C58.2863 100.864 57.5941 100.806 57.3663 100.806C57.067 100.806 56.902 100.72 56.902 100.386L56.9126 93.5071C56.9126 93.3271 57.067 93.2197 57.2332 93.2197H61.1902C62.7184 93.2197 63.8685 94.2036 63.8685 95.7806C63.8685 97.1436 62.8845 97.5899 62.4904 97.9241C62.2956 98.0946 62.2477 98.2117 62.3648 98.381V98.3811ZM51.2433 100.805C51.0144 100.805 50.6683 100.768 50.5607 100.518L50.0752 99.5129C50.0123 99.3798 49.8834 99.2733 49.7248 99.2733H46.6261C46.4311 99.2733 46.2543 99.4202 46.1437 99.6971L45.7134 100.518C45.6176 100.757 45.149 100.795 44.9318 100.795C44.7401 100.795 44.1108 100.772 44.3089 100.353L47.5994 93.5262C47.6909 93.327 47.8645 93.1759 48.1744 93.1759C48.4832 93.1759 48.6525 93.2792 48.7558 93.4995C48.7558 93.4995 51.8982 100.198 51.9866 100.393C52.1495 100.742 51.4711 100.805 51.2433 100.805ZM39.3321 100.805C39.1404 100.805 38.7837 100.7 38.7837 100.448L38.2534 96.4364C38.2193 96.2703 38.1575 96.1968 38.0245 96.1968C37.918 96.1968 37.8625 96.248 37.7891 96.3406L35.9874 98.6471C35.8946 98.7717 35.7733 98.8495 35.6295 98.8495C35.424 98.8495 35.3346 98.7972 35.2174 98.6247L33.5595 96.3885C33.486 96.2959 33.405 96.2703 33.3199 96.2703C33.1878 96.2703 33.1208 96.3885 33.1026 96.5429L32.583 100.422C32.5351 100.742 32.1411 100.805 31.8162 100.805C31.5916 100.805 31.2093 100.7 31.2093 100.411L31.9717 93.8723C32.0527 93.4815 32.1368 93.2569 32.7012 93.2569C32.845 93.2569 33.0771 93.2973 33.2571 93.5773L35.3165 96.4727C35.4273 96.6315 35.5529 96.7646 35.6892 96.7603C35.8255 96.7569 35.965 96.6165 36.0832 96.4622L38.2566 93.507C38.3897 93.3047 38.592 93.2196 38.8316 93.2196C39.0925 93.2196 39.2841 93.2792 39.3949 93.7179L40.1574 100.422C40.1947 100.805 39.594 100.805 39.3321 100.805ZM26.3756 82.6109C26.3756 83.4542 26.3756 83.6055 26.4491 83.8258C26.5812 84.0761 26.8655 84.2391 27.1157 84.2391H27.8228C28.3126 84.2391 28.6523 84.6405 28.6523 85.1122C28.6523 85.8012 28.269 86.0185 27.1157 86.0185H21.3611C20.293 86.0185 19.9172 85.8012 19.9172 85.1122C19.9172 84.6405 20.293 84.2391 20.7233 84.2391H21.3611C21.5741 84.2391 21.7849 84.0761 21.8882 83.8258C21.9542 83.6054 21.9873 83.4542 21.9873 82.6109V68.6245C21.9873 67.8141 21.9617 67.6523 21.8616 67.402C21.7956 67.1251 21.5454 66.9334 21.3611 66.9334H20.7275C20.3069 66.9334 19.9246 66.5288 19.9246 66.0613C19.9246 65.3723 20.3069 65.1476 21.3611 65.1476H34.919C35.5483 65.1476 35.9062 65.3574 36.0307 65.9314L36.4738 68.1059C36.6431 68.9044 36.3587 69.3401 35.7911 69.3401C35.4855 69.3401 35.1948 69.2591 34.9851 68.8502C34.9477 68.7906 34.8231 68.5584 34.6752 68.1793C34.3695 67.3764 33.7391 67.2731 32.2846 67.2731H28.2689C26.5599 67.2731 26.3681 67.501 26.3681 69.159V72.8765C26.3681 73.5761 26.4671 73.8785 26.6589 74.0074C26.8026 74.1075 27.0305 74.1288 27.9303 74.1288H30.5158C31.8277 74.1288 32.0152 74.033 32.111 73.4068L32.1334 73.212C32.2292 72.6816 32.5092 72.4303 32.9768 72.4303C33.637 72.4303 33.8542 72.8063 33.8542 73.9009V76.5311C33.8542 77.6258 33.637 78.0006 32.9768 78.0006C32.5092 78.0006 32.2292 77.7173 32.1334 77.1871L32.1003 76.9805C32.0077 76.3544 31.8202 76.2585 30.5051 76.2585H27.9303C27.0305 76.2585 26.8026 76.2809 26.6588 76.3799C26.4671 76.5087 26.3681 76.8112 26.3681 77.515L26.3788 82.6104L26.3756 82.6109ZM16.0813 43.5804C15.6137 42.2951 15.4658 42.1407 14.4637 41.9235C13.7971 41.801 13.5905 41.5837 13.5905 41.079C13.5905 40.5487 13.9227 40.2686 14.6405 40.2686H21.0989C21.8102 40.2686 22.1264 40.5487 22.1264 41.112C22.1264 41.6392 21.8101 41.8532 20.9998 41.9235C20.3109 41.9852 20.0308 42.2067 20.0308 42.704C20.0308 42.9181 20.0563 43.1427 20.1447 43.4004L20.3917 44.1149C20.3917 44.1149 23.844 53.893 24.3892 55.4656C24.4809 55.7169 24.7652 55.7053 24.861 55.4252C25.468 53.683 27.1185 48.8901 27.1782 48.6951C27.3475 48.1425 27.421 47.56 27.2217 46.9222C27.1525 46.6975 26.0951 43.5807 26.0951 43.5807C25.9769 43.242 25.9067 42.9918 25.8364 42.8629C25.6522 42.4061 25.3987 42.2399 24.6768 42.0483C24.0315 41.8896 23.7844 41.6767 23.7844 41.2124C23.7844 40.6117 24.1454 40.2689 24.8748 40.2689H31.0128C31.7241 40.2689 32.0701 40.5489 32.0701 41.1123C32.0701 41.6096 31.7538 41.8535 31.0574 41.9525C30.2247 42.0483 30 42.2399 30 42.8001C30 43.0834 30.0628 43.3634 30.3206 44.1152C30.3206 44.1152 33.349 53.6983 33.8282 55.2052C33.9199 55.4885 34.1893 55.4257 34.2659 55.1754C34.7376 53.643 37.7331 43.5812 37.7331 43.5812C37.8215 43.2681 37.8545 43.0178 37.8545 42.8303C37.8545 42.3618 37.519 42.1116 36.7598 42.0158C36.0708 41.9529 35.7545 41.6399 35.7545 41.1425C35.7545 40.5164 36.1124 40.2693 36.944 40.2693H47.7835C48.8153 40.2693 49.1572 40.4791 49.1572 41.1648C49.1572 41.6771 48.8154 42.0487 48.3841 42.0487H47.7835C47.5259 42.0487 47.282 42.2404 47.1861 42.4469C47.1275 42.6792 47.1021 42.8963 47.1021 43.677V47.7117C47.1021 49.1557 47.2266 49.2771 48.3842 49.2771H52.6319C53.2538 49.2771 53.5754 49.1781 53.733 48.997C53.8767 48.8053 53.8767 48.6839 53.8767 47.5232V43.6769C53.8767 42.8633 53.8767 42.6792 53.8001 42.4469C53.6893 42.2073 53.4422 42.0487 53.2283 42.0487H52.6319C52.1602 42.0487 51.781 41.6771 51.781 41.1648C51.781 40.479 52.1601 40.2693 53.2283 40.2693H58.9137C59.9775 40.2693 60.3576 40.4791 60.3576 41.1648C60.3576 41.6771 59.9774 42.0487 59.5505 42.0487H58.9137C58.6996 42.0487 58.4493 42.2403 58.3822 42.4469C58.2939 42.6791 58.2726 42.8963 58.2726 43.6769V57.7213C58.2726 58.5349 58.2939 58.719 58.3822 58.9736C58.4494 59.1908 58.6996 59.3462 58.9137 59.3462H59.5505C60.0147 59.3462 60.3576 59.7551 60.3576 60.2184C60.3576 60.9117 60.0147 61.1257 58.9137 61.1257H53.2283C52.1601 61.1257 51.8216 60.9117 51.8216 60.2184C51.8216 59.7552 52.2007 59.3462 52.632 59.3462H53.2283C53.4423 59.3462 53.6894 59.1908 53.8001 58.9736C53.8768 58.719 53.8768 58.5349 53.8768 57.7213V53.1561C53.8768 51.9954 53.8768 51.874 53.7331 51.6866C53.5755 51.5024 53.2539 51.4023 52.632 51.4023H48.3843C47.2267 51.4023 47.1022 51.5248 47.1022 52.9688V57.7213C47.1022 58.5349 47.1277 58.719 47.1863 58.9736C47.2821 59.1909 47.526 59.3463 47.7836 59.3463H48.3842C48.8155 59.3463 49.136 59.7552 49.136 60.2557C49.136 60.9117 48.7782 61.1257 47.7836 61.1257H42.0844C41.0345 61.1257 40.6543 60.9116 40.6543 60.2184C40.6543 59.7551 41.0345 59.3462 41.4646 59.3462H42.0844C42.3048 59.3462 42.5625 59.1908 42.6222 58.9735C42.718 58.719 42.718 58.5572 42.718 57.7212V43.6769C42.718 42.0817 41.9694 41.9752 41.4209 42.0487C40.8683 42.1265 40.5446 42.4767 40.2049 43.5812L35.2203 59.63C34.7709 61.1592 34.3471 61.5968 33.4121 61.5968C32.4793 61.5968 32.0044 61.1922 31.6284 60.0346C31.6284 60.0346 29.0535 52.3356 28.9684 52.0811C28.8799 51.8267 28.6148 51.8192 28.5413 52.063C28.4711 52.309 25.7002 60.0346 25.7002 60.0346C25.3989 60.7833 25.3211 61.0005 25.0667 61.255C24.8207 61.4393 24.4107 61.5968 24.0019 61.5968C23.0956 61.5968 22.6506 61.2209 22.2192 60.0346L16.0813 43.5811V43.5804ZM57.5908 34.1124C58.6365 30.2288 62.4125 26.309 66.5868 27.507C70.1274 28.5165 69.8773 31.4417 72.4521 32.3585C73.3764 32.6865 73.3029 33.6151 72.4969 33.7695C71.137 34.0271 69.3022 33.04 67.9317 31.7984C66.3291 30.3437 63.7244 30.4065 62.453 31.3745C61.8972 31.7984 62.1803 32.204 62.6894 32.0901C63.8683 31.8356 65.8649 31.7695 67.4014 33.4936C68.9114 35.1878 71.7258 36.702 74.2166 35.0771C74.9023 34.632 75.3474 33.7108 76.0439 33.9099C76.7883 34.1197 76.7989 35.2027 75.8234 36.4625C73.5201 39.4324 71.1593 39.0788 68.6282 41.5578C66.1002 44.0368 65.5891 46.8556 65.5891 50.4363C65.5891 55.9885 67.7732 59.3514 71.465 59.3514C75.0568 59.3514 77.3111 55.8596 77.3111 50.3707C77.3111 45.8461 76.2398 42.9209 73.5532 41.889C72.2531 41.4066 72.4745 40.1362 74.1506 39.9372C75.5317 39.7753 76.8842 40.246 78.3686 41.3406C80.9296 43.2266 82.2074 46.2253 82.2074 50.2422C82.2074 57.2309 77.9969 61.7036 71.3695 61.7036C64.9004 61.7036 60.6885 57.2311 60.6885 50.404C60.6885 46.0125 62.339 42.6304 65.1939 40.7222C66.3877 39.8298 68.4066 38.8022 70.3853 38.1324C70.7942 37.9918 70.7909 37.2656 70.0647 37.4062C69.199 37.5797 67.607 37.7044 66.2918 37.174C63.3411 36.0102 62.4829 33.9283 59.0091 35.4202C57.9624 35.8696 57.2883 35.2327 57.5907 34.1125L57.5908 34.1124ZM83.991 40.2941H89.7679C90.8945 40.2941 91.2779 40.5187 91.2779 41.2119C91.2779 41.7093 90.8945 42.0852 90.4494 42.0852H89.7679C89.4804 42.0852 89.2003 42.2395 89.112 42.494C89.0193 42.7038 89.0193 42.8955 89.0193 43.7101V56.843C89.0193 58.2178 89.079 58.5383 89.4474 58.7512C89.7679 58.9727 90.246 59.0312 91.5026 59.0312H93.2639C94.3798 59.0312 95.1688 58.682 95.5555 57.8717C95.7322 57.499 95.7877 57.3627 95.8239 57.2998C96.0346 56.8909 96.3659 56.7067 96.6683 56.7067C97.2391 56.7067 97.5191 57.1422 97.353 57.9452L96.8706 60.3731C96.745 60.9471 96.3882 61.1579 95.7578 61.1579H83.9914C82.9489 61.1579 82.6061 60.9514 82.6061 60.2549C82.6061 59.7949 82.949 59.4147 83.3867 59.4147H83.9915C84.1981 59.4147 84.4515 59.2231 84.5144 59.0133C84.607 58.7812 84.6357 58.6299 84.6357 57.8494V43.7096C84.6357 42.8652 84.607 42.7406 84.5144 42.4935C84.4515 42.239 84.1981 42.0846 83.9915 42.0846H83.3867C82.916 42.0846 82.5358 41.7088 82.5358 41.2114C82.5358 40.5182 82.916 40.2935 83.9915 40.2935L83.991 40.2941ZM64.4729 0.00390625C28.8653 0.00390625 0.000488281 28.8695 0.000488281 64.4763C0.000488281 100.084 28.8662 128.949 64.4729 128.949C100.085 128.949 128.945 100.083 128.945 64.4763C128.945 28.8687 100.084 0.00390625 64.4729 0.00390625ZM112.941 85.841C112.941 85.6237 112.724 85.5716 112.511 85.5716H112.216V86.1061H112.437C112.706 86.1061 112.941 86.0913 112.941 85.841ZM112.941 87.1743L112.396 86.4044H112.212V87.1743H111.887V85.2735H112.602C113.048 85.2735 113.25 85.4502 113.25 85.841C113.25 86.2201 113.041 86.3671 112.765 86.3969L113.316 87.1743H112.941ZM112.503 84.9636C111.769 84.9636 111.224 85.5131 111.224 86.2713C111.224 87.0305 111.769 87.5757 112.503 87.5757C113.239 87.5757 113.781 87.0305 113.781 86.2713C113.781 85.5131 113.239 84.9636 112.503 84.9636ZM49.2538 97.7812C49.2016 97.6853 48.4316 96.0934 48.3401 95.8942C48.255 95.7175 48.042 95.7069 47.9642 95.9019C47.8759 96.1192 47.1166 97.6451 47.0655 97.7548C46.9802 97.9358 47.0761 98.0541 47.2497 98.0541H49.0652C49.1983 98.0541 49.3303 97.9358 49.2538 97.7814V97.7812ZM61.0763 94.5357H58.7624C58.5228 94.5357 58.2726 94.6198 58.2726 94.9179V96.6058C58.2726 96.8709 58.5228 97.0253 58.7624 97.0253H61.0763C61.8537 97.0253 62.4873 96.6164 62.4873 95.7805C62.4873 94.9447 61.8537 94.5358 61.0763 94.5358V94.5357ZM46.4459 66.9854C43.0094 66.9854 40.8873 70.2642 40.8873 75.6986C40.8873 81.0112 42.9754 84.227 46.5087 84.227C49.9462 84.227 52.1014 80.8854 52.1014 75.6398C52.1014 70.3272 49.9131 66.9854 46.4459 66.9854ZM66.9561 66.9854C63.5188 66.9854 61.3922 70.2642 61.3922 75.6986C61.3922 81.0112 63.4858 84.227 67.0179 84.227C70.4521 84.227 72.6075 80.8854 72.6075 75.6398C72.6075 70.3272 70.4223 66.9854 66.9561 66.9854ZM86.6656 66.7938C86.6656 66.7938 85.9543 66.8416 85.605 66.8971C84.2557 67.1142 83.8544 67.4795 83.8544 69.1408V82.2446C83.8544 84.0314 84.9671 84.1379 86.5368 84.2263C90.3682 84.4436 92.5938 81.0402 92.5938 75.5361C92.5938 70.0286 90.3831 66.794 86.6657 66.794L86.6656 66.7938ZM112.937 85.8415C112.937 85.6242 112.72 85.5721 112.507 85.5721H112.212V86.1067H112.433C112.702 86.1067 112.937 86.0918 112.937 85.8415ZM112.937 87.1748L112.392 86.4048H112.207V87.1748H111.883V85.274H112.597C113.044 85.274 113.246 85.4507 113.246 85.8415C113.246 86.2206 113.036 86.3676 112.761 86.3974L113.312 87.1748H112.937ZM112.499 84.9641C111.765 84.9641 111.219 85.5136 111.219 86.2717C111.219 87.031 111.765 87.5761 112.499 87.5761C113.235 87.5761 113.777 87.0309 113.777 86.2717C113.777 85.5136 113.235 84.9641 112.499 84.9641ZM86.6615 66.794C86.6615 66.794 85.9501 66.8418 85.6008 66.8973C84.2515 67.1144 83.8502 67.4797 83.8502 69.141V82.2448C83.8502 84.0317 84.9629 84.1381 86.5326 84.2265C90.3641 84.4438 92.5896 81.0404 92.5896 75.5363C92.5896 70.0288 90.3789 66.7942 86.6615 66.7942V66.794ZM66.952 66.9858C63.5147 66.9858 61.3881 70.2646 61.3881 75.699C61.3881 81.0116 63.4817 84.2274 67.0139 84.2274C70.448 84.2274 72.6034 80.8858 72.6034 75.6402C72.6034 70.3276 70.4182 66.9858 66.952 66.9858ZM61.0719 94.5361H58.7579C58.5183 94.5361 58.2681 94.6202 58.2681 94.9184V96.6063C58.2681 96.8714 58.5183 97.0258 58.7579 97.0258H61.0719C61.8492 97.0258 62.4828 96.6169 62.4828 95.781C62.4828 94.9452 61.8491 94.5362 61.0719 94.5362V94.5361ZM46.4413 66.9859C43.005 66.9859 40.8827 70.2646 40.8827 75.6991C40.8827 81.0117 42.9709 84.2274 46.5042 84.2274C49.9417 84.2274 52.0969 80.8859 52.0969 75.6402C52.0969 70.3277 49.9086 66.9859 46.4413 66.9859ZM49.2494 97.782C49.1972 97.6861 48.4273 96.0941 48.3357 95.895C48.2506 95.7182 48.0376 95.7076 47.9598 95.9027C47.8715 96.1199 47.1122 97.6458 47.0611 97.7555C46.9759 97.9366 47.0717 98.0548 47.2453 98.0548H49.0608C49.1939 98.0548 49.326 97.9366 49.2494 97.7822C49.1972 97.6863 48.4273 96.0943 48.3356 95.8952C48.2505 95.7184 48.0375 95.7077 47.9598 95.9029C47.8714 96.1201 47.1122 97.646 47.061 97.7557C46.9759 97.9368 47.0717 98.055 47.2453 98.055H49.0608C49.1939 98.055 49.326 97.9368 49.2493 97.7823L49.2494 97.782ZM61.072 94.5366H58.7579C58.5183 94.5366 58.2682 94.6207 58.2682 94.9189V96.6068C58.2682 96.8719 58.5183 97.0262 58.7579 97.0262H61.072C61.8493 97.0262 62.4828 96.6173 62.4828 95.7814C62.4828 94.9456 61.8492 94.5366 61.072 94.5366ZM46.4414 66.9855C43.0051 66.9855 40.8828 70.2643 40.8828 75.6987C40.8828 81.0113 42.971 84.227 46.5043 84.227C49.9417 84.227 52.097 80.8855 52.097 75.6399C52.097 70.3273 49.9087 66.9855 46.4414 66.9855ZM66.9517 66.9855C63.5143 66.9855 61.3877 70.2643 61.3877 75.6987C61.3877 81.0113 63.4814 84.227 67.0135 84.227C70.4477 84.227 72.603 80.8855 72.603 75.6399C72.603 70.3273 70.4179 66.9855 66.9517 66.9855ZM86.6612 66.7939C86.6612 66.7939 85.9498 66.8417 85.6005 66.8971C84.2514 67.1143 83.8499 67.4796 83.8499 69.1409V82.2447C83.8499 84.0316 84.9627 84.138 86.5323 84.2264C90.3638 84.4437 92.5893 81.0403 92.5893 75.5361C92.5893 70.0287 90.3787 66.7941 86.6613 66.7941C86.6613 66.7941 85.9499 66.8419 85.6006 66.8974C84.2514 67.1145 83.85 67.4798 83.85 69.1411V82.2449C83.85 84.0318 84.9628 84.1382 86.5324 84.2266C90.3639 84.4439 92.5894 81.0405 92.5894 75.5364C92.5894 70.0289 90.3788 66.7943 86.6614 66.7943L86.6612 66.7939ZM66.9518 66.9859C63.5145 66.9859 61.3879 70.2647 61.3879 75.6991C61.3879 81.0117 63.4815 84.2275 67.0137 84.2275C70.4479 84.2275 72.6032 80.8859 72.6032 75.6403C72.6032 70.3277 70.4181 66.9859 66.9518 66.9859ZM61.0717 94.5362H58.7578C58.5181 94.5362 58.2679 94.6203 58.2679 94.9185V96.6064C58.2679 96.8715 58.5181 97.0258 58.7578 97.0258H61.0717C61.849 97.0258 62.4826 96.6169 62.4826 95.781C62.4826 94.9452 61.849 94.5362 61.0717 94.5362ZM46.4412 66.986C43.0048 66.986 40.8826 70.2647 40.8826 75.6992C40.8826 81.0118 42.9708 84.2275 46.504 84.2275C49.9415 84.2275 52.0967 80.886 52.0967 75.6403C52.0967 70.3278 49.9084 66.986 46.4412 66.986ZM49.2492 97.7821C49.197 97.6862 48.4272 96.0942 48.3355 95.8951C48.2504 95.7183 48.0374 95.7076 47.9596 95.9028C47.8713 96.12 47.112 97.6458 47.0609 97.7556C46.9757 97.9366 47.0716 98.0549 47.2451 98.0549H49.0607C49.1937 98.0549 49.3259 97.9366 49.2492 97.7822C49.197 97.6864 48.4271 96.0944 48.3355 95.8953C48.2503 95.7185 48.0373 95.7079 47.9596 95.903C47.8712 96.1202 47.112 97.6461 47.0608 97.7558C46.9757 97.9369 47.0715 98.0551 47.2451 98.0551H49.0606C49.1937 98.0551 49.3258 97.9369 49.2491 97.7824L49.2492 97.7821ZM61.0718 94.5367H58.7579C58.5182 94.5367 58.268 94.6208 58.268 94.919V96.6068C58.268 96.872 58.5182 97.0263 58.7579 97.0263H61.0718C61.8491 97.0263 62.4827 96.6174 62.4827 95.7815C62.4827 94.9457 61.849 94.5367 61.0718 94.5367ZM46.4413 66.9856C43.0049 66.9856 40.8826 70.2643 40.8826 75.6988C40.8826 81.0114 42.9709 84.2271 46.5041 84.2271C49.9416 84.2271 52.0968 80.8856 52.0968 75.6399C52.0968 70.3274 49.9085 66.9856 46.4413 66.9856ZM66.9515 66.9856C63.5141 66.9856 61.3876 70.2643 61.3876 75.6988C61.3876 81.0114 63.4812 84.2271 67.0134 84.2271C70.4475 84.2271 72.6029 80.8856 72.6029 75.6399C72.6029 70.3274 70.4177 66.9856 66.9515 66.9856ZM86.661 66.7939C86.661 66.7939 85.9496 66.8418 85.6004 66.8972C84.2512 67.1144 83.8497 67.4797 83.8497 69.141V82.2448C83.8497 84.0317 84.9625 84.1381 86.5322 84.2265C90.3636 84.4437 92.5892 81.0404 92.5892 75.5362C92.5892 70.0288 90.3785 66.7942 86.6611 66.7942C86.6611 66.7942 85.9497 66.842 85.6004 66.8974C84.2513 67.1146 83.8498 67.4799 83.8498 69.1412V82.245C83.8498 84.0319 84.9626 84.1383 86.5322 84.2267C90.3637 84.444 92.5893 81.0406 92.5893 75.5364C92.5893 70.029 90.3786 66.7944 86.6612 66.7944L86.661 66.7939ZM66.9517 66.986C63.5143 66.986 61.3877 70.2648 61.3877 75.6992C61.3877 81.0118 63.4814 84.2275 67.0135 84.2275C70.4477 84.2275 72.603 80.886 72.603 75.6404C72.603 70.3278 70.4179 66.986 66.9517 66.986ZM61.0715 94.5363H58.7575C58.5179 94.5363 58.2677 94.6204 58.2677 94.9186V96.6065C58.2677 96.8716 58.5179 97.0259 58.7575 97.0259H61.0715C61.8488 97.0259 62.4824 96.617 62.4824 95.7811C62.4824 94.9453 61.8488 94.5363 61.0715 94.5363ZM46.441 66.986C43.0047 66.986 40.8824 70.2648 40.8824 75.6993C40.8824 81.0118 42.9706 84.2276 46.5039 84.2276C49.9413 84.2276 52.0965 80.8861 52.0965 75.6404C52.0965 70.3278 49.9083 66.986 46.441 66.986ZM49.2491 97.7822C49.1969 97.6862 48.427 96.0943 48.3353 95.8951C48.2502 95.7184 48.0372 95.7077 47.9595 95.9028C47.8711 96.1201 47.1119 97.6459 47.0607 97.7557C46.9756 97.9367 47.0714 98.055 47.245 98.055H49.0605C49.1936 98.055 49.3257 97.9367 49.249 97.7823L49.2491 97.7822ZM46.441 66.9863C43.0046 66.9863 40.8823 70.265 40.8823 75.6995C40.8823 81.0121 42.9706 84.2278 46.5038 84.2278C49.9413 84.2278 52.0965 80.8863 52.0965 75.6406C52.0965 70.3281 49.9082 66.9863 46.441 66.9863ZM66.9512 66.9863C63.5138 66.9863 61.3873 70.265 61.3873 75.6995C61.3873 81.0121 63.4809 84.2278 67.0131 84.2278C70.4472 84.2278 72.6026 80.8863 72.6026 75.6406C72.6026 70.3281 70.4174 66.9863 66.9512 66.9863ZM86.6607 66.7946C86.6607 66.7946 85.9493 66.8424 85.6002 66.8979C84.2509 67.1151 83.8494 67.4804 83.8494 69.1416V82.2454C83.8494 84.0323 84.9622 84.1388 86.532 84.2272C90.3633 84.4444 92.5889 81.041 92.5889 75.5369C92.5889 70.0295 90.3782 66.7947 86.6608 66.7947C86.6608 66.7947 85.9494 66.8427 85.6002 66.898C84.251 67.1153 83.8495 67.4806 83.8495 69.1418V82.2457C83.8495 84.0326 84.9623 84.139 86.532 84.2274C90.3634 84.4446 92.589 81.0413 92.589 75.5371C92.589 70.0297 90.3783 66.7951 86.6609 66.7951L86.6607 66.7946ZM66.9514 66.9867C63.514 66.9867 61.3874 70.2655 61.3874 75.6999C61.3874 81.0125 63.4811 84.2282 67.0133 84.2282C70.4474 84.2282 72.6027 80.8867 72.6027 75.6411C72.6027 70.3285 70.4176 66.9867 66.9514 66.9867ZM46.4411 66.9867C43.0048 66.9867 40.8825 70.2655 40.8825 75.6999C40.8825 81.0125 42.9707 84.2282 46.504 84.2282C49.9414 84.2282 52.0967 80.8867 52.0967 75.6411C52.0967 70.3285 49.9084 66.9867 46.4411 66.9867C43.0048 66.9867 40.8825 70.2655 40.8825 75.6999C40.8825 81.0125 42.9707 84.2282 46.504 84.2282C49.9414 84.2282 52.0967 80.8867 52.0967 75.6411C52.0967 70.3285 49.9084 66.9867 46.4411 66.9867ZM66.9514 66.9867C63.514 66.9867 61.3874 70.2655 61.3874 75.6999C61.3874 81.0125 63.4811 84.2282 67.0133 84.2282C70.4474 84.2282 72.6027 80.8867 72.6027 75.6411C72.6027 70.3285 70.4176 66.9867 66.9514 66.9867ZM86.6609 66.7951C86.6609 66.7951 85.9495 66.8429 85.6003 66.8983C84.2511 67.1155 83.8496 67.4808 83.8496 69.1421V82.2459C83.8496 84.0328 84.9624 84.1392 86.5321 84.2276C90.3635 84.4449 92.589 81.0415 92.589 75.5373C92.589 70.0299 90.3784 66.7952 86.661 66.7952C86.661 66.7952 85.9496 66.8431 85.6003 66.8986C84.2512 67.1157 83.8497 67.481 83.8497 69.1423V82.2461C83.8497 84.033 84.9625 84.1394 86.5322 84.2278C90.3636 84.4451 92.5891 81.0417 92.5891 75.5375C92.5891 70.0301 90.3785 66.7954 86.6611 66.7954L86.6609 66.7951ZM66.9515 66.9871C63.5142 66.9871 61.3876 70.2659 61.3876 75.7003C61.3876 81.0129 63.4812 84.2287 67.0135 84.2287C70.4476 84.2287 72.6029 80.8871 72.6029 75.6415C72.6029 70.3289 70.4178 66.9871 66.9515 66.9871ZM46.4413 66.9871C43.005 66.9871 40.8827 70.2659 40.8827 75.7003C40.8827 81.0129 42.9709 84.2287 46.5042 84.2287C49.9416 84.2287 52.0968 80.8871 52.0968 75.6415C52.0968 70.3289 49.9086 66.9871 46.4413 66.9871Z" fill="#006F46"/>
</g>
<defs>
<clipPath id="clip0_4204_901">
<rect width="129.625" height="129.625" fill="white"/>
</clipPath>
</defs>
</svg>
